<?xml version="1.0" encoding="UTF-8" standalone="no"?>
<!-- Created with Inkscape (http://www.inkscape.org/) -->

<svg
   width="86mm"
   height="79mm"
   viewBox="0 0 86 79"
   version="1.1"
   id="svg1"
   inkscape:version="1.3.2 (091e20e, 2023-11-25, custom)"
   sodipodi:docname="wow#1.svg"
   xmlns:inkscape="http://www.inkscape.org/namespaces/inkscape"
   xmlns:sodipodi="http://sodipodi.sourceforge.net/DTD/sodipodi-0.dtd"
   xmlns="http://www.w3.org/2000/svg"
   xmlns:svg="http://www.w3.org/2000/svg">
  <sodipodi:namedview
     id="namedview1"
     pagecolor="#ffffff"
     bordercolor="#000000"
     borderopacity="0.25"
     inkscape:showpageshadow="2"
     inkscape:pageopacity="0.0"
     inkscape:pagecheckerboard="0"
     inkscape:deskcolor="#d1d1d1"
     inkscape:document-units="mm"
     inkscape:zoom="1.0877315"
     inkscape:cx="396.69717"
     inkscape:cy="193.52203"
     inkscape:window-width="1590"
     inkscape:window-height="1237"
     inkscape:window-x="2116"
     inkscape:window-y="253"
     inkscape:window-maximized="0"
     inkscape:current-layer="layer1" />
  <defs
     id="defs1" />
  <g
     inkscape:label="Layer 1"
     inkscape:groupmode="layer"
     id="layer1">
    <g
       id="g16"
       transform="matrix(0.26458333,0,0,0.26458333,-116.06753,-12.59746)">
			<g
   id="g12">
				<g
   id="g9">
					<g
   id="g3">
						<g
   id="g2">
							<path
   style="fill:#daecf0"
   d="m 758.544,129.741 c -1.283,-27.942 -5.816,-54.935 -5.816,-54.935 l -0.675,0.034 c -3.077,0.156 -6.155,0.312 -9.232,0.467 -2.875,-0.178 -5.751,-0.356 -8.626,-0.534 -1.633,-0.101 -4.427,-0.882 -5.95,0.094 -3.372,2.162 -1.679,7 -0.152,9.635 0.81,1.398 2.654,2.577 3.16,4.032 1.391,3.999 -0.182,7.915 -3.94,9.28 -2.103,0.764 -6.609,1.639 -8.329,-0.292 -2.332,-2.618 -1.445,-7.678 0.161,-10.22 2.449,-3.876 4.425,-7.614 1.949,-11.934 -0.239,-0.417 -0.7,-0.683 -1.178,-0.681 -9.908,0.046 -19.727,0.776 -29.539,2.151 -0.419,0.059 -0.884,0.546 -0.953,0.96 -0.516,3.105 -1.031,6.21 -1.547,9.316 -0.144,0.87 0.358,1.735 1.316,1.74 6.284,3.73 5.909,7.229 -1.124,10.498 -2.781,0.613 -5.48,0.291 -8.097,-0.967 -11.249,-8.415 1.311,-8.984 3.05,-12.147 1.558,-2.834 0.455,-7.251 -0.136,-10.309 -0.11,-0.571 -0.753,-1.028 -1.316,-1.009 -9.046,0.297 -18.091,0.594 -27.137,0.891 -0.844,0.987 -1.343,2.119 -1.715,3.34 -0.128,0.855 -0.232,1.715 -0.339,2.575 1.019,3.764 4.469,7.881 4.249,11.411 -0.222,3.573 -2.477,4.886 -4.985,4.704 -1.062,0.295 -2.416,0.267 -4.078,-0.103 -4.168,-0.797 -5.824,-3.468 -4.966,-8.014 0.415,-2.074 1.774,-4.023 2.492,-6.007 1.059,-2.927 1.329,-5.144 -0.055,-7.965 -0.204,-0.415 -0.728,-0.695 -1.179,-0.681 -7.736,0.247 -15.472,0.495 -23.209,0.742 -0.701,0.023 -1.414,0.612 -1.365,1.375 0.358,5.512 -2.688,8.644 1.991,12.59 1.438,1.213 4.724,2.414 5.076,4.862 0.758,5.253 -5.621,7.221 -9.723,7.057 -2.062,-0.083 -6.48,-0.928 -8.321,-2.407 -5.05,-4.057 -0.816,-8.754 1.211,-12.282 1.578,-2.747 4.761,-9.741 0.74,-12.212 -2.188,-1.345 -7.245,-0.153 -9.689,-0.14 -5.489,0.029 -10.972,-0.087 -16.456,-0.294 -0.768,-0.029 -1.323,0.655 -1.365,1.375 -0.204,3.542 -0.409,7.084 -0.614,10.625 3.976,1.839 7.832,5.782 4.501,10.24 -1.887,2.525 -5.232,3.324 -8.317,3.067 -2.334,0.21 -4.758,-0.7 -6.549,-2.521 -1.072,-1.09 -1.933,-2.548 -2.043,-4.103 -0.071,-0.085 -0.142,-0.169 -0.212,-0.254 l 0.205,-0.289 c 0.001,-0.019 -0.002,-0.038 -10e-4,-0.057 0.077,-1.317 0.692,-2.334 1.58,-3.097 0.57,-0.66 1.257,-1.211 1.928,-1.787 0.039,-0.055 0.077,-0.109 0.116,-0.164 0.144,-0.147 0.318,-0.273 0.505,-0.389 0.646,-0.605 1.232,-1.278 1.617,-2.157 0.758,-1.731 0.914,-3.576 0.807,-5.451 -0.187,-1.108 -0.407,-2.245 -0.472,-3.451 -0.052,-0.13 -0.099,-0.267 -0.126,-0.425 -0.19,-1.086 -0.328,-2.136 -0.413,-3.201 -0.193,-0.124 -0.425,-0.2 -0.706,-0.188 -8.085,0.33 -16.169,0.66 -24.253,0.99 -0.606,0.025 -1.149,0.41 -1.316,1.009 -0.961,3.437 -0.593,6.353 0.204,9.818 0.609,2.645 1.381,5.072 1.028,7.682 0.614,4.871 -4.731,10.12 -9.535,7.472 -0.693,-0.382 -1.291,-0.918 -1.783,-1.547 -0.677,-0.516 -1.037,-1.175 -1.076,-1.979 -0.441,-1.262 -0.53,-2.645 -0.164,-3.903 0.81,-2.785 3.301,-4.22 5.96,-4.68 0.109,-0.039 0.218,-0.078 0.328,-0.115 0.187,-0.314 0.261,-0.71 0.203,-1.114 -0.533,-3.651 -1.066,-7.302 -1.598,-10.954 -0.091,-0.627 -0.768,-0.96 -1.316,-1.009 -8.335,-0.747 -16.587,-0.674 -24.907,0.221 -0.625,0.067 -1.123,0.383 -1.317,1.009 -1.532,4.958 -0.77,8.692 1.193,12.825 2.531,1.814 4.774,5.052 4.986,7.769 0.237,3.04 -1.484,4.998 -3.778,5.764 -0.77,0.601 -1.835,1.017 -3.211,1.238 -0.909,0.119 -1.817,0.239 -2.725,0.358 -5.268,0.031 -8.688,-2.921 -6.636,-9.909 0.457,-1.554 1.8,-2.99 2.493,-4.45 6.614,-13.937 -11.24,-13.193 -20.015,-14.27 -0.172,-0.021 -0.322,-0.006 -0.459,0.025 -0.999,-0.326 -2.295,0.19 -2.272,1.558 1.149,68.175 -0.454,136.391 -4.874,204.431 -1.252,19.277 -2.735,38.539 -4.429,57.782 -0.081,0.92 0.845,1.72 1.702,1.714 72.884,-0.497 145.746,-3.465 218.428,-8.951 20.485,-1.546 43.341,-0.422 63.793,-2.36 0.872,-0.082 0.932,0.912 0.872,-0.082 -3.939,-64.724 1.436,-134.012 -1.535,-198.736 z"
   id="path1" />

						</g>

					</g>

					<g
   id="g8">
						<g
   id="g5">
							<g
   id="g4">
								<path
   style="fill:none"
   d="M 758.547,129.826 H 484.913 c -0.225,50.218 -1.948,100.427 -5.203,150.542 -1.252,19.277 -2.735,38.539 -4.429,57.782 -0.081,0.92 0.845,1.72 1.702,1.714 72.884,-0.497 145.746,-3.465 218.428,-8.951 20.485,-1.546 43.341,-0.422 63.793,-2.36 0.872,-0.082 0.932,0.912 0.872,-0.082 -3.934,-64.689 1.434,-133.945 -1.529,-198.645 z"
   id="path2" />

							</g>

						</g>

						<g
   id="g7">
							<g
   id="g6">
								<path
   style="fill:#a3d0d8"
   d="m 758.544,129.741 c -1.283,-27.942 -5.816,-54.935 -5.816,-54.935 l -0.675,0.034 c -3.077,0.156 -6.155,0.312 -9.232,0.467 -2.875,-0.178 -5.751,-0.356 -8.626,-0.534 -1.633,-0.101 -4.427,-0.882 -5.95,0.094 -3.372,2.162 -1.679,7 -0.152,9.635 0.81,1.398 2.654,2.577 3.16,4.032 1.391,3.999 -0.182,7.915 -3.94,9.28 -2.103,0.764 -6.609,1.639 -8.329,-0.292 -2.332,-2.618 -1.445,-7.678 0.161,-10.22 2.449,-3.876 4.425,-7.614 1.949,-11.934 -0.239,-0.417 -0.7,-0.683 -1.178,-0.681 -9.908,0.046 -19.727,0.776 -29.539,2.151 -0.419,0.059 -0.884,0.546 -0.953,0.96 -0.516,3.105 -1.031,6.21 -1.547,9.316 -0.144,0.87 0.358,1.735 1.316,1.74 6.284,3.73 5.909,7.229 -1.124,10.498 -2.781,0.613 -5.48,0.291 -8.097,-0.967 -11.249,-8.415 1.311,-8.984 3.05,-12.147 1.558,-2.834 0.455,-7.251 -0.136,-10.309 -0.11,-0.571 -0.753,-1.028 -1.316,-1.009 -9.046,0.297 -18.091,0.594 -27.137,0.891 -0.844,0.987 -1.343,2.119 -1.715,3.34 -0.128,0.855 -0.232,1.715 -0.339,2.575 1.019,3.764 4.469,7.881 4.249,11.411 -0.222,3.573 -2.477,4.886 -4.985,4.704 -1.062,0.295 -2.416,0.267 -4.078,-0.103 -4.168,-0.797 -5.824,-3.468 -4.966,-8.014 0.415,-2.074 1.774,-4.023 2.492,-6.007 1.059,-2.927 1.329,-5.144 -0.055,-7.965 -0.204,-0.415 -0.728,-0.695 -1.179,-0.681 -7.736,0.247 -15.472,0.495 -23.209,0.742 -0.701,0.023 -1.414,0.612 -1.365,1.375 0.358,5.512 -2.688,8.644 1.991,12.59 1.438,1.213 4.724,2.414 5.076,4.862 0.758,5.253 -5.621,7.221 -9.723,7.057 -2.062,-0.083 -6.48,-0.928 -8.321,-2.407 -5.05,-4.057 -0.816,-8.754 1.211,-12.282 1.578,-2.747 4.761,-9.741 0.74,-12.212 -2.188,-1.345 -7.245,-0.153 -9.689,-0.14 -5.489,0.029 -10.972,-0.087 -16.456,-0.294 -0.768,-0.029 -1.323,0.655 -1.365,1.375 -0.204,3.542 -0.409,7.084 -0.614,10.625 3.976,1.839 7.832,5.782 4.501,10.24 -1.887,2.525 -5.232,3.324 -8.317,3.067 -2.334,0.21 -4.758,-0.7 -6.549,-2.521 -1.072,-1.09 -1.933,-2.548 -2.043,-4.103 -0.071,-0.085 -0.142,-0.169 -0.212,-0.254 l 0.205,-0.289 c 0.001,-0.019 -0.002,-0.038 -10e-4,-0.057 0.077,-1.317 0.692,-2.334 1.58,-3.097 0.57,-0.66 1.257,-1.211 1.928,-1.787 0.039,-0.055 0.077,-0.109 0.116,-0.164 0.144,-0.147 0.318,-0.273 0.505,-0.389 0.646,-0.605 1.232,-1.278 1.617,-2.157 0.758,-1.731 0.914,-3.576 0.807,-5.451 -0.187,-1.108 -0.407,-2.245 -0.472,-3.451 -0.052,-0.13 -0.099,-0.267 -0.126,-0.425 -0.19,-1.086 -0.328,-2.136 -0.413,-3.201 -0.193,-0.124 -0.425,-0.2 -0.706,-0.188 -8.085,0.33 -16.169,0.66 -24.253,0.99 -0.606,0.025 -1.149,0.41 -1.316,1.009 -0.961,3.437 -0.593,6.353 0.204,9.818 0.609,2.645 1.381,5.072 1.028,7.682 0.614,4.871 -4.731,10.12 -9.535,7.472 -0.693,-0.382 -1.291,-0.918 -1.783,-1.547 -0.677,-0.516 -1.037,-1.175 -1.076,-1.979 -0.441,-1.262 -0.53,-2.645 -0.164,-3.903 0.81,-2.785 3.301,-4.22 5.96,-4.68 0.109,-0.039 0.218,-0.078 0.328,-0.115 0.187,-0.314 0.261,-0.71 0.203,-1.114 -0.533,-3.651 -1.066,-7.302 -1.598,-10.954 -0.091,-0.627 -0.768,-0.96 -1.316,-1.009 -8.335,-0.747 -16.587,-0.674 -24.907,0.221 -0.625,0.067 -1.123,0.383 -1.317,1.009 -1.532,4.958 -0.77,8.692 1.193,12.825 2.531,1.814 4.774,5.052 4.986,7.769 0.237,3.04 -1.484,4.998 -3.778,5.764 -0.77,0.601 -1.835,1.017 -3.211,1.238 -0.909,0.119 -1.817,0.239 -2.725,0.358 -5.268,0.031 -8.688,-2.921 -6.636,-9.909 0.457,-1.554 1.8,-2.99 2.493,-4.45 6.614,-13.937 -11.24,-13.193 -20.015,-14.27 -0.172,-0.021 -0.322,-0.006 -0.459,0.025 -0.999,-0.326 -2.295,0.19 -2.272,1.558 0.303,17.962 0.409,35.926 0.329,53.889 H 758.55 c -0.004,-0.034 -0.005,-0.063 -0.006,-0.091 z"
   id="path4" />

							</g>

						</g>

					</g>

				</g>

				<g
   id="g11">
					<g
   id="g10">
						<path
   style="fill:#4c4c4d"
   d="m 476.973,341.372 c -0.869,0 -1.759,-0.402 -2.382,-1.078 -0.597,-0.646 -0.886,-1.454 -0.813,-2.276 1.71,-19.428 3.199,-38.857 4.427,-57.749 4.38,-67.444 6.019,-136.183 4.87,-204.308 -0.017,-1.04 0.428,-1.973 1.221,-2.559 0.735,-0.543 1.718,-0.744 2.641,-0.56 0.187,-0.012 0.373,-0.01 0.562,0.013 1.143,0.14 2.464,0.25 3.862,0.367 6.715,0.561 15.072,1.258 17.943,6.246 1.469,2.553 1.263,5.85 -0.613,9.801 -0.328,0.693 -0.759,1.344 -1.174,1.973 -0.529,0.799 -1.027,1.554 -1.234,2.255 -0.804,2.738 -0.709,4.876 0.276,6.183 1.107,1.471 3.209,1.79 4.812,1.793 l 2.63,-0.345 c 1.06,-0.172 1.908,-0.487 2.478,-0.932 l 0.205,-0.159 0.246,-0.082 c 1.122,-0.375 2.971,-1.421 2.752,-4.217 -0.167,-2.136 -2.041,-4.999 -4.36,-6.659 l -0.317,-0.228 -0.167,-0.353 c -2.398,-5.05 -2.767,-9.082 -1.272,-13.917 0.358,-1.157 1.329,-1.929 2.599,-2.063 8.468,-0.912 16.71,-0.984 25.202,-0.223 1.142,0.102 2.467,0.864 2.674,2.295 l 1.599,10.952 c 0.108,0.744 -0.034,1.491 -0.4,2.104 l -0.287,0.481 -1.079,0.347 c -1.462,0.253 -4.026,1.059 -4.769,3.614 -0.264,0.911 -0.215,1.97 0.139,2.985 l 0.073,0.207 0.01,0.218 c 0.018,0.357 0.157,0.605 0.484,0.853 l 0.155,0.118 0.119,0.152 c 0.388,0.497 0.833,0.885 1.322,1.155 1.955,1.078 3.695,0.252 4.558,-0.333 1.878,-1.274 3.01,-3.589 2.753,-5.627 l -0.025,-0.196 0.027,-0.196 c 0.261,-1.921 -0.187,-3.764 -0.706,-5.898 -0.1,-0.41 -0.2,-0.823 -0.297,-1.242 -0.875,-3.804 -1.211,-6.897 -0.186,-10.563 0.338,-1.21 1.426,-2.058 2.707,-2.111 l 24.254,-0.989 c 0.566,-0.019 1.113,0.124 1.583,0.426 l 0.628,0.403 0.06,0.745 c 0.081,0.999 0.21,2 0.396,3.062 0.003,0.022 0.01,0.051 0.039,0.122 l 0.094,0.233 0.013,0.25 c 0.051,0.94 0.212,1.877 0.368,2.783 l 0.103,0.662 c 0.138,2.424 -0.158,4.375 -0.931,6.142 -0.535,1.22 -1.333,2.059 -1.968,2.653 l -0.234,0.18 c -0.076,0.048 -0.129,0.085 -0.164,0.112 l -0.096,0.136 -0.496,0.443 c -0.537,0.456 -1.044,0.886 -1.448,1.355 l -0.159,0.158 c -0.646,0.555 -0.99,1.202 -1.053,1.978 l 0.003,0.469 c 0.073,1.035 0.661,2.184 1.614,3.153 1.445,1.47 3.441,2.252 5.339,2.076 l 0.13,-0.011 0.13,0.011 c 3.023,0.251 5.641,-0.671 6.984,-2.468 0.858,-1.147 1.14,-2.237 0.863,-3.331 -0.428,-1.691 -2.263,-3.468 -4.789,-4.636 l -0.932,-0.431 0.673,-11.65 c 0.094,-1.599 1.377,-2.817 2.929,-2.795 5.927,0.224 11.286,0.317 16.391,0.293 0.621,-0.004 1.513,-0.102 2.457,-0.205 2.825,-0.312 6.027,-0.662 8.03,0.568 4.338,2.666 2.73,9.109 -0.221,14.249 -0.297,0.518 -0.641,1.061 -0.996,1.62 -2.404,3.793 -3.642,6.275 -0.579,8.734 1.421,1.141 5.354,1.992 7.437,2.076 2.47,0.116 5.773,-0.697 7.32,-2.413 0.737,-0.817 1.015,-1.773 0.85,-2.921 -0.156,-1.081 -1.601,-1.98 -2.876,-2.773 -0.619,-0.384 -1.201,-0.747 -1.68,-1.151 -3.809,-3.211 -3.324,-6.28 -2.856,-9.248 0.215,-1.363 0.438,-2.772 0.332,-4.395 -0.047,-0.731 0.206,-1.44 0.713,-1.999 0.542,-0.598 1.311,-0.955 2.108,-0.982 l 23.21,-0.742 c 1.039,-0.027 2.123,0.593 2.58,1.523 1.637,3.339 1.232,6.07 0.12,9.144 -0.312,0.865 -0.724,1.698 -1.121,2.505 -0.565,1.145 -1.099,2.227 -1.311,3.286 -0.703,3.726 0.424,5.596 3.771,6.236 1.437,0.319 2.563,0.36 3.391,0.13 l 0.252,-0.07 0.261,0.019 c 0.669,0.049 1.616,-0.022 2.32,-0.636 0.621,-0.543 0.975,-1.437 1.05,-2.657 0.107,-1.705 -1.008,-3.889 -2.085,-6.001 -0.819,-1.605 -1.665,-3.264 -2.114,-4.923 l -0.077,-0.285 0.073,-0.593 c 0.095,-0.774 0.191,-1.545 0.306,-2.314 l 0.049,-0.215 c 0.492,-1.616 1.13,-2.849 2.01,-3.879 l 0.432,-0.507 27.802,-0.913 c 1.351,-0.047 2.601,0.958 2.847,2.23 l 0.172,0.869 c 0.626,3.122 1.484,7.398 -0.195,10.453 -0.729,1.326 -2.329,2.122 -4.023,2.964 -1.508,0.75 -3.385,1.683 -3.468,2.602 -0.032,0.356 0.157,1.729 3.903,4.557 2.233,1.042 4.472,1.314 6.83,0.825 2.835,-1.339 4.489,-2.745 4.545,-3.868 0.052,-1.018 -1.161,-2.334 -3.424,-3.721 -0.655,-0.109 -1.235,-0.436 -1.665,-0.946 -0.567,-0.674 -0.805,-1.588 -0.653,-2.509 l 1.547,-9.316 c 0.176,-1.067 1.178,-2.059 2.232,-2.206 9.926,-1.391 19.933,-2.12 29.741,-2.167 0.003,0 0.007,0 0.01,0 1.025,0 1.976,0.551 2.484,1.44 3.112,5.427 0.045,10.278 -1.984,13.489 -1.32,2.09 -2.097,6.404 -0.31,8.411 0.916,1.027 4.26,0.759 6.687,-0.122 2.924,-1.062 4.17,-4.092 3.032,-7.368 -0.175,-0.503 -0.779,-1.126 -1.362,-1.728 -0.606,-0.625 -1.231,-1.271 -1.678,-2.042 -2.192,-3.784 -3.339,-9.109 0.643,-11.661 1.617,-1.037 3.819,-0.728 5.591,-0.48 0.465,0.066 0.898,0.128 1.267,0.151 l 8.541,0.528 11.164,-0.565 0.222,1.324 c 0.046,0.271 4.563,27.403 5.836,55.116 1.406,30.627 0.938,62.807 0.486,93.928 -0.505,34.757 -1.027,70.697 1.046,104.779 v 10e-4 c 0.031,0.512 0.088,1.465 -0.88,1.908 -0.207,0.094 -0.902,0.341 -1.601,-0.209 -10.909,1.019 -22.625,1.183 -33.958,1.341 -9.89,0.137 -20.115,0.28 -29.618,0.997 -72.131,5.444 -145.656,8.458 -218.531,8.956 -0.01,-10e-4 -0.017,-10e-4 -0.023,-10e-4 z m -0.181,-3.093 c 0.033,0 0.133,0.069 0.19,0.077 72.799,-0.498 146.253,-3.509 218.315,-8.948 9.595,-0.725 19.868,-0.868 29.802,-1.006 11.158,-0.156 22.688,-0.317 33.384,-1.298 -1.978,-33.759 -1.462,-69.231 -0.963,-103.549 0.452,-31.076 0.919,-63.209 -0.483,-93.745 -1.104,-24.051 -4.67,-47.671 -5.583,-53.429 l -8.643,0.438 -8.71,-0.539 c -0.438,-0.027 -0.95,-0.097 -1.5,-0.175 -1.142,-0.159 -2.864,-0.401 -3.544,0.032 -2.883,1.849 0.002,7.026 0.34,7.61 0.261,0.451 0.733,0.938 1.234,1.455 0.774,0.798 1.651,1.703 2.045,2.837 1.688,4.853 -0.353,9.56 -4.851,11.193 -0.287,0.105 -7.091,2.524 -9.969,-0.706 -2.896,-3.253 -1.854,-9.076 0.012,-12.03 2.32,-3.671 3.938,-6.764 1.96,-10.3 -9.549,0.049 -19.291,0.754 -28.959,2.098 l -1.504,9.053 0.241,0.002 0.355,0.209 c 3.603,2.139 5.298,4.31 5.181,6.639 -0.122,2.434 -2.229,4.567 -6.438,6.523 l -0.311,0.105 c -3.105,0.686 -6.158,0.322 -9.075,-1.08 l -0.251,-0.152 c -3.76,-2.812 -5.418,-5.143 -5.219,-7.334 0.235,-2.599 2.836,-3.891 5.129,-5.031 1.033,-0.514 2.448,-1.217 2.722,-1.715 1.148,-2.09 0.416,-5.741 -0.119,-8.406 l -0.133,-0.673 -26.253,0.862 c -0.402,0.591 -0.72,1.292 -1.001,2.19 -0.104,0.705 -0.192,1.412 -0.279,2.12 0.388,1.276 1.08,2.634 1.811,4.065 1.262,2.473 2.566,5.031 2.41,7.559 -0.159,2.559 -1.218,3.991 -2.077,4.742 -1.12,0.978 -2.587,1.459 -4.267,1.387 -1.273,0.298 -2.767,0.248 -4.553,-0.149 -4.94,-0.944 -7.13,-4.415 -6.121,-9.766 0.292,-1.462 0.94,-2.775 1.565,-4.044 0.378,-0.766 0.735,-1.489 0.991,-2.196 0.898,-2.481 1.18,-4.289 0.089,-6.621 L 620.8,77.316 c 0.094,1.858 -0.155,3.435 -0.375,4.834 -0.444,2.81 -0.688,4.358 1.821,6.473 0.312,0.263 0.806,0.571 1.328,0.895 1.651,1.027 3.913,2.434 4.268,4.904 0.293,2.032 -0.258,3.89 -1.594,5.372 -2.283,2.531 -6.515,3.532 -9.682,3.408 -1.912,-0.078 -6.883,-0.874 -9.205,-2.739 -5.387,-4.326 -2.193,-9.366 -0.08,-12.701 0.331,-0.522 0.651,-1.026 0.928,-1.508 1.607,-2.799 3.938,-8.528 1.257,-10.176 -1.121,-0.689 -4.129,-0.358 -6.12,-0.14 -1.025,0.113 -1.993,0.219 -2.771,0.223 -5.08,0.021 -10.427,-0.068 -16.318,-0.288 l -0.561,9.582 c 2.89,1.566 4.924,3.822 5.517,6.167 0.5,1.976 0.025,4.008 -1.371,5.878 -1.978,2.647 -5.45,3.986 -9.523,3.678 -2.795,0.209 -5.556,-0.871 -7.627,-2.976 -1.327,-1.35 -2.172,-2.945 -2.415,-4.541 l -0.666,-0.798 0.636,-0.899 c 0.18,-1.432 0.859,-2.693 1.981,-3.69 0.538,-0.607 1.131,-1.111 1.706,-1.6 l 0.328,-0.335 c 0.184,-0.188 0.393,-0.358 0.65,-0.529 0.582,-0.558 0.935,-1.033 1.17,-1.571 0.567,-1.295 0.786,-2.784 0.687,-4.676 L 574.7,79.157 c -0.159,-0.923 -0.323,-1.876 -0.393,-2.903 -0.045,-0.136 -0.089,-0.298 -0.121,-0.481 -0.126,-0.719 -0.228,-1.417 -0.309,-2.106 l -23.466,0.957 c -0.826,3.024 -0.535,5.591 0.246,8.984 0.094,0.407 0.192,0.809 0.288,1.207 0.528,2.171 1.073,4.413 0.788,6.824 0.309,3.112 -1.31,6.426 -4.074,8.302 -2.444,1.657 -5.254,1.831 -7.708,0.479 -0.797,-0.439 -1.512,-1.042 -2.127,-1.795 -0.871,-0.722 -1.383,-1.665 -1.493,-2.75 -0.499,-1.544 -0.543,-3.18 -0.122,-4.627 0.815,-2.806 3.127,-4.813 6.398,-5.591 l -1.511,-10.356 c -8.291,-0.743 -16.339,-0.671 -24.61,0.218 -0.021,0.003 -0.039,0.005 -0.052,0.008 -1.39,4.547 -0.636,7.853 0.972,11.341 2.903,2.216 5.057,5.714 5.286,8.636 0.261,3.347 -1.483,6.094 -4.567,7.23 -0.95,0.675 -2.188,1.139 -3.687,1.38 l -2.956,0.377 c -3.324,0.01 -5.842,-1.017 -7.332,-2.995 -1.603,-2.129 -1.859,-5.106 -0.76,-8.848 0.334,-1.137 0.983,-2.118 1.612,-3.069 0.375,-0.566 0.728,-1.102 0.965,-1.602 1.425,-3.003 1.669,-5.359 0.723,-7.003 -2.082,-3.618 -9.883,-4.268 -15.579,-4.744 -1.428,-0.119 -2.778,-0.232 -3.979,-0.379 l -0.408,0.094 -0.336,-0.131 c -0.122,-0.041 -0.25,-0.015 -0.293,0.013 0.002,0.005 -0.003,0.034 -0.003,0.085 1.15,68.206 -0.491,137.029 -4.877,204.554 -1.228,18.914 -2.72,38.366 -4.432,57.816 0.002,-0.002 0.005,-0.003 0.009,-0.003 z M 681.402,76.215 c 0,0 10e-4,0.004 0.002,0.005 z M 516.38,75.542 Z"
   id="path8" />

					</g>

				</g>

			</g>

			<g
   id="g15">
				<g
   style="opacity:0.8"
   id="g13">
					<path
   style="fill:#de98a9"
   d="m 439.508,103.61 c 0.213,-0.213 9.013,-4.08 19.993,-8.785 10.98,-4.705 38.901,-17.184 38.901,-17.184 0,0 35.297,-16.259 36.495,-16.546 1.198,-0.287 20.232,-8.938 20.232,-8.938 l 1.196,-0.526 -1.914,8.077 6.39,3.422 -2.159,6.34 7.504,3.411 -2.989,4.688 c 0,0 3.387,2.565 4.375,2.969 0.989,0.404 3.737,1.113 3.737,1.113 0,0 -11.476,7.08 -20.358,11.462 -8.882,4.382 -37.45,18.493 -40.309,20.109 -2.859,1.616 -25.712,12.017 -27.89,13.094 -2.178,1.077 -12.867,4.576 -15.344,5.665 -2.478,1.089 -12.819,5.154 -14.105,5.24 -1.285,0.085 -2.699,0.108 -2.699,0.108 l 3.47,-5.889 -5.107,-0.939 -2.316,-0.18 4.623,-6.464 c 0,0 -4.076,-0.485 -4.55,-0.876 -0.474,-0.391 -0.812,-1.639 -0.812,-1.639 0,0 1.412,-4.016 1.32,-4.933 -0.093,-0.918 -0.149,-2.69 -1.521,-2.806 -1.372,-0.116 -3.521,-0.849 -3.521,-0.849 l 3.223,-4.531 1.145,-1.581 z"
   id="path11" />

				</g>

				<g
   id="g14">
					<path
   style="fill:#4c4c4d"
   d="m 571.829,80.834 c -2.486,-0.531 -4.802,-1.532 -6.958,-2.988 0.823,-1.469 1.647,-2.938 2.47,-4.407 0.247,-0.44 0.128,-1.062 -0.383,-1.279 l -7.317,-3.112 c 0.714,-1.847 1.429,-3.695 2.143,-5.542 0.15,-0.388 -0.074,-0.955 -0.475,-1.097 -2.076,-0.732 -4.153,-1.464 -6.229,-2.196 0.72,-2.846 1.44,-5.691 2.16,-8.537 0.167,-0.661 -0.423,-1.4 -1.081,-1.104 -31.789,14.308 -63.565,28.646 -95.281,43.117 -3.828,1.747 -7.651,3.504 -11.472,5.266 -0.053,-0.004 -0.111,0.002 -0.171,0.022 -3.386,1.108 -6.687,2.473 -10.056,3.634 -0.56,0.193 -0.514,1.178 0.062,1.385 2.093,0.75 4.121,1.643 6.102,2.694 -1.384,1.827 -2.712,3.699 -3.973,5.628 -0.252,0.386 -0.105,1.02 0.358,1.197 0.88,0.336 1.759,0.672 2.639,1.008 1.079,0.412 2.158,0.612 1.97,2.191 -0.21,1.773 -1.191,3.369 -1.43,5.135 -0.123,0.906 0.262,1.565 1.09,1.91 1.073,0.448 2.4,0.547 3.64,0.656 -1.19,1.774 -2.381,3.548 -3.571,5.322 -0.327,0.488 -0.015,1.254 0.578,1.333 1.839,0.244 3.678,0.486 5.517,0.729 -0.746,1.909 -1.625,3.735 -2.666,5.48 -0.372,0.624 0.106,1.359 0.786,1.343 0.767,-0.018 1.528,-0.074 2.282,-0.16 0.83,-0.41 1.705,-0.667 2.595,-0.868 0.116,-0.085 0.241,-0.163 0.377,-0.234 0.111,-0.064 0.227,-0.121 0.351,-0.165 0.015,-0.005 0.03,-0.01 0.045,-0.016 1.891,-0.802 3.838,-1.46 5.815,-2.031 v 0 c 0.388,-0.112 0.777,-0.221 1.167,-0.327 0.005,-0.001 0.009,-0.003 0.014,-0.004 0.393,-0.106 0.786,-0.21 1.181,-0.311 0.447,-0.165 0.897,-0.322 1.348,-0.476 1.121,-0.383 2.252,-0.739 3.383,-1.094 25.893,-10.831 51.141,-23.202 76.214,-35.839 4.672,-2.354 9.339,-4.719 14.005,-7.084 4.542,-2.303 9.195,-4.482 13.216,-7.695 0.55,-0.439 0.196,-1.348 -0.445,-1.484 z m -12.635,7.229 c -4.127,2.094 -8.255,4.186 -12.386,6.273 -8.353,4.219 -16.719,8.412 -25.12,12.533 -16.289,7.991 -32.712,15.71 -49.4,22.817 -2.467,0.887 -4.914,1.845 -7.367,2.758 -0.061,0.013 -0.12,0.035 -0.178,0.066 -0.4,0.149 -0.801,0.297 -1.202,0.443 -3.19,1.156 -6.363,2.319 -9.5,3.592 -0.805,0.137 -1.614,0.248 -2.431,0.32 0.938,-1.734 1.747,-3.539 2.424,-5.426 0.174,-0.486 -0.168,-1.087 -0.672,-1.153 -1.743,-0.229 -3.487,-0.458 -5.23,-0.686 1.192,-1.783 2.384,-3.566 3.576,-5.349 0.327,-0.49 0.013,-1.236 -0.573,-1.322 -0.92,-0.136 -1.84,-0.272 -2.76,-0.407 -0.365,-0.053 -0.742,-0.083 -1.104,-0.161 -0.542,-0.116 -0.677,0.01 -0.761,-0.515 -0.103,-0.649 0.512,-1.803 0.694,-2.442 0.22,-0.775 0.493,-1.552 0.639,-2.352 0.569,-3.133 -2.315,-3.894 -4.679,-4.656 1.239,-1.874 2.533,-3.702 3.894,-5.476 0.307,-0.401 0.042,-0.949 -0.349,-1.167 -1.656,-0.924 -3.352,-1.738 -5.09,-2.432 2.144,-0.805 4.279,-1.672 6.323,-2.701 0.024,0.057 0.047,0.114 0.071,0.171 27.371,-11.935 54.565,-24.289 81.803,-36.523 8.495,-3.816 16.991,-7.631 25.483,-11.454 -0.64,2.533 -1.281,5.065 -1.921,7.598 -0.102,0.405 0.036,0.943 0.476,1.097 2.043,0.72 4.087,1.44 6.13,2.16 -0.707,1.831 -1.415,3.662 -2.122,5.492 -0.157,0.405 0.083,0.929 0.475,1.096 2.4,1.02 4.801,2.041 7.201,3.061 -0.793,1.416 -1.587,2.832 -2.38,4.249 -0.205,0.366 -0.18,0.892 0.203,1.17 2.037,1.481 4.225,2.569 6.542,3.276 -3.343,2.408 -7.052,4.195 -10.709,6.05 z"
   id="path12" />

					<path
   style="fill:#4c4c4d"
   d="m 450.259,139 c -0.452,0 -0.871,-0.24 -1.101,-0.633 -0.232,-0.399 -0.229,-0.878 0.012,-1.281 0.932,-1.561 1.739,-3.192 2.461,-4.976 l -5.038,-0.665 c -0.398,-0.054 -0.742,-0.319 -0.919,-0.712 -0.182,-0.401 -0.151,-0.863 0.077,-1.205 l 3.216,-4.793 c -1.082,-0.099 -2.174,-0.233 -3.116,-0.627 -0.996,-0.416 -1.464,-1.236 -1.318,-2.31 0.123,-0.905 0.431,-1.763 0.728,-2.593 0.309,-0.861 0.601,-1.675 0.703,-2.536 0.126,-1.069 -0.362,-1.296 -1.39,-1.668 l -2.98,-1.134 c -0.309,-0.118 -0.55,-0.38 -0.66,-0.718 -0.115,-0.357 -0.07,-0.745 0.121,-1.038 1.14,-1.743 2.391,-3.521 3.721,-5.293 -1.82,-0.943 -3.723,-1.772 -5.661,-2.467 -0.427,-0.154 -0.711,-0.598 -0.708,-1.104 0.003,-0.469 0.259,-0.858 0.65,-0.993 1.483,-0.512 2.954,-1.063 4.424,-1.614 1.838,-0.688 3.738,-1.401 5.638,-2.022 0.069,-0.022 0.139,-0.036 0.206,-0.04 3.796,-1.751 7.595,-3.497 11.398,-5.232 32.713,-14.927 65.127,-29.545 95.282,-43.118 0.393,-0.175 0.826,-0.116 1.16,0.164 0.39,0.326 0.567,0.879 0.441,1.376 l -2.075,8.203 5.904,2.082 c 0.275,0.097 0.511,0.324 0.648,0.624 0.145,0.315 0.165,0.676 0.053,0.965 l -2.011,5.201 6.98,2.969 c 0.318,0.135 0.555,0.391 0.667,0.72 0.12,0.353 0.082,0.762 -0.102,1.091 l -2.299,4.101 c 2.036,1.328 4.233,2.249 6.537,2.74 v 0 c 0.47,0.102 0.863,0.501 0.979,0.994 0.105,0.449 -0.036,0.882 -0.381,1.157 -3.581,2.861 -7.7,4.931 -11.685,6.933 l -1.596,0.804 c -4.667,2.366 -9.334,4.73 -14.006,7.085 -23.992,12.093 -49.834,24.805 -76.238,35.85 -1.16,0.366 -2.288,0.721 -3.406,1.103 -0.449,0.153 -0.895,0.309 -1.34,0.473 -0.431,0.112 -0.822,0.215 -1.213,0.321 -0.402,0.109 -0.789,0.218 -1.176,0.329 -2.145,0.619 -4.032,1.278 -5.772,2.016 -0.17,0.06 -0.264,0.107 -0.354,0.159 -0.133,0.07 -0.242,0.138 -0.343,0.212 l -0.14,0.063 c -1.038,0.234 -1.813,0.493 -2.511,0.839 l -0.124,0.037 c -0.798,0.091 -1.577,0.145 -2.316,0.162 C 450.278,139 450.268,139 450.259,139 Z m -0.887,-39.668 c -1.904,0.62 -3.798,1.33 -5.628,2.016 -1.477,0.554 -2.953,1.107 -4.442,1.621 -0.104,0.036 -0.142,0.176 -0.142,0.285 -0.001,0.15 0.064,0.336 0.208,0.389 2.111,0.756 4.181,1.67 6.151,2.716 l 0.392,0.208 -0.268,0.353 c -1.42,1.875 -2.752,3.762 -3.959,5.605 -0.065,0.101 -0.079,0.255 -0.034,0.393 0.022,0.07 0.081,0.196 0.212,0.246 l 2.968,1.13 c 0.977,0.354 2.084,0.754 1.882,2.466 -0.113,0.946 -0.433,1.839 -0.742,2.701 -0.297,0.83 -0.578,1.613 -0.69,2.44 -0.1,0.733 0.182,1.229 0.861,1.513 0.973,0.405 2.19,0.511 3.369,0.613 l 0.794,0.069 -3.927,5.852 c -0.085,0.127 -0.092,0.309 -0.017,0.475 0.069,0.153 0.192,0.256 0.331,0.274 l 5.994,0.791 -0.175,0.449 c -0.782,1.998 -1.663,3.809 -2.693,5.535 -0.1,0.166 -0.103,0.354 -0.008,0.515 0.095,0.163 0.27,0.244 0.46,0.259 0.707,-0.017 1.422,-0.065 2.184,-0.15 0.721,-0.351 1.511,-0.615 2.545,-0.853 0.112,-0.078 0.232,-0.151 0.36,-0.218 0.117,-0.067 0.254,-0.136 0.401,-0.187 1.788,-0.756 3.704,-1.425 5.878,-2.052 0.391,-0.113 0.781,-0.222 1.173,-0.329 0.409,-0.11 0.805,-0.215 1.201,-0.315 0.412,-0.154 0.866,-0.313 1.32,-0.468 1.123,-0.383 2.257,-0.741 3.391,-1.096 26.351,-11.024 52.178,-23.73 76.157,-35.816 4.672,-2.354 9.339,-4.719 14.004,-7.083 l 1.599,-0.806 c 3.949,-1.984 8.033,-4.036 11.553,-6.849 0.146,-0.117 0.144,-0.279 0.117,-0.395 -0.05,-0.212 -0.216,-0.389 -0.403,-0.429 -2.508,-0.535 -4.893,-1.56 -7.09,-3.045 l -0.288,-0.194 2.64,-4.709 c 0.081,-0.144 0.099,-0.326 0.047,-0.479 -0.03,-0.087 -0.097,-0.205 -0.248,-0.27 l -7.652,-3.254 2.274,-5.882 c 0.038,-0.1 0.024,-0.248 -0.035,-0.378 -0.053,-0.113 -0.132,-0.198 -0.214,-0.228 l -6.554,-2.31 2.245,-8.871 c 0.062,-0.243 -0.052,-0.492 -0.195,-0.613 -0.114,-0.095 -0.239,-0.112 -0.365,-0.054 -30.155,13.573 -62.568,28.19 -95.28,43.116 -3.827,1.747 -7.65,3.504 -11.47,5.267 l -0.092,0.042 z m 1.573,37.971 0.333,-0.617 c 0.934,-1.725 1.741,-3.534 2.401,-5.373 0.046,-0.131 0.023,-0.292 -0.062,-0.431 -0.076,-0.125 -0.188,-0.206 -0.305,-0.222 l -5.833,-0.765 3.914,-5.853 c 0.1,-0.148 0.075,-0.336 0.02,-0.461 -0.068,-0.153 -0.193,-0.258 -0.334,-0.278 l -3.125,-0.454 c -0.256,-0.031 -0.514,-0.063 -0.764,-0.117 -0.108,-0.023 -0.199,-0.036 -0.275,-0.047 -0.454,-0.063 -0.686,-0.195 -0.778,-0.778 -0.088,-0.551 0.203,-1.285 0.459,-1.934 0.099,-0.251 0.191,-0.483 0.245,-0.67 0.063,-0.221 0.13,-0.442 0.196,-0.665 0.164,-0.54 0.333,-1.099 0.434,-1.651 0.483,-2.662 -1.844,-3.405 -4.094,-4.124 l -0.804,-0.259 0.274,-0.414 c 1.278,-1.933 2.594,-3.782 3.91,-5.497 0.051,-0.067 0.066,-0.144 0.048,-0.234 -0.03,-0.146 -0.143,-0.296 -0.282,-0.374 -1.66,-0.926 -3.358,-1.737 -5.046,-2.411 l -0.904,-0.361 0.911,-0.343 c 2.597,-0.974 4.535,-1.802 6.286,-2.685 l 0.36,-0.182 0.081,0.191 c 21.213,-9.253 42.666,-18.913 63.416,-28.256 6.011,-2.706 12.02,-5.412 18.032,-8.112 8.496,-3.815 16.991,-7.631 25.482,-11.454 l 0.712,-0.32 -2.112,8.354 c -0.055,0.218 -0.004,0.564 0.236,0.649 l 6.496,2.289 -2.263,5.854 c -0.08,0.208 0.059,0.522 0.27,0.613 l 7.588,3.225 -2.585,4.616 c -0.119,0.213 -0.116,0.526 0.096,0.681 1.982,1.44 4.146,2.524 6.432,3.221 l 0.729,0.222 -0.618,0.444 c -3.018,2.172 -6.368,3.862 -9.609,5.498 l -1.149,0.581 c -4.128,2.094 -8.256,4.187 -12.387,6.273 -10.042,5.071 -17.79,8.938 -25.124,12.535 -18.771,9.209 -34.475,16.462 -49.419,22.825 -1.56,0.561 -3.094,1.144 -4.625,1.725 -0.919,0.349 -1.838,0.697 -2.758,1.04 l -0.179,0.065 c -0.401,0.149 -0.803,0.299 -1.204,0.444 -3.054,1.105 -6.301,2.293 -9.487,3.587 -0.958,0.172 -1.763,0.277 -2.539,0.347 z m -2.163,-7.997 4.629,0.606 c 0.345,0.046 0.655,0.256 0.852,0.576 0.202,0.332 0.249,0.734 0.127,1.078 -0.594,1.654 -1.305,3.283 -2.116,4.852 0.542,-0.063 1.106,-0.143 1.704,-0.246 3.12,-1.276 6.375,-2.467 9.436,-3.574 0.398,-0.146 0.798,-0.293 1.197,-0.442 0.058,-0.031 0.146,-0.063 0.233,-0.081 0.864,-0.326 1.781,-0.674 2.699,-1.022 1.536,-0.583 3.073,-1.166 4.617,-1.721 14.911,-6.351 30.603,-13.599 49.362,-22.802 7.331,-3.596 15.077,-7.461 25.116,-12.531 4.131,-2.087 8.259,-4.18 12.385,-6.271 l 1.151,-0.583 c 2.995,-1.511 6.085,-3.07 8.893,-5.004 -2.1,-0.72 -4.091,-1.76 -5.93,-3.098 -0.572,-0.416 -0.587,-1.165 -0.31,-1.659 l 2.175,-3.882 -6.814,-2.896 c -0.591,-0.251 -0.907,-0.989 -0.679,-1.579 l 1.982,-5.129 -5.763,-2.031 c -0.637,-0.225 -0.864,-0.962 -0.716,-1.546 l 1.73,-6.841 c -8.255,3.716 -16.514,7.425 -24.773,11.134 -6.012,2.7 -12.021,5.406 -18.03,8.112 -20.867,9.396 -42.444,19.111 -63.776,28.413 l -0.354,0.154 -0.063,-0.153 c -1.471,0.725 -3.086,1.42 -5.104,2.197 1.425,0.607 2.851,1.309 4.25,2.089 0.329,0.184 0.58,0.521 0.654,0.88 0.063,0.305 -0.005,0.605 -0.19,0.846 -1.21,1.578 -2.421,3.271 -3.602,5.039 2.293,0.733 5.049,1.686 4.46,4.931 -0.108,0.596 -0.284,1.175 -0.453,1.735 -0.066,0.218 -0.132,0.436 -0.193,0.652 -0.06,0.207 -0.16,0.464 -0.27,0.741 -0.198,0.503 -0.471,1.19 -0.416,1.539 0.014,0.082 0.025,0.127 0.033,0.15 0.007,-0.017 0.061,-0.007 0.105,-0.002 0.092,0.013 0.2,0.028 0.33,0.056 0.23,0.05 0.464,0.078 0.698,0.107 l 3.142,0.456 c 0.398,0.059 0.74,0.327 0.914,0.718 0.178,0.4 0.147,0.844 -0.082,1.187 z"
   id="path13" />

				</g>

			</g>

		</g>
  </g>
</svg>
