<?xml version="1.0" encoding="UTF-8" standalone="no"?>
<!-- Created with Inkscape (http://www.inkscape.org/) -->

<svg
   width="77mm"
   height="99mm"
   viewBox="0 0 77 99"
   version="1.1"
   id="svg1"
   inkscape:version="1.3.2 (091e20e, 2023-11-25, custom)"
   sodipodi:docname="wow#2.svg"
   xmlns:inkscape="http://www.inkscape.org/namespaces/inkscape"
   xmlns:sodipodi="http://sodipodi.sourceforge.net/DTD/sodipodi-0.dtd"
   xmlns="http://www.w3.org/2000/svg"
   xmlns:svg="http://www.w3.org/2000/svg">
  <sodipodi:namedview
     id="namedview1"
     pagecolor="#ffffff"
     bordercolor="#000000"
     borderopacity="0.25"
     inkscape:showpageshadow="2"
     inkscape:pageopacity="0.0"
     inkscape:pagecheckerboard="0"
     inkscape:deskcolor="#d1d1d1"
     inkscape:document-units="mm"
     inkscape:zoom="0.76702441"
     inkscape:cx="128.41834"
     inkscape:cy="267.91846"
     inkscape:window-width="3840"
     inkscape:window-height="1057"
     inkscape:window-x="-8"
     inkscape:window-y="-8"
     inkscape:window-maximized="1"
     inkscape:current-layer="layer1" />
  <defs
     id="defs1" />
  <g
     inkscape:label="Layer 1"
     inkscape:groupmode="layer"
     id="layer1">
    <g
       id="g239"
       transform="matrix(0.26458333,0,0,0.26458333,-20.511028,-12.498313)">
			<g
   id="g234">
				<g
   id="g232">
					<g
   id="g229">
						<path
   style="fill:#ffffff"
   d="m 91.841,71.167 c 0,0 44.025,-1.324 51.236,-0.817 7.212,0.507 67.624,-0.297 84.006,-1.961 16.382,-1.664 83.307,-6.224 83.307,-6.224 0,0 20.026,5.129 28.462,17.792 8.436,12.663 14.973,20.639 18.072,34.765 3.098,14.126 10.066,83.66 9.088,98.146 -0.978,14.486 -3.271,56.321 -3.363,70.438 -0.093,14.117 3.186,118.165 3.186,118.165 l 0.177,5.514 c 0,0 -133.674,9.409 -150.372,10.055 -16.698,0.646 -92.748,4.585 -102.57,2.167 -9.822,-2.418 -32.786,-3.14 -32.786,-3.14 0,0 8.375,-67.327 9.302,-76.429 0.927,-9.102 4.017,-66.855 4.635,-75.644 0.618,-8.788 3.399,-79.096 4.326,-84.432 0.927,-5.336 -1.545,-54.614 -1.545,-58.694 0,-4.08 -5.161,-49.701 -5.161,-49.701 z"
   id="path228" />

					</g>

					<g
   id="g230">
						<path
   style="fill:#e9e9e9"
   d="m 357.551,100.094 c -2.676,-4.43 -6.857,-6.874 -10.739,-10.071 -0.53,-0.436 -1.05,-0.883 -1.564,-1.336 -0.1,-0.515 -0.311,-1.03 -0.693,-1.514 -1.901,-2.405 -3.802,-4.81 -5.703,-7.215 -0.31,-2.505 -2.592,-3.963 -4.964,-4.3 -0.594,-0.557 -1.187,-1.113 -1.781,-1.67 -0.719,-0.689 -1.449,-1.371 -2.183,-2.049 -0.747,-0.81 -1.464,-1.648 -2.158,-2.509 -0.87,-1.651 -1.998,-3.221 -3.438,-4.683 -2.542,-2.582 -7.179,0.802 -5.096,3.994 0.73,1.119 1.495,2.201 2.285,3.257 -0.423,0.856 -0.524,1.904 -0.039,2.996 0.756,1.701 1.552,3.378 2.367,5.044 0.059,3.976 -0.929,8.131 -1.971,11.931 -0.793,2.894 2.1,4.603 4.262,3.917 0.359,0.114 0.766,0.167 1.23,0.131 8.707,-0.665 19.105,0.898 25.088,8.071 2.398,2.874 7.002,-0.84 5.097,-3.994 z"
   id="path229" />

					</g>

					<g
   id="g231">
						<path
   style="fill:#4c4c4d"
   d="m 364.346,270.039 c 0.543,-17.863 1.813,-35.695 2.63,-53.546 1.002,-21.912 -0.871,-43.493 -3.18,-65.268 -1.444,-13.617 -2.907,-27.233 -4.332,-40.853 -0.015,-0.137 -0.049,-0.259 -0.092,-0.376 -0.802,-5.087 -1.422,-9.702 -4.594,-14.013 -5.754,-7.822 -13.023,-14.812 -19.492,-22.048 -5.184,-5.801 -10.301,-11.92 -18.389,-13.064 -0.3,-0.196 -0.627,-0.217 -0.928,-0.115 -9.284,-0.965 -19.542,1.459 -28.791,2.264 -20.58,1.791 -41.201,3.096 -61.764,5.082 -10.092,0.975 -20.071,2.002 -30.226,1.961 -10.343,-0.042 -20.671,-0.454 -31.017,-0.406 -11.692,0.054 -23.223,-1.193 -34.888,-1.608 -12.065,-0.429 -24.124,0.151 -36.108,1.564 -0.631,-0.333 -1.471,-0.23 -1.845,0.312 -1.086,0.559 -1.098,2.319 -0.005,2.609 9.424,89.96 2.353,180.394 -3.709,270.328 -1.648,24.44 -3.746,48.802 -8.683,72.833 -0.179,0.871 0.391,1.788 1.351,1.774 19.475,-0.276 38.784,2.509 58.227,3.051 19.232,0.536 38.607,-0.553 57.823,-1.328 36.244,-1.46 72.51,-2.549 108.706,-4.989 20.374,-1.373 40.72,-3.182 60.972,-5.816 0.733,-0.095 1.427,-0.565 1.401,-1.401 -1.42,-45.65 -4.455,-91.255 -3.067,-136.947 z M 348.17,92.55 c 3.147,3.526 6.318,6.911 7.394,11.64 0.07,0.309 0.126,0.619 0.188,0.929 -8.303,-9.076 -20.948,-13.142 -32.991,-10.144 1.742,-10.402 2.11,-21.255 -3.239,-30.411 2.278,0.719 4.449,1.865 6.458,3.622 8.154,7.132 14.986,16.293 22.19,24.364 z m -90.274,321.404 c -37.144,1.636 -74.374,3.539 -111.556,3.844 -21.508,0.176 -42.853,-3.251 -64.359,-3.138 8.442,-42.148 9.511,-85.754 12.249,-128.541 2.928,-45.765 5.163,-91.625 4.383,-137.497 -0.433,-25.491 -1.843,-50.958 -4.509,-76.315 9.715,-1.111 19.475,-1.678 29.258,-1.588 9.925,0.092 19.756,1.334 29.663,1.644 9.371,0.293 18.748,-0.059 28.121,0.207 9.606,0.273 19.225,0.545 28.821,-0.149 19.283,-1.393 38.54,-3.515 57.823,-5.018 9.788,-0.763 19.576,-1.548 29.348,-2.492 6.075,-0.587 12.545,-1.928 18.531,-1.174 7.048,9.457 6.026,21.797 3.978,32.807 -0.184,0.987 0.629,2.076 1.724,1.724 12.584,-4.045 26.514,0.454 34.341,11.132 0.231,0.315 0.529,0.488 0.84,0.561 0.069,0.466 0.139,0.933 0.214,1.398 3.49,32.985 8.896,66.391 7.64,99.599 -0.655,17.336 -1.909,34.644 -2.615,51.978 -0.919,22.538 -0.756,45.108 -0.086,67.65 0.745,25.068 2.063,50.114 2.86,75.18 -35.387,4.535 -71.043,6.619 -106.669,8.188 z"
   id="path230" />

					</g>

				</g>

				<g
   style="opacity:0.15"
   id="g233">
					<path
   style="fill:#6e6a5f"
   d="m 224.803,100.809 c -1.528,1.542 -3.296,2.961 -5.502,3.32 -2.193,0.357 -3.918,-0.671 -5.682,-1.835 -2.155,-1.422 -4.16,2.04 -2.019,3.454 5.688,3.754 11.307,2.658 16.031,-2.11 1.814,-1.832 -1.013,-4.661 -2.828,-2.829 z"
   id="path232" />

				</g>

			</g>

			<g
   id="g238">
				<g
   id="g235">
					<path
   style="fill:#de98a9"
   d="m 250.885,82.867 c -1.266,-0.94 -2.345,-1.498 -3.891,-1.845 -0.023,-0.005 -0.044,0 -0.067,-0.005 -1.875,-1.087 -3.798,-1.866 -6.063,-2.407 -0.704,-0.168 -1.344,0.095 -1.775,0.545 -0.608,-0.137 -1.228,-0.257 -1.875,-0.349 -0.026,-0.003 -0.05,-0.002 -0.076,-0.005 0.119,-0.586 0.232,-1.172 0.326,-1.779 0.009,-0.061 0.008,-0.123 0.011,-0.184 0.175,-0.143 0.328,-0.326 0.443,-0.561 1.149,-2.352 1.621,-4.684 1.426,-7.078 3.119,0.162 6.189,-0.104 9.195,-1.596 1.88,-0.933 1.353,-3.335 -0.043,-4.314 1.058,-0.836 1.565,-2.12 1.066,-4.011 -0.021,-0.078 -0.06,-0.15 -0.086,-0.227 0.09,-0.867 -0.169,-1.688 -0.667,-2.403 -0.232,-1.711 -1.277,-3.385 -3.197,-4.298 -0.624,-0.297 -1.375,-0.472 -2.178,-0.539 -2.671,-2.899 -6.926,-5.212 -9.951,-3.697 -0.6,-0.194 -1.214,-0.362 -1.855,-0.468 -2.077,-0.343 -4.73,-0.129 -5.889,1.518 -0.59,0.174 -1.149,0.411 -1.649,0.733 -0.349,0.224 -0.635,0.476 -0.894,0.74 -2.412,1.324 -3.694,4.093 -1.611,7.031 0.233,0.329 0.52,0.646 0.83,0.958 -0.563,0.55 -0.847,1.397 -0.495,2.456 0.868,2.608 2.327,4.375 4.182,5.532 -1.168,1.683 -2.134,3.583 -2.651,5.403 -0.287,-0.141 -0.578,-0.26 -0.871,-0.349 -1.138,-1.005 -2.741,-1.686 -4.354,-1.914 -2.255,-1.01 -4.703,-1.379 -6.817,-0.376 -0.492,0.16 -0.957,0.393 -1.382,0.689 -1.175,-0.048 -2.298,0.521 -3.05,2.025 -0.99,1.979 -0.375,3.878 0.994,5.323 0.713,1.195 2.355,2.61 4.115,3.42 1.492,3.549 7.995,5.108 12.854,5.763 1.349,0.808 2.813,1.428 4.441,1.901 0.426,0.124 0.814,0.08 1.148,-0.067 0.861,0.168 1.725,0.32 2.596,0.445 2.146,0.626 4.262,0.885 6.675,0.777 0.314,-0.014 0.594,-0.107 0.837,-0.249 1.628,0.171 3.299,0.133 4.48,-0.483 1.022,0.099 2.023,-0.137 2.908,-0.728 1.586,-0.435 2.853,-1.676 3.423,-3.558 0.171,-0.56 -0.067,-1.4 -0.563,-1.769 z m -21.05,-20.235 c -0.071,0.05 -0.142,0.113 -0.213,0.167 -0.556,-0.185 -1.079,-0.428 -1.541,-0.766 0.574,0.218 1.157,0.423 1.754,0.599 z"
   id="path234" />

				</g>

				<g
   id="g236">
					<path
   style="fill:#4c4c4d"
   d="m 252.396,61.761 c 0.074,-0.389 -0.014,-0.721 -0.184,-0.985 1.186,-3.655 -3.189,-8.107 -8.493,-10.86 -0.363,-0.188 -0.699,-0.243 -0.988,-0.215 -7.478,-2.939 -16.667,-4.441 -21.854,-0.192 -1.234,1.011 -1.891,2.171 -2.078,3.392 -0.041,0.088 -0.095,0.158 -0.119,0.265 -1.701,7.391 1.409,11.878 6.656,14.462 -0.654,1.217 -1.3,2.438 -1.923,3.668 -5.456,-2.014 -17.564,-5.597 -18.212,1.617 -0.661,7.36 10.672,12.257 17.139,14.319 0.333,0.106 0.669,0.206 1.004,0.308 -0.035,0.059 -0.08,0.107 -0.105,0.179 l -0.032,0.093 c 0.245,0.009 0.499,0.038 0.768,0.104 0.332,0.081 0.656,0.182 0.983,0.277 0.04,-0.004 0.086,0.005 0.128,0.003 l 0.012,-0.035 c 0.012,-0.036 0.004,-0.065 0.012,-0.101 0.72,0.203 1.443,0.396 2.17,0.578 -0.012,0.033 -0.026,0.064 -0.037,0.096 0.59,0.231 1.189,0.435 1.799,0.602 0.031,-0.087 0.066,-0.173 0.097,-0.26 2.771,0.613 5.576,1.052 8.382,1.229 4.083,0.257 10.072,0.391 13.184,-2.085 6.124,-4.872 -7.416,-9.394 -12.024,-10.742 0.722,-2.029 1.055,-4.388 1.207,-6.649 6.006,0.264 11.044,-1.374 12.508,-9.068 z m -27.63,-11.759 c 5.378,-2.521 12.614,-0.58 18.603,2.049 0.137,0.06 0.268,0.099 0.397,0.129 2.536,1.449 4.681,3.172 5.508,5.34 1.237,3.241 -1.734,5.266 -5.535,6.058 -4.731,0.986 -10.925,0.147 -15.633,-2.135 -6.124,-2.969 -9.161,-8.713 -3.34,-11.441 z m -0.118,22.96 c 0.182,-0.147 0.292,-0.35 0.31,-0.557 0.1,-0.18 0.199,-0.36 0.291,-0.54 0.598,-1.165 1.213,-2.322 1.834,-3.476 1.774,0.684 3.72,1.202 5.778,1.564 1.678,0.294 3.355,0.562 4.985,0.73 -0.133,1.23 -0.316,2.453 -0.583,3.665 -0.267,1.211 -0.444,2.772 -1.079,3.879 -2.286,3.985 -5.032,3.573 -8.82,1.868 -1.877,-0.846 -3.182,-1.446 -3.652,-3.3 -0.355,-1.402 0.266,-2.634 0.936,-3.833 z m 21.773,9.197 0.094,0.022 c 0.693,0.164 1.169,0.504 1.474,0.915 l 0.191,0.107 0.289,0.069 c 2.321,0.55 2.355,2.911 0.919,3.789 -0.245,0.181 -0.539,0.313 -0.852,0.396 -0.262,0.137 -0.562,0.252 -0.941,0.321 -1.501,0.682 -3.866,0.828 -5.469,0.916 -5.478,0.299 -11.053,-0.679 -16.398,-2.154 -5.177,-1.428 -10.741,-3.31 -14.745,-6.778 -1.173,-1.015 -2.669,-2.408 -3.105,-3.81 -0.45,-0.563 -0.604,-1.085 -0.496,-1.569 -0.043,-0.196 -0.082,-0.393 -0.083,-0.59 -0.001,-0.981 0.467,-1.818 1.208,-2.363 0.262,-0.366 0.597,-0.689 1.022,-0.945 0.827,-0.497 1.85,-0.545 2.827,-0.312 0.399,0.005 0.801,0.054 1.196,0.151 0.026,0.002 0.052,0.009 0.078,0.011 2.827,0.091 6.415,1.391 9.029,2.4 -0.619,1.177 -1.225,2.439 -1.143,3.742 0.203,3.207 3.956,4.799 7.024,5.788 5.064,1.633 7.908,-0.178 9.498,-3.285 2.58,0.724 6.116,1.664 8.383,3.179 z m -7.763,-13.091 c -4.004,-0.337 -9.084,-1.149 -12.191,-3.999 -2.363,-1.53 -4.21,-3.529 -5.076,-5.92 1.429,1.502 3.347,2.865 5.564,3.904 0.236,0.111 0.482,0.211 0.724,0.316 -0.008,0.014 -0.015,0.028 -0.023,0.042 0.258,0.097 0.509,0.209 0.761,0.32 1.316,0.421 2.682,0.823 4.069,1.174 0.146,0.035 0.291,0.072 0.436,0.108 0.866,0.212 1.738,0.4 2.608,0.562 0.067,-0.023 0.139,-0.037 0.221,-0.032 1.428,0.094 2.839,0.235 4.25,0.43 0,-0.008 0,-0.018 0,-0.026 3.206,0.012 6.229,-0.527 8.641,-1.698 -0.566,0.801 -1.292,1.464 -2.11,2.028 -0.115,0.249 -0.346,0.473 -0.618,0.672 -1.228,1.697 -5.983,2.226 -7.256,2.119 z"
   id="path235" />

				</g>

				<g
   id="g237">
					<path
   style="fill:#4c4c4d"
   d="m 227.937,88.106 c -0.219,0.263 -0.437,0.526 -0.655,0.789 -0.012,-0.367 -0.307,-0.62 -0.633,-0.613 -0.046,-0.125 -0.128,-0.235 -0.261,-0.323 -0.069,-0.046 -0.138,-0.092 -0.207,-0.139 -0.125,-0.084 -0.277,-0.088 -0.425,-0.061 -0.28,-0.21 -0.746,-0.205 -0.979,0.149 -0.07,0.107 -0.123,0.218 -0.192,0.326 -0.09,-0.279 -0.363,-0.469 -0.639,-0.473 0.053,-0.176 0.106,-0.353 0.16,-0.529 0.242,-0.801 -0.993,-1.144 -1.234,-0.346 l -5.551,18.398 c -0.23,0.762 0.759,1.043 1.169,0.501 4.01,-5.296 7.493,-10.925 10.452,-16.892 0.307,-0.619 -0.509,-1.383 -1.005,-0.787 z"
   id="path236" />

				</g>

			</g>

		</g>
  </g>
</svg>
