<?xml version="1.0" encoding="UTF-8" standalone="no"?>
<!-- Created with Inkscape (http://www.inkscape.org/) -->

<svg
   width="69.666mm"
   height="84.433426mm"
   viewBox="0 0 69.666 84.433426"
   version="1.1"
   id="svg1"
   inkscape:version="1.3.2 (091e20e, 2023-11-25, custom)"
   sodipodi:docname="wow#3.svg"
   xmlns:inkscape="http://www.inkscape.org/namespaces/inkscape"
   xmlns:sodipodi="http://sodipodi.sourceforge.net/DTD/sodipodi-0.dtd"
   xmlns="http://www.w3.org/2000/svg"
   xmlns:svg="http://www.w3.org/2000/svg">
  <sodipodi:namedview
     id="namedview1"
     pagecolor="#ffffff"
     bordercolor="#000000"
     borderopacity="0.25"
     inkscape:showpageshadow="2"
     inkscape:pageopacity="0.0"
     inkscape:pagecheckerboard="0"
     inkscape:deskcolor="#d1d1d1"
     inkscape:document-units="mm"
     inkscape:zoom="1.5340488"
     inkscape:cx="246.7327"
     inkscape:cy="178.28637"
     inkscape:window-width="3840"
     inkscape:window-height="1057"
     inkscape:window-x="-8"
     inkscape:window-y="-8"
     inkscape:window-maximized="1"
     inkscape:current-layer="layer1" />
  <defs
     id="defs1" />
  <g
     inkscape:label="Layer 1"
     inkscape:groupmode="layer"
     id="layer1"
     transform="translate(-0.22873933,-0.41656394)">
    <g
       id="g51"
       transform="matrix(0.26458333,0,0,0.26458333,-226.78525,-17.494786)">
			<g
   id="g16">
				<path
   style="fill:#fbf7e6"
   d="m 876.954,111.172 c 10.073,-5.47 80.608,0 80.608,0 0,0 114.504,0.214 119.194,0 4.69,-0.214 28.651,-0.719 27.409,0.095 -1.242,0.814 2.31,46.947 1.784,56.002 -0.526,9.054 -1.418,95.285 -0.972,103.477 0.446,8.192 2.681,39.767 3.481,47.927 0.8,8.16 6.487,31.682 7.325,39.147 0.45,4.012 8.375,17.687 3.846,18.305 -4.528,0.618 -9.415,5.267 -20.028,5.86 -10.613,0.593 -147.695,3.089 -165.391,2.902 -17.696,-0.187 -68.556,2.515 -67.565,-0.811 0.991,-3.326 0.892,-6.838 -2.745,-8.346 -3.637,-1.507 -2.47,-47.245 -2.039,-59.285 0.431,-12.039 8.033,-201.439 15.093,-205.273 z"
   id="path15" />

			</g>

			<g
   id="g17">
				<path
   style="fill:#9d90bf"
   d="m 877.625,71.096 c 4.324,-2.545 147.486,-1.579 147.486,-1.579 l 78.167,0.305 c 0,0 3.073,23.614 2.521,25.675 -0.553,2.061 -2.611,17.042 -2.611,17.042 0,0 -90.82,5.093 -132.518,4.316 -41.698,-0.777 -97.107,-4.227 -97.107,-4.227 z"
   id="path16" />

			</g>

			<g
   id="g49">
				<g
   id="g18">
					<path
   style="fill:none"
   d="m 895.14,71.035 c 0.026,0.274 -0.042,0.564 -0.247,0.821 -7.223,9.078 -14.446,18.157 -21.669,27.235 l 0.338,13.537 c 0,0 0.353,0.022 1.018,0.062 10.31,-14.451 21.174,-28.441 32.558,-41.963 -4.282,0.095 -8.307,0.197 -11.998,0.308 z"
   id="path17" />

				</g>

				<g
   id="g19">
					<path
   style="fill:none"
   d="m 995.681,69.66 -32.593,47.028 c 2.565,0.064 5.097,0.12 7.58,0.166 1.795,0.034 3.686,0.055 5.652,0.068 l 34.896,-47.348 c -4.398,0.021 -9.666,0.049 -15.535,0.086 z"
   id="path18" />

				</g>

				<g
   id="g20">
					<path
   style="fill:none"
   d="m 978.507,69.781 c -12.535,15.986 -25.721,31.374 -39.532,46.127 7.254,0.28 14.588,0.529 21.7,0.719 l 32.539,-46.951 c -4.61,0.029 -9.551,0.064 -14.707,0.105 z"
   id="path19" />

				</g>

				<g
   id="g21">
					<path
   style="fill:none"
   d="m 1013.731,69.562 -34.913,47.371 c 3.573,0.008 7.38,-0.015 11.357,-0.062 12.031,-15.279 23.464,-31.073 34.278,-47.352 -1.432,0.005 -5.217,0.018 -10.722,0.043 z"
   id="path20" />

				</g>

				<g
   id="g22">
					<path
   style="fill:none"
   d="m 1026.878,69.524 c -10.76,16.261 -22.139,32.04 -34.106,47.313 4.718,-0.067 9.65,-0.167 14.703,-0.293 12.145,-15.127 23.67,-30.789 34.55,-46.962 z"
   id="path21" />

				</g>

				<g
   id="g23">
					<path
   style="fill:none"
   d="m 961.688,69.928 c -12.387,15.423 -25.105,30.541 -38.157,45.333 4.161,0.186 8.428,0.368 12.738,0.54 13.855,-14.71 27.101,-30.045 39.672,-46 -4.628,0.038 -9.403,0.08 -14.253,0.127 z"
   id="path22" />

				</g>

				<g
   id="g24">
					<path
   style="fill:none"
   d="m 943.915,70.123 c -11.374,14.954 -22.899,29.777 -34.574,44.469 3.707,0.183 7.585,0.369 11.578,0.551 13.051,-14.746 25.772,-29.813 38.16,-45.189 -5.024,0.051 -10.107,0.107 -15.164,0.169 z"
   id="path23" />

				</g>

				<g
   id="g25">
					<path
   style="fill:none"
   d="m 925.928,70.374 c -11.135,14.448 -22.27,28.896 -33.405,43.343 4.281,0.233 9.119,0.489 14.345,0.751 11.647,-14.638 23.139,-29.413 34.486,-44.314 -5.222,0.067 -10.397,0.14 -15.426,0.22 z"
   id="path24" />

				</g>

				<g
   id="g26">
					<path
   style="fill:none"
   d="m 872.56,72.483 0.586,23.465 19.768,-24.846 c -11.613,0.372 -19.411,0.826 -20.354,1.381 z"
   id="path25" />

				</g>

				<g
   id="g27">
					<path
   style="fill:none"
   d="m 1093.357,113.065 c 6.173,-0.321 9.83,-0.526 9.83,-0.526 0,0 2.058,-14.981 2.611,-17.042 0.024,-0.09 0.039,-0.233 0.05,-0.4 -4.164,5.989 -8.328,11.978 -12.491,17.968 z"
   id="path26" />

				</g>

				<g
   id="g28">
					<path
   style="fill:none"
   d="m 1103.823,74.137 c -7.962,13.626 -16.478,26.866 -25.549,39.684 4.725,-0.229 8.954,-0.441 12.532,-0.625 4.973,-7.154 9.946,-14.308 14.919,-21.462 -0.351,-4.735 -1.294,-12.683 -1.902,-17.597 z"
   id="path27" />

				</g>

				<g
   id="g29">
					<path
   style="fill:none"
   d="m 909.834,70.668 c -11.503,13.576 -22.465,27.638 -32.871,42.165 2.86,0.17 7.396,0.435 13.12,0.751 11.09,-14.389 22.179,-28.778 33.269,-43.168 -4.676,0.078 -9.212,0.161 -13.518,0.252 z"
   id="path28" />

				</g>

				<g
   id="g30">
					<path
   style="fill:none"
   d="m 1103.277,69.822 -11.769,-0.046 c -9.388,15.351 -19.329,30.303 -29.827,44.817 4.963,-0.221 9.673,-0.439 14.021,-0.648 9.887,-13.888 19.128,-28.268 27.707,-43.108 -0.084,-0.647 -0.132,-1.015 -0.132,-1.015 z"
   id="path29" />

				</g>

				<g
   id="g31">
					<path
   style="fill:none"
   d="m 1044.445,69.592 c -10.814,16.139 -22.268,31.776 -34.331,46.885 4.741,-0.124 9.569,-0.269 14.411,-0.429 11.021,-15.253 21.765,-30.726 32.236,-46.408 z"
   id="path30" />

				</g>

				<g
   id="g32">
					<path
   style="fill:none"
   d="m 1076.543,69.717 c -9.548,15.768 -19.866,30.976 -30.951,45.557 4.625,-0.186 9.149,-0.377 13.503,-0.568 10.575,-14.552 20.595,-29.543 30.051,-44.94 z"
   id="path31" />

				</g>

				<g
   id="g33">
					<path
   style="fill:none"
   d="m 1059.188,69.65 c -10.429,15.649 -21.127,31.091 -32.104,46.313 5.33,-0.181 10.655,-0.378 15.876,-0.584 11.186,-14.61 21.6,-29.855 31.229,-45.671 z"
   id="path32" />

				</g>

				<g
   id="g34">
					<path
   style="fill:#d8d2e7"
   d="m 895.14,71.035 c -0.755,0.022 -1.501,0.045 -2.227,0.068 l -19.768,24.846 0.078,3.142 c 7.223,-9.078 14.446,-18.157 21.669,-27.235 0.206,-0.258 0.274,-0.548 0.248,-0.821 z"
   id="path33" />

				</g>

				<g
   id="g35">
					<path
   style="fill:#d8d2e7"
   d="m 907.138,70.727 c -11.385,13.522 -22.248,27.511 -32.558,41.963 0.569,0.035 1.374,0.083 2.383,0.144 10.406,-14.527 21.368,-28.589 32.871,-42.165 -0.91,0.018 -1.807,0.038 -2.696,0.058 z"
   id="path34" />

				</g>

				<g
   id="g36">
					<path
   style="fill:#d8d2e7"
   d="m 923.352,70.416 c -11.09,14.389 -22.179,28.779 -33.269,43.168 0.791,0.044 1.606,0.088 2.44,0.134 11.135,-14.448 22.27,-28.896 33.405,-43.343 -0.864,0.013 -1.721,0.027 -2.576,0.041 z"
   id="path35" />

				</g>

				<g
   id="g37">
					<path
   style="fill:#d8d2e7"
   d="m 941.354,70.155 c -11.346,14.901 -22.839,29.676 -34.486,44.314 0.815,0.041 1.641,0.082 2.474,0.123 11.674,-14.692 23.2,-29.515 34.574,-44.469 -0.856,0.01 -1.709,0.021 -2.562,0.032 z"
   id="path36" />

				</g>

				<g
   id="g38">
					<path
   style="fill:#d8d2e7"
   d="m 959.08,69.954 c -12.388,15.376 -25.109,30.443 -38.16,45.189 0.866,0.039 1.735,0.079 2.611,0.118 13.053,-14.792 25.77,-29.91 38.157,-45.333 -0.867,0.009 -1.737,0.017 -2.608,0.026 z"
   id="path37" />

				</g>

				<g
   id="g39">
					<path
   style="fill:#d8d2e7"
   d="m 975.94,69.801 c -12.571,15.955 -25.817,31.289 -39.672,46 0.901,0.036 1.803,0.071 2.706,0.106 13.811,-14.753 26.997,-30.14 39.532,-46.127 -0.849,0.007 -1.706,0.014 -2.566,0.021 z"
   id="path38" />

				</g>

				<g
   id="g40">
					<path
   style="fill:#d8d2e7"
   d="m 993.214,69.675 -32.539,46.951 c 0.808,0.021 1.612,0.042 2.414,0.062 L 995.682,69.66 c -0.813,0.005 -1.633,0.01 -2.468,0.015 z"
   id="path39" />

				</g>

				<g
   id="g41">
					<path
   style="fill:#d8d2e7"
   d="m 1011.216,69.574 -34.896,47.348 c 0.82,0.005 1.651,0.009 2.498,0.011 l 34.913,-47.371 c -0.804,0.004 -1.64,0.008 -2.515,0.012 z"
   id="path40" />

				</g>

				<g
   id="g42">
					<path
   style="fill:#d8d2e7"
   d="m 1025.111,69.517 c 0,0 -0.241,0.001 -0.657,0.002 -10.814,16.279 -22.247,32.073 -34.278,47.352 0.858,-0.01 1.724,-0.021 2.597,-0.034 11.967,-15.273 23.346,-31.052 34.106,-47.313 z"
   id="path41" />

				</g>

				<g
   id="g43">
					<path
   style="fill:#d8d2e7"
   d="m 1042.025,69.583 c -10.88,16.172 -22.406,31.835 -34.55,46.962 0.877,-0.022 1.756,-0.044 2.64,-0.067 12.063,-15.109 23.517,-30.746 34.331,-46.885 z"
   id="path42" />

				</g>

				<g
   id="g44">
					<path
   style="fill:#d8d2e7"
   d="m 1056.761,69.64 c -10.471,15.683 -21.215,31.156 -32.236,46.408 0.853,-0.028 1.706,-0.057 2.559,-0.086 10.977,-15.222 21.675,-30.664 32.104,-46.313 z"
   id="path43" />

				</g>

				<g
   id="g45">
					<path
   style="fill:#d8d2e7"
   d="m 1074.19,69.708 c -9.629,15.816 -20.043,31.061 -31.229,45.671 0.88,-0.035 1.757,-0.07 2.631,-0.105 11.085,-14.581 21.403,-29.79 30.951,-45.557 z"
   id="path44" />

				</g>

				<g
   id="g46">
					<path
   style="fill:#d8d2e7"
   d="m 1089.146,69.767 c -9.456,15.398 -19.475,30.388 -30.051,44.94 0.869,-0.038 1.731,-0.076 2.585,-0.114 10.499,-14.514 20.439,-29.466 29.827,-44.817 z"
   id="path45" />

				</g>

				<g
   id="g47">
					<path
   style="fill:#d8d2e7"
   d="m 1103.408,70.837 c -8.579,14.84 -17.82,29.221 -27.707,43.108 0.872,-0.042 1.731,-0.083 2.573,-0.124 9.07,-12.818 17.587,-26.058 25.549,-39.684 -0.172,-1.388 -0.318,-2.54 -0.415,-3.3 z"
   id="path46" />

				</g>

				<g
   id="g48">
					<path
   style="fill:#d8d2e7"
   d="m 1105.725,91.735 c -4.973,7.154 -9.946,14.308 -14.919,21.462 0.89,-0.046 1.744,-0.09 2.551,-0.132 4.164,-5.989 8.327,-11.979 12.491,-17.968 0.042,-0.645 -0.01,-1.831 -0.123,-3.362 z"
   id="path47" />

				</g>

			</g>

			<g
   id="g50">
				<path
   style="fill:#4c4c4d"
   d="m 1121.265,375.675 c -9.724,-41.617 -12.086,-83.957 -12.424,-126.443 0.348,-17.203 0.375,-34.41 0.227,-51.617 0.194,-19.248 0.361,-38.479 0.01,-57.638 -0.269,-14.522 -0.864,-29.037 -1.94,-43.517 -0.083,-3.666 -0.162,-7.332 -0.245,-10.998 0.114,-1.322 0.223,-2.645 0.345,-3.967 0.535,-5.817 -0.939,-11.548 -7.621,-12.094 -8.388,-0.685 -17.139,0 -25.558,0 -7.492,0 -14.985,0 -22.477,0 -12.586,-0.695 -25.173,-1.277 -37.748,-1.53 -32.11,-0.645 -64.373,0.68 -96.489,1.022 -13.239,0.141 -26.477,0.332 -39.716,0.508 -0.132,0 -0.256,0.016 -0.374,0.042 -0.043,0.009 -0.079,0.026 -0.12,0.038 -0.063,0.02 -0.128,0.036 -0.187,0.063 -0.293,0.129 -0.516,0.337 -0.674,0.588 -0.009,0.013 -0.019,0.025 -0.027,0.038 -0.021,0.035 -0.038,0.071 -0.056,0.107 -0.134,0.246 -0.225,0.524 -0.257,0.819 -4.884,43.837 -8.451,87.811 -10.997,131.844 -1.269,21.946 -2.292,43.905 -3.113,65.872 -0.629,16.809 -1.472,33.689 -1.758,50.536 -0.682,18.976 -1.369,37.952 -2.059,56.928 -0.03,0.828 0.44,1.34 1.038,1.539 0.332,0.148 0.711,0.204 1.108,0.096 1.262,-0.343 2.381,-0.426 3.753,-0.486 0.98,0.015 1.961,0.033 2.942,0.049 -0.611,2.05 -1.221,4.101 -1.832,6.151 -0.319,1.071 0.555,2.132 1.635,2.146 80.065,1.02 160.24,2.569 240.206,-2.54 0.916,-0.059 1.694,-0.73 1.695,-1.696 0,-0.732 -0.037,-1.462 -0.064,-2.192 3.866,-0.528 7.732,-1.055 11.598,-1.583 0.932,-0.126 1.37,-1.29 1.184,-2.085 z m -28.13,-25.941 c 0.524,4.354 1.333,8.729 1.573,13.109 0.226,4.127 -0.16,8.271 -0.299,12.402 -76.826,2.618 -153.682,-0.019 -230.509,-1.209 -0.66,0.029 -1.316,0.073 -1.968,0.138 2.565,-11.989 1.774,-25.125 1.526,-37.195 -0.173,-8.446 -0.046,-16.914 0.198,-25.384 0.369,-9.878 0.757,-19.754 1.21,-29.628 1.014,-22.129 2.089,-44.256 3.166,-66.382 0.46,-9.447 0.752,-18.932 1.258,-28.395 0.234,-3.685 0.471,-7.37 0.719,-11.055 0.076,-0.979 0.147,-1.958 0.232,-2.936 1.659,-19.126 3.539,-38.235 5.359,-57.346 38.976,0.746 77.951,1.493 116.927,2.239 19.247,0.369 38.467,0.815 57.676,-0.774 9.577,-0.792 19.119,-1.715 28.739,-1.601 7.544,0.089 15.027,0.337 22.515,-0.278 -0.775,14.189 -1.356,28.388 -1.88,42.589 -1.293,35.073 -2.298,70.158 -4.121,105.209 -1.018,19.579 -3.146,39.158 -3.897,58.736 -0.357,9.285 0.468,18.551 1.576,27.761 z M 879.138,72.792 c 55.217,0 110.434,0 165.652,0 2.22,0.131 4.438,0.258 6.655,0.37 16.799,0.848 33.598,1.697 50.397,2.546 0.513,4.664 0.968,9.331 1.362,13.999 -0.114,0.967 -0.219,1.927 -0.291,2.867 -0.33,4.317 -0.622,8.637 -0.891,12.958 -0.135,2.177 -0.249,4.356 -0.373,6.534 -8.834,0.782 -17.678,0.171 -26.557,0.242 -9.328,0.075 -18.608,1.153 -27.9,1.863 -18.868,1.441 -37.793,0.854 -56.691,0.492 -38.466,-0.736 -76.932,-1.473 -115.397,-2.209 1.234,-13.232 2.573,-26.453 4.034,-39.662 z M 868.911,382.41 c 0.484,-1.626 0.968,-3.251 1.453,-4.877 75.225,1.24 150.477,3.689 225.7,1.051 0.926,-0.033 1.682,-0.751 1.695,-1.695 0.119,-8.305 0.163,-15.996 -0.875,-24.266 -1.074,-8.562 -2.007,-17.163 -2.024,-25.803 -0.034,-18.099 2.477,-36.394 3.494,-54.474 2.048,-36.39 3.111,-72.825 4.429,-109.247 0.472,-13.042 0.976,-26.083 1.618,-39.118 0.542,23.424 1.025,46.849 1.25,70.276 -0.154,16.088 -0.34,32.177 -0.281,48.259 -0.541,24.845 -1.641,49.656 -3.068,74.527 -0.604,10.53 -0.997,21.092 -0.531,31.636 0.416,9.411 2.61,18.781 3.222,28.158 -0.378,0.527 -0.306,1.317 0.1,1.917 0.016,0.396 0.03,0.791 0.039,1.187 -78.642,4.931 -157.483,3.482 -236.221,2.469 z m 236.535,-28.809 c -0.676,-9.53 -0.569,-19.096 -0.158,-28.635 0.416,-9.642 1.015,-19.272 1.595,-28.904 0.327,5.442 0.714,10.882 1.182,16.319 1.808,20.963 4.827,41.812 9.514,62.328 -3.1,0.423 -6.201,0.846 -9.301,1.269 -0.639,-7.473 -2.301,-14.892 -2.832,-22.377 z"
   id="path49" />

			</g>

		</g>
  </g>
</svg>
