<?xml version="1.0" encoding="UTF-8" standalone="no"?>
<!-- Created with Inkscape (http://www.inkscape.org/) -->

<svg
   width="80.144905mm"
   height="95.965515mm"
   viewBox="0 0 80.144905 95.965515"
   version="1.1"
   id="svg1"
   inkscape:version="1.3.2 (091e20e, 2023-11-25, custom)"
   sodipodi:docname="wow#5.svg"
   xmlns:inkscape="http://www.inkscape.org/namespaces/inkscape"
   xmlns:sodipodi="http://sodipodi.sourceforge.net/DTD/sodipodi-0.dtd"
   xmlns="http://www.w3.org/2000/svg"
   xmlns:svg="http://www.w3.org/2000/svg">
  <sodipodi:namedview
     id="namedview1"
     pagecolor="#ffffff"
     bordercolor="#000000"
     borderopacity="0.25"
     inkscape:showpageshadow="2"
     inkscape:pageopacity="0.0"
     inkscape:pagecheckerboard="0"
     inkscape:deskcolor="#d1d1d1"
     inkscape:document-units="mm"
     inkscape:zoom="0.76702441"
     inkscape:cx="395.68493"
     inkscape:cy="559.9561"
     inkscape:window-width="3840"
     inkscape:window-height="1057"
     inkscape:window-x="-8"
     inkscape:window-y="-8"
     inkscape:window-maximized="1"
     inkscape:current-layer="layer1" />
  <defs
     id="defs1" />
  <g
     inkscape:label="Layer 1"
     inkscape:groupmode="layer"
     id="layer1"
     transform="translate(-0.35105493,-0.32259296)">
    <g
       id="g228"
       transform="matrix(0.26458333,0,0,0.26458333,-118.32655,-110.44482)">
			<g
   id="g200">
				<g
   id="g198">
					<g
   id="g196">
						<path
   style="fill:#fffdf0"
   d="m 466.115,460.4 c 0,0 48.694,1.273 53.702,1.657 5.008,0.385 49.515,5.709 57.794,6.261 8.28,0.552 86.703,-0.602 91.702,-2.378 4.999,-1.776 69.548,-3.462 69.548,-3.462 l 5.927,1.182 c 0,0 0.821,134.4 1.18,139.477 0.359,5.078 5.783,113.018 3.912,117.918 -1.565,4.099 -19.231,16.279 -18.649,26.768 0.796,14.359 5.018,21.993 -2.747,23.193 -15.002,2.318 -113.553,8.764 -149.669,7.679 -27.478,-0.825 -106.429,-6.226 -112.039,-5.892 -5.61,0.334 -7.651,-1.99 -7.651,-1.99 l 2.17,-7.964 c -5.076,-10.213 -12.444,-4.163 -11.25,-4.598 2.519,-0.916 10.213,-104.285 10.762,-109.331 0.549,-5.046 6.462,-100.987 5.574,-108.473 -0.888,-7.485 -3.942,-78.166 -0.266,-80.047 z"
   id="path195" />

					</g>

					<g
   id="g197">
						<path
   style="fill:#4c4c4d"
   d="m 750.988,714.243 c -0.295,-5.369 -0.555,-10.741 -0.773,-16.114 -0.414,-10.18 -0.683,-20.366 -0.815,-30.553 -0.268,-20.742 -0.169,-41.332 -1.549,-62.045 -3.184,-47.815 -1.157,-96.031 -0.798,-143.921 0.006,-0.777 -0.693,-1.546 -1.5,-1.5 -36.015,2.045 -72.03,4.091 -108.046,6.136 -18.008,1.023 -36.055,2.463 -54.071,0.838 -17.831,-1.608 -35.479,-4.831 -53.311,-6.508 -20.382,-1.916 -40.849,-2.699 -61.318,-2.449 -0.218,0.003 -0.412,0.054 -0.589,0.132 -0.73,-0.049 -1.462,0.002 -2.208,0.17 -0.588,0.132 -1.053,0.705 -1.147,1.308 -0.12,0.189 -0.216,0.402 -0.247,0.663 -4.546,38.539 1.723,77.444 0.335,116.115 -1.393,38.838 -6.962,77.347 -11.266,115.927 -2.44,21.875 -4.444,43.802 -5.139,65.81 -0.027,0.87 0.714,1.421 1.5,1.5 3.364,0.341 6.727,0.682 10.091,1.023 0.056,0.006 0.105,0 0.158,0 -0.943,3.512 -2.034,6.999 -3.33,10.448 -0.261,0.696 0.296,1.733 1.048,1.845 45.733,6.832 92.05,6.222 138.151,7.548 11.904,0.342 23.782,1.046 35.693,0.585 11.287,-0.436 22.532,-1.576 33.749,-2.875 11.562,-1.339 23.105,-2.845 34.696,-3.927 8.945,-0.835 17.98,-0.794 26.902,-1.733 2.196,-0.231 5.156,-0.288 6.531,-2.292 1.603,-2.337 0.203,-6.239 -0.215,-8.72 -1.14,-6.763 -1.575,-14.443 -0.118,-21.191 0.642,-0.662 1.283,-1.324 1.924,-1.979 3.516,-3.595 6.999,-7.222 10.456,-10.873 1.508,-1.592 4.086,-3.48 5.115,-5.445 1.126,-2.152 0.222,-5.538 0.091,-7.923 z m -290.851,43.532 c -2.846,-0.289 -5.693,-0.577 -8.539,-0.866 1.307,-38.42 6.633,-76.512 10.957,-114.67 4.39,-38.744 6.626,-77.145 4.704,-116.12 -0.852,-17.26 -1.731,-34.549 -0.809,-51.794 2.917,38.13 5.012,76.33 5.403,114.576 0.413,40.369 -1.576,80.536 -4.774,120.765 -1.295,16.292 -2.218,32.638 -6.103,48.45 -0.221,-0.179 -0.499,-0.306 -0.839,-0.341 z m 270.494,11.29 c -1.004,0.987 -4.358,0.698 -5.727,0.791 -19.861,1.348 -39.514,3.18 -59.299,5.471 -22.047,2.552 -43.577,3.094 -65.734,2.4 -21.687,-0.679 -43.387,-0.854 -65.074,-1.531 -24.859,-0.776 -49.73,-2.213 -74.359,-5.795 5.779,-16.18 7.44,-33.067 8.794,-50.099 1.636,-20.579 3.372,-41.148 4.361,-61.77 1.951,-40.677 1.615,-81.429 -0.253,-122.102 -1.042,-22.695 -2.566,-45.365 -4.349,-68.014 6.54,36.019 6.83,72.721 7.329,109.251 0.457,33.512 1.783,66.996 2.71,100.496 0.534,19.295 0.853,38.594 0.923,57.896 -0.286,6.39 -0.185,12.76 0.129,19.147 0.16,3.254 1.019,7.429 0.044,10.607 -0.286,0.933 0.494,1.904 1.447,1.899 41.741,-0.223 83.477,0.386 125.215,0.819 21.091,0.218 42.183,0.378 63.276,0.35 15.032,-0.02 30.109,0.187 42.803,-9.238 6.107,-4.535 11.622,-10.009 16.979,-15.515 -0.258,3.211 -0.057,6.233 0.183,9.815 0.222,3.318 0.239,6.393 0.826,9.659 0.296,1.656 1.176,4.087 -0.224,5.463 z m 8.896,-39.237 c -2.746,2.865 -5.509,5.723 -8.291,8.564 -0.206,0.11 -0.381,0.282 -0.507,0.517 -4.713,4.8 -9.504,9.527 -14.502,14.015 -2.396,2.152 -4.895,3.985 -7.485,5.551 5.932,-9.033 9.034,-19.083 8.311,-30.18 6.085,1.184 13.077,2.581 18.783,0.268 3.309,-1.341 6.502,-3.074 9.586,-4.958 -1.959,2.08 -3.919,4.16 -5.895,6.223 z m -2.566,-5.051 c -6.679,3.205 -14.082,1.547 -21.149,0.236 -0.86,-0.159 -2.006,0.397 -1.899,1.447 1.348,13.183 -2.815,24.838 -11.05,35.032 -7.042,3.018 -14.708,4.327 -22.972,4.361 -20.582,0.085 -41.163,-0.022 -61.744,-0.211 -44.917,-0.413 -89.831,-1.149 -134.752,-0.936 0.323,-2.68 -0.12,-5.632 -0.246,-8.182 -0.3,-6.057 -0.444,-12.095 -0.264,-18.151 0.047,-0.146 0.079,-0.304 0.079,-0.484 -0.002,-0.605 -0.009,-1.21 -0.012,-1.815 0.003,-0.063 0.003,-0.125 0.005,-0.187 0.002,-0.051 -0.006,-0.094 -0.008,-0.142 -0.135,-33.371 -1.194,-66.712 -2.249,-100.065 -1.171,-37.026 -0.82,-74.135 -2.633,-111.133 -1.044,-21.292 -3.183,-42.531 -7.445,-63.431 17.551,-0.162 35.099,0.424 52.595,1.855 17.925,1.466 35.633,4.358 53.485,6.416 18.023,2.078 35.866,1.276 53.927,0.25 18.008,-1.023 36.015,-2.045 54.023,-3.068 19.795,-1.124 39.589,-2.248 59.384,-3.373 -0.338,40.991 -1.844,82.196 -0.267,123.16 0.777,20.183 2.598,40.21 2.533,60.427 -0.063,19.629 0.31,39.257 1.242,58.865 0.121,2.544 0.251,5.087 0.388,7.631 0.068,1.266 0.045,2.621 0.216,3.868 0.016,0.115 0.108,0.528 0.219,1.005 -3.655,2.422 -7.455,4.729 -11.406,6.625 z"
   id="path196" />

					</g>

				</g>

				<g
   style="opacity:0.15"
   id="g199">
					<path
   style="fill:#6e6a5f"
   d="m 663.961,481.37 c -1.209,-4.235 -8.884,-2.123 -14.214,-0.308 -3.002,0.049 -6.003,0.104 -9.004,0.183 -7.121,0.188 -14.24,0.463 -21.354,0.823 -14.23,0.719 -28.438,1.798 -42.618,3.188 -0.895,0.088 -1.576,0.492 -2.054,1.045 -0.539,-0.047 -1.079,-0.088 -1.618,-0.136 -3.844,-0.346 -3.821,5.656 0,6 21.21,1.908 42.498,2.348 63.782,2.59 7.334,0.083 18.68,2.175 25.089,-2.425 3.532,-2.537 4.543,-7.735 1.991,-10.96 z"
   id="path198" />

				</g>

			</g>

			<g
   id="g227">
				<g
   id="g201">
					<path
   style="fill:#49b0bb"
   d="m 659.44,477.212 c -0.657,-0.016 -1.321,-2.052 -2.127,-2.455 0.093,-0.453 0.209,-0.919 0.252,-1.212 0.173,-1.194 0.359,-2.386 0.547,-3.578 0.377,-2.383 0.771,-4.763 1.108,-7.152 0.695,-4.924 1.219,-9.851 0.976,-14.83 -0.108,-2.214 -1.987,-4.801 -4.505,-4.505 -1.185,0.139 -2.096,0.117 -3.238,-0.224 -1.096,-0.327 -2.256,-0.159 -3.235,0.354 -11.664,-0.219 -23.329,-0.437 -34.993,-0.656 -1.108,-0.021 -2.039,0.344 -2.756,0.936 -4.402,-0.129 -8.804,-0.246 -13.206,-0.332 -2.282,-0.421 -3.523,0.117 -5.865,0.801 -0.759,0.222 -2.169,-0.518 -2.837,-0.115 -2.415,0.133 -5.025,-0.211 -7.448,0.13 -4.641,0.653 -9.509,1.719 -14.201,0.962 -1.822,-0.294 -3.563,0.046 -4.735,1.614 -1.025,1.372 -1.37,3.492 -0.352,5.003 0.739,1.097 1.303,2.204 1.728,3.367 0.125,1.179 0.409,2.337 0.851,3.508 10e-4,0.007 0.002,0.014 0.003,0.021 l 0.004,-0.002 c 0.136,0.358 0.285,0.717 0.45,1.078 0.015,0.032 0.034,0.061 0.049,0.092 1.114,7.983 1.415,16.053 0.962,24.12 -0.136,2.432 1.453,3.549 3.79,3.549 0.38,0 1.158,0.277 1.502,0.191 0.49,0.187 2.086,0.044 2.628,0 14.211,-1.169 27.702,-0.761 41.958,-0.459 6.973,0.148 13.833,0.411 20.774,-0.468 7.024,-0.89 14.033,-1.915 21.047,-2.88 3.893,-0.534 5.317,-6.753 0.869,-6.858 z m -80.614,-22.168 c -0.207,-0.444 0.333,-0.39 0.013,0.031 10e-4,-0.018 10e-4,-0.037 0.002,-0.055 0.023,-0.323 0.018,-0.315 -0.015,0.024 z"
   id="path200" />

				</g>

				<g
   id="g203">
					<g
   id="g202">
						<path
   style="fill:#4c4c4d"
   d="m 638.015,483.769 c 0.377,0.4 0.465,0.91 0.395,1.441 -0.053,0.403 0.383,0.751 0.751,0.751 0.45,0 0.698,-0.347 0.751,-0.751 0.12,-0.914 -0.206,-1.836 -0.835,-2.502 -0.665,-0.705 -1.726,0.358 -1.062,1.061 z"
   id="path201" />

					</g>

				</g>

				<g
   id="g205">
					<g
   id="g204">
						<path
   style="fill:#4c4c4d"
   d="m 588.856,484.795 c -0.25,0.848 -0.229,1.922 0.521,2.518 0.698,0.555 1.713,0.445 2.198,-0.326 0.516,-0.82 -0.783,-1.575 -1.297,-0.758 0.031,-0.05 0.084,-0.041 0.122,-0.07 -0.021,0.017 -0.077,0.032 -0.085,0.008 0.078,0.008 0.071,0.002 -0.019,-0.019 0.014,0.004 0.027,0.009 0.041,0.013 -0.141,-0.188 0.04,0.121 -0.04,-0.03 -0.153,-0.292 -0.086,-0.625 0.006,-0.937 0.275,-0.929 -1.173,-1.326 -1.447,-0.399 z"
   id="path203" />

					</g>

				</g>

				<g
   id="g207">
					<g
   id="g206">
						<path
   style="fill:#4c4c4d"
   d="m 570.138,488.389 c 29.746,-1.264 59.769,1.263 89.231,-4.09 0.949,-0.172 0.547,-1.62 -0.399,-1.448 -29.321,5.327 -59.228,2.777 -88.832,4.036 -0.963,0.041 -0.968,1.543 0,1.502 z"
   id="path205" />

					</g>

				</g>

				<g
   id="g209">
					<g
   id="g208">
						<path
   style="fill:#4c4c4d"
   d="m 570.461,486.964 c -1.691,0.556 -2.859,-0.944 -3.129,-2.446 -0.184,-1.026 -0.311,-3.412 0.694,-4.054 0.813,-0.519 2.718,-0.183 3.653,-0.17 1.25,0.018 2.489,-0.028 3.733,-0.157 5.005,-0.518 9.828,-1.81 14.9,-1.618 0.966,0.036 0.965,-1.465 0,-1.502 -3.859,-0.146 -7.562,0.477 -11.35,1.111 -2.083,0.348 -4.177,0.651 -6.293,0.672 -1.643,0.016 -3.438,-0.256 -5.042,0.217 -2.243,0.661 -2.127,4.236 -1.726,6.093 0.486,2.248 2.612,4.074 4.958,3.302 0.915,-0.3 0.524,-1.751 -0.398,-1.448 z"
   id="path207" />

					</g>

				</g>

				<g
   id="g211">
					<g
   id="g210">
						<path
   style="fill:#4c4c4d"
   d="m 596.681,479.126 c 11.055,-0.846 22.139,-1.183 33.225,-1.009 0.967,0.015 0.967,-1.487 0,-1.502 -11.086,-0.173 -22.17,0.164 -33.225,1.009 -0.958,0.074 -0.966,1.576 0,1.502 z"
   id="path209" />

					</g>

				</g>

				<g
   id="g213">
					<g
   id="g212">
						<path
   style="fill:#4c4c4d"
   d="m 635.735,477.869 c 5.556,0.022 11.111,0.044 16.667,0.066 1.358,0.005 2.716,0.011 4.074,0.016 1.357,0.005 3.06,-0.34 4.131,0.535 1.352,1.105 0.814,3.376 -0.864,3.985 -0.744,0.27 -1.475,0.179 -2.218,0.58 -0.85,0.46 -0.093,1.757 0.758,1.297 1.044,-0.565 2.362,-0.211 3.346,-0.931 0.903,-0.661 1.075,-1.759 1.161,-2.813 0.186,-2.276 -0.646,-3.997 -3.08,-4.137 -3.893,-0.224 -7.854,-0.036 -11.754,-0.052 -4.074,-0.016 -8.148,-0.032 -12.222,-0.048 -0.965,-0.003 -0.966,1.498 10e-4,1.502 z"
   id="path211" />

					</g>

				</g>

				<g
   id="g215">
					<g
   id="g214">
						<path
   style="fill:#4c4c4d"
   d="m 566.307,479.752 c -0.063,0.063 -0.125,0.125 -0.188,0.188 -0.278,0.278 -0.299,0.787 0,1.062 0.3,0.275 0.765,0.297 1.062,0 0.063,-0.063 0.125,-0.125 0.188,-0.188 0.278,-0.278 0.299,-0.788 0,-1.062 -0.3,-0.275 -0.765,-0.297 -1.062,0 z"
   id="path213" />

					</g>

				</g>

				<g
   id="g217">
					<g
   id="g216">
						<path
   style="fill:#4c4c4d"
   d="m 568.463,479.903 c -0.355,-10.086 -2.332,-19.992 -4.553,-29.81 -0.103,-0.455 -0.544,-1.684 -0.426,-2.034 0.346,-1.028 1.484,-1.27 2.368,-1.288 1.353,-0.027 2.706,-0.063 4.059,-0.107 2.583,-0.085 5.164,-0.202 7.744,-0.351 5.283,-0.305 10.556,-0.75 15.816,-1.318 0.951,-0.102 0.961,-1.605 0,-1.502 -5.873,0.633 -11.76,1.113 -17.659,1.419 -2.949,0.153 -5.9,0.264 -8.853,0.333 -1.725,0.04 -3.847,-0.226 -4.709,1.656 -0.836,1.825 0.443,4.6 0.844,6.417 0.623,2.828 1.218,5.663 1.747,8.51 1.111,5.974 1.906,11.997 2.12,18.074 0.035,0.964 1.536,0.969 1.502,0.001 z"
   id="path215" />

					</g>

				</g>

				<g
   id="g219">
					<g
   id="g218">
						<path
   style="fill:#4c4c4d"
   d="m 599.499,444.045 c 9.012,0.094 18.024,-0.022 27.03,-0.349 0.964,-0.035 0.968,-1.537 0,-1.502 -9.006,0.327 -18.018,0.444 -27.03,0.349 -0.967,-0.01 -0.968,1.492 0,1.502 z"
   id="path217" />

					</g>

				</g>

				<g
   id="g221">
					<g
   id="g220">
						<path
   style="fill:#4c4c4d"
   d="m 631.577,443.932 c 4.836,-0.451 9.693,-0.609 14.547,-0.428 2.426,0.09 4.848,0.262 7.263,0.514 1.369,0.143 2.785,0.246 4.136,0.514 1.511,0.3 1.774,0.894 1.727,2.363 -0.31,9.8 -1.461,19.655 -2.262,29.426 -0.079,0.963 1.423,0.958 1.502,0 0.462,-5.638 0.909,-11.277 1.338,-16.917 0.205,-2.698 0.407,-5.395 0.604,-8.094 0.144,-1.965 0.949,-4.866 0.028,-6.72 -0.747,-1.503 -2.63,-1.527 -4.081,-1.719 -2.681,-0.354 -5.374,-0.61 -8.073,-0.765 -5.578,-0.321 -11.168,-0.194 -16.73,0.325 -0.953,0.089 -0.963,1.591 10e-4,1.501 z"
   id="path219" />

					</g>

				</g>

				<g
   id="g222">
					<path
   style="fill:#ffffff"
   d="m 636.84,479.512 c -2.062,-3.585 -2.766,-5.595 -4.124,-9.191 -1.695,-4.487 -4.138,-9.167 -5.216,-13.873 -1.088,-4.75 2.102,-9.061 3.78,-13.267 2.151,-5.393 1.351,-10.607 -1.02,-15.786 -0.982,-2.145 -2.106,-3.949 -4.238,-5.114 -2.38,-1.302 -5.109,-2.075 -7.779,-2.468 -5.2,-0.765 -10.585,-0.03 -15.307,2.32 -3.984,1.982 -7.442,5.356 -9.13,9.504 -1.974,4.849 -0.536,9.375 1.523,13.909 1.071,2.359 2.175,4.74 1.998,7.397 -0.224,3.371 -1.528,6.813 -2.377,10.069 l -5.294,20.291 c -0.854,3.275 4.214,4.673 5.068,1.397 1.513,-5.797 3.025,-11.595 4.537,-17.393 0.693,-2.657 1.388,-5.314 2.08,-7.971 0.716,-2.748 1.474,-5.557 1.188,-8.422 -0.465,-4.67 -3.699,-8.399 -4.401,-12.96 -0.616,-4.002 1.966,-7.658 5.096,-9.881 3.753,-2.665 8.533,-3.636 13.072,-3.236 2.216,0.195 4.498,0.763 6.518,1.709 2.322,1.088 3.168,3.762 3.893,6.091 0.718,2.303 1.729,4.794 1.077,7.134 -0.655,2.349 -1.743,4.988 -2.733,7.202 -1.976,4.422 -3.749,8.114 -2.049,12.794 1.733,4.769 4.854,8.833 6.286,13.73 1.352,4.624 2.471,9.043 6.474,12.104 1.136,0.869 2.316,0.376 2.981,-0.734 0.808,-1.342 -1.009,-3.8 -1.903,-5.355 z"
   id="path221" />

				</g>

				<g
   id="g224">
					<g
   id="g223">
						<path
   style="fill:#4c4c4d"
   d="m 590.153,486.23 c 2.488,-10.843 6.096,-21.43 8.187,-32.364 0.318,-1.663 0.129,-3.392 -0.746,-4.859 -1.41,-2.364 -2.72,-4.735 -3.516,-7.39 -1.63,-5.433 -0.583,-10.915 3.177,-15.205 3.508,-4.001 9.123,-5.572 14.296,-6.111 5.423,-0.565 11.045,0.149 14.961,4.227 3.61,3.759 5.274,8.294 5.024,13.523 -0.245,5.138 -4.288,9.107 -4.626,14.142 -0.185,2.748 0.782,5.274 1.687,7.813 1.019,2.859 1.848,5.779 2.78,8.666 1.757,5.439 4.011,10.616 6.72,15.645 0.458,0.851 1.755,0.094 1.297,-0.758 -2.759,-5.122 -5.019,-10.405 -6.781,-15.952 -0.848,-2.669 -1.627,-5.361 -2.567,-8 -1.059,-2.972 -2.212,-5.949 -1.328,-9.139 0.671,-2.42 2.113,-4.64 3.039,-6.972 0.983,-2.475 1.403,-4.918 1.26,-7.576 -0.25,-4.659 -1.889,-8.585 -5.034,-12.015 -3.479,-3.794 -7.894,-5.207 -12.992,-5.255 -5.062,-0.049 -10.48,1.099 -15.003,3.398 -4.007,2.037 -7.171,7.185 -7.953,11.488 -0.885,4.868 0.629,9.728 2.941,13.985 0.794,1.463 1.863,2.764 2.008,4.479 0.136,1.608 -0.482,3.392 -0.833,4.956 -0.725,3.232 -1.55,6.44 -2.408,9.639 -1.717,6.403 -3.555,12.773 -5.038,19.236 -0.215,0.94 1.232,1.342 1.448,0.399 z"
   id="path222" />

					</g>

				</g>

				<g
   id="g226">
					<g
   id="g225">
						<path
   style="fill:#4c4c4d"
   d="m 588.802,485.698 c 0.612,1.77 1.828,2.012 3.666,1.476 2,-0.583 2.771,-2.534 3.52,-4.306 1.138,-2.694 1.729,-5.762 2.542,-8.57 0.859,-2.966 1.708,-5.934 2.566,-8.901 0.875,-3.027 1.85,-6.036 2.665,-9.078 0.581,-2.17 0.795,-4.493 -0.255,-6.559 -2.462,-4.843 -5.857,-9.159 -4.46,-14.935 0.755,-3.121 1.874,-5.355 4.74,-6.979 2.411,-1.366 5.095,-2.222 7.851,-2.505 5.386,-0.552 11.373,0.966 14.129,5.951 1.573,2.846 2.37,5.677 1.575,8.903 -0.688,2.792 -2.183,5.308 -3.767,7.678 -2.918,4.364 -1.194,10.476 0.411,15.048 2.01,5.726 4.353,11.546 7.151,16.939 1.38,2.659 5.381,10.284 8.898,5.546 0.576,-0.777 -0.726,-1.526 -1.297,-0.758 -2.091,2.818 -5.078,-3.276 -5.873,-4.731 -1.377,-2.52 -2.486,-5.175 -3.591,-7.822 -2.022,-4.84 -4.391,-9.73 -5.372,-14.921 -0.574,-3.038 -0.606,-6.156 1.138,-8.796 1.417,-2.145 2.73,-4.412 3.499,-6.88 1.411,-4.532 0.208,-8.887 -2.542,-12.662 -2.531,-3.474 -7.098,-4.815 -11.229,-5.059 -4.364,-0.258 -8.8,0.912 -12.504,3.224 -3.605,2.25 -5.172,6.815 -5.077,10.966 0.112,4.87 3.044,8.36 5.023,12.55 1.441,3.052 -0.277,6.656 -1.153,9.638 -0.942,3.207 -1.865,6.42 -2.789,9.632 -0.928,3.224 -1.858,6.448 -2.809,9.666 -0.464,1.57 -0.933,3.111 -1.692,4.569 -0.438,0.841 -0.682,1.382 -1.698,1.703 -0.852,0.269 -1.531,0.405 -1.819,-0.427 -0.313,-0.907 -1.764,-0.517 -1.447,0.4 z"
   id="path224" />

					</g>

				</g>

			</g>

		</g>
  </g>
</svg>
