<?xml version="1.0" encoding="UTF-8" standalone="no"?>
<!-- Created with Inkscape (http://www.inkscape.org/) -->

<svg
   width="83.856499mm"
   height="82.743858mm"
   viewBox="0 0 83.856499 82.743858"
   version="1.1"
   id="svg1"
   inkscape:version="1.3.2 (091e20e, 2023-11-25, custom)"
   sodipodi:docname="wow#6.svg"
   xmlns:inkscape="http://www.inkscape.org/namespaces/inkscape"
   xmlns:sodipodi="http://sodipodi.sourceforge.net/DTD/sodipodi-0.dtd"
   xmlns="http://www.w3.org/2000/svg"
   xmlns:svg="http://www.w3.org/2000/svg">
  <sodipodi:namedview
     id="namedview1"
     pagecolor="#ffffff"
     bordercolor="#000000"
     borderopacity="0.25"
     inkscape:showpageshadow="2"
     inkscape:pageopacity="0.0"
     inkscape:pagecheckerboard="0"
     inkscape:deskcolor="#d1d1d1"
     inkscape:document-units="mm"
     inkscape:zoom="0.76702441"
     inkscape:cx="395.68493"
     inkscape:cy="559.9561"
     inkscape:window-width="3840"
     inkscape:window-height="1057"
     inkscape:window-x="-8"
     inkscape:window-y="-8"
     inkscape:window-maximized="1"
     inkscape:current-layer="layer1" />
  <defs
     id="defs1" />
  <g
     inkscape:label="Layer 1"
     inkscape:groupmode="layer"
     id="layer1"
     transform="translate(-0.43143934,-0.33618006)">
    <g
       id="g175"
       transform="matrix(0.26458333,0,0,0.26458333,-225.59669,-117.04205)">
			<g
   id="g168">
				<g
   id="g147">
					<g
   id="g146">
						<path
   style="fill:#ffffff"
   d="m 1152.361,717.883 c -1.208,-7.67 -7.594,-54.95 -8.48,-63.051 -0.886,-8.101 -4.782,-79 -4.964,-87.755 -0.182,-8.755 0.301,-92.953 0.301,-92.953 0,0 -34.99,2.532 -46.652,3.376 -11.663,0.844 -91.791,4.8 -108.49,2.404 -26.544,-3.809 -127.56,-1.876 -127.56,-1.876 5.98,11.546 3.885,227.245 5.294,246.914 1.41,19.669 28.219,28.158 34.141,29.398 5.922,1.24 116.142,-1.228 122.814,-1.41 6.672,-0.182 138.609,-3.775 138.609,-3.775 0,0 -3.805,-23.602 -5.013,-31.272 z M 889.915,502.009 c -0.332,1.021 -0.899,1.903 -1.702,2.649 -1.493,1.492 -3.71,2.411 -5.82,2.411 h -0.262 c -2.23,0 -4.21,-0.932 -5.82,-2.411 -1.616,-1.484 -2.315,-3.692 -2.411,-5.82 -0.043,-1.133 0.194,-2.19 0.709,-3.171 0.332,-1.021 0.899,-1.904 1.702,-2.649 1.493,-1.493 3.71,-2.411 5.82,-2.411 h 0.262 c 2.23,0 4.21,0.933 5.82,2.411 1.616,1.484 2.315,3.692 2.411,5.82 0.043,1.133 -0.194,2.191 -0.709,3.171 z m 25.018,5.06 c -10.61,0 -10.593,-16.463 0,-16.463 10.61,0.001 10.593,16.463 0,16.463 z m 40.722,-1.886 c -0.088,0.087 -0.175,0.175 -0.263,0.262 -1.575,1.575 -3.637,2.313 -5.82,2.411 -2.192,0.098 -4.252,-0.971 -5.82,-2.411 -0.803,-0.746 -1.37,-1.629 -1.702,-2.649 -0.515,-0.981 -0.752,-2.038 -0.709,-3.171 0,-2.111 0.918,-4.328 2.411,-5.82 0.087,-0.087 0.175,-0.175 0.262,-0.262 1.575,-1.575 3.637,-2.313 5.82,-2.411 2.192,-0.098 4.252,0.971 5.82,2.411 0.803,0.745 1.37,1.629 1.702,2.649 0.515,0.981 0.752,2.038 0.709,3.171 10e-4,2.111 -0.917,4.328 -2.41,5.82 z m 35.291,-0.287 c -0.332,1.021 -0.899,1.903 -1.702,2.649 -1.493,1.492 -3.71,2.411 -5.82,2.411 h -0.262 c -2.23,0 -4.21,-0.933 -5.82,-2.411 -1.616,-1.484 -2.315,-3.692 -2.411,-5.82 -0.043,-1.133 0.194,-2.19 0.709,-3.171 0.332,-1.021 0.899,-1.904 1.702,-2.649 1.493,-1.493 3.71,-2.411 5.82,-2.411 h 0.262 c 2.23,0 4.21,0.932 5.82,2.411 1.616,1.484 2.315,3.692 2.411,5.82 0.043,1.133 -0.193,2.19 -0.709,3.171 z m 34.902,-0.525 c -0.332,1.021 -0.899,1.903 -1.702,2.649 -1.493,1.492 -3.71,2.411 -5.82,2.411 h -0.262 c -2.23,0 -4.21,-0.932 -5.82,-2.411 -1.616,-1.484 -2.315,-3.691 -2.411,-5.82 -0.043,-1.133 0.194,-2.19 0.709,-3.171 0.332,-1.02 0.899,-1.904 1.702,-2.649 1.493,-1.493 3.71,-2.411 5.82,-2.411 h 0.262 c 2.23,0 4.21,0.933 5.82,2.411 1.616,1.484 2.316,3.691 2.411,5.82 0.043,1.133 -0.193,2.19 -0.709,3.171 z m 27.904,5.06 c -10.61,0 -10.593,-16.463 0,-16.463 10.611,10e-4 10.593,16.463 0,16.463 z m 40.85,-7.159 c -0.332,1.02 -0.899,1.903 -1.702,2.649 -0.053,0.053 -0.113,0.099 -0.167,0.15 -0.033,0.037 -0.062,0.076 -0.095,0.112 -1.484,1.616 -3.692,2.316 -5.82,2.411 -1.133,0.043 -2.19,-0.194 -3.171,-0.709 -1.02,-0.332 -1.903,-0.899 -2.649,-1.702 -1.477,-1.477 -2.434,-3.725 -2.411,-5.82 0,-0.062 0,-0.124 0.01,-0.185 0.098,-0.729 0.196,-1.459 0.294,-2.188 0.313,-1.375 1.2,-2.654 2.14,-3.677 1.51,-1.644 3.891,-2.42 6.05,-2.444 2.222,-0.024 4.22,0.942 5.82,2.411 1.616,1.484 2.316,3.692 2.411,5.82 0.042,1.134 -0.195,2.191 -0.71,3.172 z m 30.178,-3.411 c -0.332,1.02 -0.899,1.903 -1.702,2.649 -1.493,1.493 -3.71,2.411 -5.82,2.411 h -0.263 c -2.23,0 -4.21,-0.932 -5.82,-2.411 -1.616,-1.484 -2.316,-3.691 -2.411,-5.82 -0.043,-1.133 0.194,-2.19 0.709,-3.171 0.332,-1.02 0.899,-1.904 1.702,-2.649 1.493,-1.493 3.71,-2.411 5.82,-2.411 h 0.263 c 2.23,0 4.21,0.933 5.82,2.411 1.616,1.484 2.316,3.691 2.411,5.82 0.043,1.132 -0.193,2.189 -0.709,3.171 z"
   id="path145" />

					</g>

				</g>

				<g
   id="g149">
					<g
   id="g148">
						<path
   style="fill:#a3d0d8"
   d="m 1128.042,518.972 c -65.496,10.256 -131.865,6.502 -197.831,7.354 -18.409,0.238 -36.818,0.817 -55.162,2.5 -2.357,0.216 -2.379,4.074 0,3.856 66.076,-6.063 132.615,-0.186 198.799,-4.16 18.468,-1.109 36.884,-2.967 55.179,-5.832 2.351,-0.368 1.352,-4.084 -0.985,-3.718 z"
   id="path147" />

					</g>

				</g>

				<g
   id="g150">
					<path
   style="fill:#4c4c4d"
   d="m 1158.892,748.736 c -5.781,-35.59 -11.546,-71.216 -14.714,-107.153 -3.115,-35.347 -3.95,-70.853 -3.949,-106.323 10e-4,-20.38 0.279,-40.759 0.564,-61.136 0.011,-0.806 -0.732,-1.635 -1.575,-1.574 -36.796,2.663 -73.759,6.565 -110.668,6.855 -37.369,0.293 -74.617,-3.225 -111.937,-4.522 -18.592,-0.646 -37.34,-0.943 -55.906,0.465 -4.586,0.348 -7.017,2.034 -6.305,6.931 1.383,9.514 3.102,18.842 3.772,28.464 2.364,33.964 1.083,68.371 0.94,102.401 -0.148,35.351 -0.364,70.7 -0.254,106.052 0.193,5.177 3.029,10.701 5.559,15.081 4.252,7.361 10.315,13.96 18.021,17.744 5.753,2.826 11.796,3.492 18.091,3.819 8.095,0.42 16.212,0.482 24.317,0.515 42.531,0.175 85.063,-1.61 127.571,-2.767 34.986,-0.953 69.971,-1.906 104.957,-2.858 1.104,-0.031 1.681,-0.978 1.516,-1.994 z m -264.142,3.547 c -9.866,-1.036 -18.208,-6.534 -24.147,-14.345 -2.926,-3.848 -6.322,-9.086 -7.821,-14.266 8.797,1.886 17.709,0.849 25.817,-2.974 -0.626,7.106 2.123,13.97 5.387,20.308 2.455,4.768 5.673,9.158 10.005,11.976 -3.092,-0.163 -6.176,-0.377 -9.241,-0.699 z m 84.395,0.151 c -13.393,0.365 -26.771,0.675 -40.168,0.754 -8.618,0.051 -17.344,0.25 -26.042,0.101 -0.186,-0.227 -0.463,-0.399 -0.853,-0.467 -7.487,-1.309 -12.057,-6.977 -15.377,-13.405 -3.352,-6.49 -6.31,-13.735 -4.549,-21.115 0.318,-1.331 -1.094,-2.469 -2.313,-1.778 -8.584,4.864 -18.229,6.15 -27.752,3.748 -0.038,-0.36 -0.07,-0.72 -0.083,-1.076 -0.193,-62.164 1.147,-124.364 0.167,-186.521 -0.14,-8.903 -0.452,-17.808 -1.224,-26.68 -0.315,-3.617 -0.706,-7.227 -1.19,-10.826 -0.254,-1.886 -0.529,-3.769 -0.834,-5.648 -0.315,-1.938 -1.815,-5.572 -1.384,-7.492 1.171,-5.219 8.79,-3.878 12.968,-4.052 4.574,-0.191 9.151,-0.31 13.728,-0.37 9.157,-0.12 18.316,0 27.469,0.268 35.697,1.047 71.302,4.358 107.024,4.673 39.657,0.35 79.365,-3.835 118.891,-6.73 -0.981,71.337 -0.915,142.426 8.889,213.245 2.709,19.568 5.864,39.07 9.031,58.568 -58.801,1.6 -117.6,3.202 -176.398,4.803 z"
   id="path149" />

				</g>

				<g
   id="g167">
					<g
   id="g152">
						<g
   id="g151">
							<path
   style="fill:#3f3f3f"
   d="m 882.321,489.083 c -4.86,-0.233 -8.796,3.431 -10.214,8.15 -1.964,6.54 4.327,10.567 10.161,11.248 13.118,1.531 13.568,-21.373 0.053,-19.398 z m -1.52,16.984 c -4.43,-1.112 -8.333,-4.094 -6.344,-9.097 1.48,-3.723 4.733,-6.608 8.969,-5.647 0.406,0.092 0.727,-0.049 0.956,-0.28 8.884,0.466 7.736,17.866 -3.581,15.024 z"
   id="path150" />

						</g>

					</g>

					<g
   id="g154">
						<g
   id="g153">
							<path
   style="fill:#3f3f3f"
   d="m 920.854,490.204 c -5.408,-3.159 -11.503,-0.453 -15.489,3.633 -0.386,0.396 -0.356,0.872 -0.132,1.238 -1.731,4.301 0.185,10.317 4.242,12.648 4.488,2.578 10.949,-0.258 13.754,-4.132 3.126,-4.319 2.392,-10.602 -2.375,-13.387 z m 1.13,11.464 c -1.955,3.238 -6.55,5.699 -10.315,4.574 -4.069,-1.216 -6.25,-7.25 -4.235,-10.932 0.127,-0.232 0.139,-0.453 0.105,-0.66 2.611,-2.44 6.054,-4.361 9.738,-3.576 4.846,1.033 7.352,6.214 4.707,10.594 z"
   id="path152" />

						</g>

					</g>

					<g
   id="g156">
						<g
   id="g155">
							<path
   style="fill:#3f3f3f"
   d="m 954.073,490.313 c -0.116,-0.146 -0.26,-0.275 -0.474,-0.349 -5.052,-1.776 -10.978,0.171 -13.379,5.137 -2.462,5.093 -0.419,11.571 4.744,13.995 5.377,2.525 10.571,-0.553 13.501,-5.212 3.627,-5.769 0.831,-10.521 -4.392,-13.571 z m 2.58,12.511 c -2.415,4.025 -7.089,6.649 -11.519,3.991 -3.874,-2.325 -4.968,-7.748 -2.618,-11.557 2.141,-3.47 6.454,-4.529 10.166,-3.382 0.057,0.051 0.098,0.109 0.173,0.152 4.343,2.484 6.679,5.991 3.798,10.796 z"
   id="path154" />

						</g>

					</g>

					<g
   id="g158">
						<g
   id="g157">
							<path
   style="fill:#3f3f3f"
   d="m 983.166,491.744 c -4.86,-0.233 -8.796,3.431 -10.214,8.15 -1.964,6.539 4.327,10.567 10.161,11.248 13.118,1.531 13.568,-21.373 0.053,-19.398 z m -1.52,16.984 c -4.43,-1.112 -8.333,-4.094 -6.344,-9.097 1.48,-3.723 4.733,-6.608 8.969,-5.646 0.406,0.092 0.727,-0.049 0.956,-0.28 8.884,0.465 7.736,17.864 -3.581,15.023 z"
   id="path156" />

						</g>

					</g>

					<g
   id="g160">
						<g
   id="g159">
							<path
   style="fill:#3f3f3f"
   d="m 1024.307,492.865 c -5.408,-3.16 -11.503,-0.453 -15.489,3.633 -0.386,0.396 -0.356,0.872 -0.132,1.238 -1.731,4.302 0.185,10.317 4.242,12.648 4.489,2.578 10.949,-0.258 13.754,-4.132 3.127,-4.319 2.392,-10.602 -2.375,-13.387 z m 1.131,11.464 c -1.955,3.238 -6.55,5.699 -10.315,4.574 -4.069,-1.216 -6.25,-7.25 -4.235,-10.932 0.127,-0.232 0.139,-0.453 0.105,-0.66 2.611,-2.44 6.054,-4.361 9.738,-3.576 4.846,1.032 7.351,6.214 4.707,10.594 z"
   id="path158" />

						</g>

					</g>

					<g
   id="g162">
						<g
   id="g161">
							<path
   style="fill:#3f3f3f"
   d="m 1058.106,492.062 c -0.116,-0.146 -0.26,-0.274 -0.474,-0.35 -5.052,-1.776 -10.978,0.171 -13.379,5.137 -2.462,5.092 -0.419,11.57 4.744,13.995 5.377,2.525 10.571,-0.552 13.501,-5.212 3.627,-5.767 0.832,-10.519 -4.392,-13.57 z m 2.58,12.511 c -2.415,4.025 -7.09,6.65 -11.52,3.991 -3.874,-2.325 -4.968,-7.748 -2.618,-11.557 2.141,-3.47 6.455,-4.529 10.166,-3.382 0.057,0.051 0.098,0.109 0.173,0.152 4.344,2.484 6.681,5.991 3.799,10.796 z"
   id="path160" />

						</g>

					</g>

					<g
   id="g164">
						<g
   id="g163">
							<path
   style="fill:#3f3f3f"
   d="m 1086.797,489.731 c -4.86,-0.233 -8.796,3.431 -10.214,8.15 -1.964,6.539 4.326,10.567 10.161,11.248 13.118,1.531 13.569,-21.372 0.053,-19.398 z m -1.52,16.985 c -4.43,-1.112 -8.333,-4.094 -6.344,-9.097 1.48,-3.723 4.733,-6.608 8.969,-5.647 0.406,0.092 0.727,-0.049 0.956,-0.28 8.885,0.466 7.736,17.865 -3.581,15.024 z"
   id="path162" />

						</g>

					</g>

					<g
   id="g166">
						<g
   id="g165">
							<path
   style="fill:#3f3f3f"
   d="m 1121.493,486.474 c -0.116,-0.146 -0.261,-0.275 -0.474,-0.35 -5.052,-1.776 -10.978,0.171 -13.379,5.137 -2.462,5.092 -0.419,11.57 4.744,13.995 5.377,2.525 10.571,-0.553 13.501,-5.212 3.627,-5.767 0.831,-10.52 -4.392,-13.57 z m 2.579,12.511 c -2.415,4.026 -7.089,6.65 -11.519,3.991 -3.874,-2.325 -4.968,-7.749 -2.618,-11.557 2.141,-3.47 6.455,-4.529 10.166,-3.381 0.057,0.051 0.098,0.109 0.173,0.152 4.344,2.483 6.681,5.99 3.798,10.795 z"
   id="path164" />

						</g>

					</g>

				</g>

			</g>

			<g
   id="g174">
				<g
   style="opacity:0.6"
   id="g170">
					<g
   id="g169">
						<path
   style="fill:#9d90bf"
   d="m 1045.814,444.977 c 0.327,0.04 9.622,5.174 21.117,11.665 11.495,6.491 41.165,22.634 41.165,22.634 0,0 37.92,20.067 38.981,20.935 1.061,0.868 21.41,11.771 21.41,11.771 l 1.263,0.698 -8.19,3.979 1.439,8.116 -6.876,2.538 2.207,9.104 -6.034,0.633 c 0,0 0.122,4.831 0.451,5.998 0.329,1.168 1.599,4.121 1.599,4.121 0,0 -13.858,-5.261 -23.648,-10.106 -9.79,-4.845 -41.292,-20.416 -44.619,-21.831 -3.327,-1.415 -27.771,-14.496 -30.173,-15.682 -2.402,-1.186 -12.671,-8.267 -15.288,-9.712 -2.617,-1.446 -13.132,-7.817 -14.081,-8.905 -0.949,-1.087 -1.932,-2.334 -1.932,-2.334 l 7.385,-1.05 -2.681,-5.222 -1.425,-2.195 8.662,-0.425 c 0,0 -2.364,-3.981 -2.355,-4.68 0.01,-0.699 0.844,-1.88 0.844,-1.88 0,0 4.386,-1.567 5.105,-2.296 0.719,-0.729 2.192,-2.028 1.355,-3.335 -0.837,-1.307 -1.676,-3.742 -1.676,-3.742 l 6.06,-0.313 2.129,-0.091 z"
   id="path168" />

					</g>

				</g>

				<g
   id="g173">
					<g
   id="g171">
						<path
   style="fill:#4c4c4d"
   d="m 1155.425,547.093 c -1.242,-2.594 -1.967,-5.367 -2.195,-8.318 1.813,-0.299 3.627,-0.599 5.44,-0.898 0.543,-0.09 0.992,-0.633 0.829,-1.242 l -2.335,-8.725 c 2.062,-0.663 4.123,-1.326 6.185,-1.99 0.433,-0.139 0.764,-0.739 0.611,-1.197 -0.791,-2.37 -1.583,-4.74 -2.374,-7.109 2.917,-1.361 5.833,-2.723 8.75,-4.084 0.678,-0.316 0.905,-1.364 0.204,-1.742 -33.866,-18.309 -67.748,-36.586 -101.704,-54.714 -4.098,-2.188 -8.203,-4.364 -12.309,-6.535 -0.033,-0.051 -0.077,-0.098 -0.135,-0.138 -3.253,-2.244 -6.666,-4.229 -9.953,-6.42 -0.547,-0.364 -1.355,0.371 -1.138,1.031 0.787,2.397 1.408,4.837 1.863,7.347 -2.501,0.051 -5.002,0.183 -7.506,0.416 -0.501,0.046 -0.941,0.625 -0.776,1.163 0.313,1.022 0.626,2.044 0.939,3.066 0.384,1.254 0.949,2.358 -0.525,3.303 -1.655,1.061 -3.684,1.309 -5.353,2.339 -0.856,0.528 -1.155,1.337 -0.886,2.319 0.35,1.273 1.169,2.528 1.922,3.712 -2.324,0.187 -4.648,0.373 -6.972,0.56 -0.639,0.051 -1.079,0.87 -0.742,1.454 1.046,1.814 2.093,3.627 3.139,5.44 -2.136,0.678 -4.291,1.18 -6.488,1.479 -0.786,0.107 -1.086,1.052 -0.61,1.648 0.538,0.673 1.104,1.312 1.692,1.925 0.916,0.452 1.731,1.052 2.509,1.706 0.151,0.043 0.304,0.1 0.457,0.172 0.13,0.055 0.258,0.117 0.379,0.197 0.015,0.01 0.029,0.019 0.044,0.029 1.973,1.124 3.861,2.399 5.695,3.762 v 0 c 0.36,0.268 0.718,0.538 1.074,0.812 0,0.003 0.01,0.007 0.013,0.01 0.359,0.276 0.715,0.554 1.07,0.836 0.445,0.283 0.886,0.574 1.325,0.869 1.091,0.732 2.165,1.491 3.238,2.25 26.883,15.493 54.639,29.326 82.502,42.814 5.192,2.513 10.388,5.016 15.586,7.516 5.059,2.434 10.088,5.055 15.568,6.381 0.754,0.181 1.287,-0.775 0.967,-1.444 z m -14.775,-6.19 c -4.598,-2.211 -9.196,-4.423 -13.79,-6.642 -9.291,-4.488 -18.568,-9.005 -27.807,-13.604 -17.915,-8.917 -35.691,-18.146 -53.124,-28.042 -2.438,-1.579 -4.922,-3.088 -7.373,-4.636 -0.052,-0.045 -0.112,-0.082 -0.177,-0.113 -0.4,-0.253 -0.8,-0.506 -1.197,-0.762 -3.16,-2.034 -6.314,-4.049 -9.538,-5.952 -0.665,-0.622 -1.311,-1.267 -1.93,-1.945 2.118,-0.384 4.208,-0.933 6.277,-1.657 0.533,-0.187 0.812,-0.915 0.525,-1.412 -0.993,-1.718 -1.986,-3.436 -2.98,-5.153 2.332,-0.191 4.665,-0.383 6.997,-0.574 0.641,-0.053 1.062,-0.859 0.736,-1.443 -0.511,-0.917 -1.022,-1.835 -1.535,-2.751 -0.203,-0.364 -0.435,-0.721 -0.615,-1.099 -0.271,-0.566 -0.47,-0.598 -0.08,-1.042 0.483,-0.549 1.886,-0.812 2.554,-1.1 0.81,-0.349 1.659,-0.653 2.44,-1.086 3.058,-1.698 1.741,-4.81 0.78,-7.458 2.442,-0.213 4.882,-0.346 7.322,-0.379 0.551,-0.008 0.838,-0.631 0.757,-1.134 -0.342,-2.13 -0.803,-4.217 -1.396,-6.258 2.148,1.348 4.342,2.643 6.613,3.744 -0.032,0.061 -0.065,0.122 -0.098,0.184 28.831,16.035 57.9,31.617 86.895,47.323 9.044,4.899 18.087,9.798 27.135,14.688 -2.596,1.212 -5.191,2.424 -7.787,3.636 -0.415,0.194 -0.779,0.696 -0.611,1.198 0.779,2.332 1.558,4.664 2.337,6.995 -2.043,0.658 -4.086,1.315 -6.129,1.973 -0.453,0.146 -0.735,0.728 -0.61,1.196 0.766,2.862 1.533,5.724 2.299,8.586 -1.748,0.289 -3.496,0.578 -5.244,0.867 -0.452,0.075 -0.883,0.467 -0.859,1.006 0.126,2.863 0.689,5.583 1.667,8.149 -4.328,-1.292 -8.38,-3.344 -12.454,-5.303 z"
   id="path170" />

					</g>

					<g
   id="g172">
						<path
   style="fill:#4c4c4d"
   d="m 1154.642,548.807 c -0.08,0 -0.161,-0.009 -0.241,-0.028 -4.865,-1.179 -9.43,-3.396 -13.844,-5.54 -0.592,-0.288 -1.183,-0.575 -1.774,-0.859 -5.197,-2.501 -10.394,-5.003 -15.587,-7.518 -26.662,-12.907 -55.111,-27.028 -82.517,-42.821 -1.013,-0.715 -2.138,-1.511 -3.254,-2.26 -0.437,-0.293 -0.875,-0.583 -1.318,-0.865 -0.375,-0.296 -0.73,-0.574 -1.088,-0.849 -0.368,-0.282 -0.726,-0.553 -1.085,-0.819 -1.998,-1.485 -3.853,-2.711 -5.669,-3.746 l -0.059,-0.038 c -0.107,-0.071 -0.222,-0.126 -0.337,-0.175 -0.15,-0.069 -0.29,-0.122 -0.43,-0.162 l -0.092,-0.049 c -0.902,-0.759 -1.684,-1.29 -2.458,-1.672 l -0.07,-0.052 c -0.627,-0.653 -1.185,-1.289 -1.707,-1.941 -0.291,-0.364 -0.364,-0.861 -0.189,-1.297 0.165,-0.413 0.524,-0.694 0.961,-0.755 2.02,-0.275 4.087,-0.738 6.15,-1.377 l -2.984,-5.169 c -0.201,-0.35 -0.2,-0.788 0,-1.173 0.199,-0.38 0.549,-0.625 0.936,-0.656 l 6.559,-0.526 c -0.702,-1.104 -1.405,-2.245 -1.729,-3.43 -0.3,-1.095 0.053,-2.017 0.994,-2.599 0.842,-0.52 1.775,-0.847 2.679,-1.163 0.911,-0.318 1.854,-0.648 2.672,-1.174 1.157,-0.742 0.9,-1.534 0.544,-2.63 -0.041,-0.128 -0.084,-0.258 -0.124,-0.389 l -0.939,-3.066 c -0.097,-0.316 -0.038,-0.667 0.159,-0.962 0.2,-0.298 0.511,-0.493 0.833,-0.523 2.331,-0.215 4.762,-0.353 7.23,-0.409 -0.441,-2.367 -1.047,-4.729 -1.801,-7.025 -0.164,-0.498 0.101,-0.979 0.437,-1.232 0.346,-0.264 0.759,-0.297 1.077,-0.085 1.449,0.966 2.949,1.908 4.4,2.819 1.837,1.154 3.736,2.348 5.556,3.603 0.062,0.042 0.116,0.093 0.162,0.149 4.09,2.162 8.178,4.329 12.259,6.509 35.16,18.772 69.66,37.391 101.705,54.715 0.367,0.198 0.57,0.56 0.558,0.992 -0.015,0.507 -0.326,0.987 -0.775,1.197 l -8.548,3.989 2.303,6.898 c 0.091,0.272 0.058,0.599 -0.092,0.894 -0.154,0.305 -0.401,0.53 -0.68,0.619 l -5.959,1.917 2.273,8.495 c 0.09,0.337 0.036,0.683 -0.153,0.976 -0.195,0.304 -0.523,0.521 -0.876,0.579 l -5.214,0.86 c 0.245,2.838 0.97,5.528 2.153,8 0.212,0.444 0.138,1.011 -0.187,1.411 -0.216,0.267 -0.512,0.412 -0.823,0.412 z M 1027.63,482.661 c 0.146,0.045 0.293,0.101 0.441,0.17 0.157,0.066 0.291,0.136 0.411,0.215 1.864,1.066 3.735,2.302 5.75,3.8 0.361,0.268 0.721,0.54 1.077,0.814 0.373,0.286 0.73,0.566 1.086,0.848 0.426,0.27 0.868,0.562 1.309,0.857 1.12,0.753 2.249,1.551 3.244,2.255 27.371,15.773 55.812,29.89 82.466,42.793 5.191,2.514 10.388,5.015 15.585,7.516 0.592,0.285 1.184,0.572 1.776,0.86 4.39,2.133 8.93,4.339 13.742,5.504 0.289,0.073 0.47,-0.104 0.558,-0.211 0.202,-0.249 0.253,-0.611 0.124,-0.88 v 0 c -1.242,-2.595 -1.989,-5.423 -2.219,-8.406 l -0.018,-0.229 5.666,-0.937 c 0.216,-0.035 0.417,-0.169 0.538,-0.355 0.079,-0.122 0.158,-0.321 0.091,-0.576 l -2.396,-8.954 6.412,-2.063 c 0.146,-0.047 0.294,-0.188 0.386,-0.368 0.09,-0.178 0.113,-0.363 0.063,-0.511 l -2.443,-7.32 8.952,-4.179 c 0.277,-0.13 0.478,-0.441 0.486,-0.759 0,-0.139 -0.028,-0.394 -0.296,-0.538 -32.044,-17.323 -66.543,-35.941 -101.703,-54.713 -4.097,-2.189 -8.201,-4.364 -12.308,-6.535 l -0.092,-0.084 c -0.018,-0.026 -0.04,-0.049 -0.067,-0.068 -1.813,-1.249 -3.707,-2.44 -5.54,-3.591 -1.453,-0.913 -2.956,-1.857 -4.411,-2.827 -0.204,-0.138 -0.433,0.016 -0.498,0.066 -0.188,0.143 -0.35,0.416 -0.264,0.679 0.792,2.411 1.421,4.895 1.871,7.38 l 0.052,0.289 -0.293,0.006 c -2.557,0.052 -5.076,0.191 -7.487,0.414 -0.172,0.016 -0.35,0.133 -0.464,0.304 -0.114,0.17 -0.149,0.365 -0.097,0.537 l 0.939,3.066 c 0.039,0.129 0.08,0.256 0.121,0.381 0.36,1.108 0.732,2.254 -0.75,3.205 -0.868,0.557 -1.838,0.896 -2.776,1.226 -0.878,0.307 -1.785,0.625 -2.581,1.116 -0.757,0.468 -1.018,1.154 -0.774,2.04 0.323,1.182 1.07,2.355 1.793,3.489 l 0.321,0.505 -7.386,0.593 c -0.211,0.018 -0.416,0.167 -0.533,0.391 -0.122,0.232 -0.127,0.491 -0.012,0.69 l 3.295,5.709 -0.297,0.094 c -2.188,0.695 -4.386,1.196 -6.529,1.489 -0.261,0.035 -0.467,0.197 -0.565,0.444 -0.107,0.269 -0.063,0.575 0.116,0.799 0.504,0.631 1.043,1.245 1.648,1.877 0.788,0.392 1.578,0.929 2.48,1.683 z m 125.89,63.928 -0.485,-0.144 c -3.896,-1.161 -7.618,-2.961 -11.217,-4.7 l -1.276,-0.616 c -4.598,-2.211 -9.195,-4.423 -13.79,-6.642 -11.206,-5.414 -19.783,-9.61 -27.811,-13.607 -20.637,-10.271 -37.521,-19.184 -53.136,-28.048 -1.532,-0.991 -3.096,-1.965 -4.608,-2.906 -0.927,-0.577 -1.854,-1.153 -2.775,-1.736 -0.063,-0.051 -0.102,-0.075 -0.149,-0.098 -0.428,-0.268 -0.828,-0.522 -1.227,-0.778 -3.031,-1.952 -6.265,-4.02 -9.529,-5.947 -0.76,-0.702 -1.396,-1.343 -1.987,-1.991 l -0.305,-0.334 0.444,-0.081 c 2.11,-0.382 4.21,-0.936 6.24,-1.647 0.184,-0.063 0.34,-0.23 0.42,-0.444 0.078,-0.213 0.067,-0.44 -0.029,-0.606 l -3.177,-5.495 7.391,-0.606 c 0.211,-0.018 0.406,-0.158 0.522,-0.376 0.124,-0.231 0.13,-0.491 0.016,-0.695 l -1.534,-2.751 c -0.067,-0.119 -0.138,-0.238 -0.207,-0.357 -0.146,-0.248 -0.293,-0.497 -0.417,-0.756 -0.057,-0.12 -0.11,-0.214 -0.155,-0.293 -0.214,-0.377 -0.268,-0.588 0.114,-1.023 0.381,-0.434 1.185,-0.685 1.894,-0.907 0.286,-0.089 0.552,-0.172 0.75,-0.257 0.229,-0.099 0.461,-0.194 0.693,-0.289 0.578,-0.237 1.176,-0.482 1.725,-0.787 2.73,-1.517 1.749,-4.196 0.799,-6.787 l -0.244,-0.672 0.324,-0.028 c 2.507,-0.22 4.977,-0.348 7.34,-0.381 0.134,-0.002 0.249,-0.06 0.342,-0.17 0.141,-0.168 0.21,-0.439 0.172,-0.674 -0.342,-2.138 -0.809,-4.232 -1.389,-6.229 l -0.183,-0.63 0.556,0.349 c 2.603,1.633 4.635,2.784 6.59,3.731 l 0.233,0.113 -0.104,0.195 c 22.446,12.482 45.407,24.892 67.616,36.894 6.355,3.435 12.711,6.869 19.063,10.31 9.043,4.898 18.087,9.797 27.135,14.688 l 0.437,0.236 -8.237,3.847 c -0.324,0.151 -0.6,0.534 -0.479,0.892 l 2.417,7.234 -6.369,2.052 c -0.318,0.102 -0.539,0.544 -0.446,0.893 l 2.371,8.852 -5.516,0.913 c -0.33,0.054 -0.669,0.334 -0.65,0.747 0.123,2.804 0.679,5.519 1.65,8.072 z m -12.762,-5.912 1.277,0.617 c 3.432,1.659 6.976,3.372 10.661,4.524 -0.883,-2.463 -1.39,-5.068 -1.508,-7.752 -0.031,-0.701 0.527,-1.175 1.069,-1.264 l 4.972,-0.821 -2.229,-8.321 c -0.161,-0.602 0.208,-1.315 0.775,-1.498 l 5.888,-1.896 -2.257,-6.756 c -0.21,-0.626 0.213,-1.256 0.743,-1.503 l 7.337,-3.427 c -8.902,-4.812 -17.801,-9.632 -26.698,-14.451 -6.352,-3.44 -12.707,-6.875 -19.063,-10.31 -22.28,-12.041 -45.318,-24.491 -67.835,-37.015 l -0.214,-0.119 0.091,-0.172 c -1.761,-0.864 -3.596,-1.899 -5.854,-3.301 0.504,1.826 0.916,3.728 1.226,5.664 0.062,0.382 -0.047,0.793 -0.282,1.074 -0.186,0.221 -0.44,0.345 -0.718,0.349 -2.249,0.031 -4.596,0.149 -6.979,0.351 l 0.021,0.059 c 0.926,2.527 2.079,5.672 -1.026,7.397 -0.574,0.318 -1.186,0.569 -1.777,0.811 -0.229,0.095 -0.459,0.189 -0.686,0.286 -0.217,0.093 -0.499,0.182 -0.798,0.275 -0.614,0.192 -1.379,0.432 -1.668,0.76 -0.187,0.213 -0.187,0.213 -0.054,0.446 0.05,0.087 0.108,0.191 0.171,0.323 0.118,0.246 0.258,0.482 0.396,0.718 0.071,0.122 0.144,0.244 0.212,0.367 l 1.536,2.751 c 0.196,0.354 0.192,0.793 -0.012,1.175 -0.197,0.368 -0.542,0.607 -0.923,0.639 l -6.604,0.542 2.782,4.812 c 0.173,0.299 0.196,0.675 0.064,1.03 -0.133,0.357 -0.396,0.628 -0.723,0.743 -1.912,0.669 -3.885,1.201 -5.87,1.583 0.495,0.527 1.025,1.054 1.609,1.601 3.229,1.899 6.467,3.97 9.503,5.925 0.396,0.255 0.795,0.508 1.194,0.761 0.063,0.026 0.143,0.078 0.21,0.137 0.889,0.558 1.814,1.134 2.74,1.71 1.514,0.942 3.08,1.917 4.603,2.903 15.595,8.853 32.472,17.761 53.1,28.028 8.025,3.995 16.602,8.19 27.805,13.603 4.598,2.219 9.196,4.431 13.793,6.642 z"
   id="path171" />

					</g>

				</g>

			</g>

		</g>
  </g>
</svg>
