<?xml version="1.0" encoding="UTF-8" standalone="no"?>
<!-- Created with Inkscape (http://www.inkscape.org/) -->

<svg
   width="87.637894mm"
   height="64.944946mm"
   viewBox="0 0 87.637894 64.944946"
   version="1.1"
   id="svg1"
   inkscape:version="1.3.2 (091e20e, 2023-11-25, custom)"
   sodipodi:docname="wow#7.svg"
   xmlns:inkscape="http://www.inkscape.org/namespaces/inkscape"
   xmlns:sodipodi="http://sodipodi.sourceforge.net/DTD/sodipodi-0.dtd"
   xmlns="http://www.w3.org/2000/svg"
   xmlns:svg="http://www.w3.org/2000/svg">
  <sodipodi:namedview
     id="namedview1"
     pagecolor="#ffffff"
     bordercolor="#000000"
     borderopacity="0.25"
     inkscape:showpageshadow="2"
     inkscape:pageopacity="0.0"
     inkscape:pagecheckerboard="0"
     inkscape:deskcolor="#d1d1d1"
     inkscape:document-units="mm"
     inkscape:zoom="0.76702441"
     inkscape:cx="396.98867"
     inkscape:cy="558.65236"
     inkscape:window-width="3840"
     inkscape:window-height="1057"
     inkscape:window-x="-8"
     inkscape:window-y="-8"
     inkscape:window-maximized="1"
     inkscape:current-layer="layer1" />
  <defs
     id="defs1" />
  <g
     inkscape:label="Layer 1"
     inkscape:groupmode="layer"
     id="layer1"
     transform="translate(0.12121782,-0.57108947)">
    <g
       id="g145"
       transform="matrix(0.26458333,0,0,0.26458333,-19.110618,-227.4289)">
			<g
   id="g131">
				<g
   id="g128">
					<path
   style="fill:#fffdf0"
   d="m 399.24,887.056 c -43.339,3.478 -86.955,3.494 -130.296,0.046 -14.366,-1.143 -28.707,-2.665 -43.103,-3.321 -50.702,-2.31 -102.005,6.119 -152.015,-2.549 0.885,67.897 1.77,135.795 2.655,203.692 -1.054,6.896 -2.107,13.792 -3.161,20.688 108.365,-2.571 218.667,0 326.973,-4.406 2.263,-69.336 0.606,-144.796 -1.053,-214.15 z"
   id="path127" />

				</g>

				<g
   id="g130">
					<g
   id="g129">
						<path
   style="fill:#4c4c4d"
   d="m 78.09,1087.152 c -0.895,-68.64 -1.789,-137.28 -2.684,-205.92 -0.667,0.508 -1.334,1.016 -2.001,1.524 41.411,6.988 83.305,2.774 125.008,2.24 42.56,-0.544 84.827,5.806 127.397,6.221 24.503,0.239 49.002,-0.651 73.429,-2.581 -0.527,-0.527 -1.054,-1.054 -1.581,-1.581 1.706,71.359 3.343,142.786 1.053,214.151 0.527,-0.527 1.054,-1.054 1.581,-1.581 -84.862,3.417 -169.807,2.631 -254.716,3.322 -24.088,0.196 -48.175,0.519 -72.257,1.083 0.508,0.667 1.016,1.334 1.524,2.001 1.078,-7.056 2.156,-14.112 3.235,-21.167 0.304,-1.99 -2.741,-2.848 -3.048,-0.84 -1.078,7.056 -2.156,14.112 -3.235,21.168 -0.149,0.975 0.399,2.027 1.524,2.001 84.902,-1.989 169.838,-0.885 254.747,-2.373 24.082,-0.422 48.16,-1.063 72.227,-2.032 0.875,-0.035 1.552,-0.696 1.581,-1.581 2.29,-71.365 0.653,-142.792 -1.053,-214.151 -0.019,-0.803 -0.71,-1.649 -1.581,-1.581 -42.321,3.343 -84.864,3.492 -127.2,0.286 -21.16,-1.602 -42.213,-3.873 -63.458,-3.972 -20.698,-0.097 -41.372,1.065 -62.057,1.605 -24.158,0.63 -48.391,0.344 -72.278,-3.687 -0.984,-0.166 -2.015,0.413 -2.001,1.524 0.895,68.64 1.789,137.28 2.684,205.92 0.025,2.034 3.187,2.04 3.16,10e-4 z"
   id="path128" />

					</g>

				</g>

			</g>

			<g
   id="g144">
				<g
   id="g132">
					<path
   style="fill:#f3cc30"
   d="m 158.932,863.577 c 0,0 63.791,-0.944 70.39,-0.944 6.599,0 39.591,0.249 46.965,0.472 7.374,0.223 33.51,0.472 33.51,0.472 l 18.631,0.724 1.909,-0.395 c 0,0 -3.462,4.568 -3.979,7.21 -0.518,2.642 -0.647,6.537 0.906,8.066 1.553,1.53 3.074,3.755 3.074,3.755 l -6.419,2.556 c 0,0 1.146,3.841 2.569,5.371 1.423,1.53 5.434,4.311 5.434,4.311 0,0 -5.563,2.781 -5.952,3.755 -0.388,0.974 2.976,7.788 2.976,7.788 l 2.329,4.033 c 0,0 -33.898,0.278 -49.294,0 -15.396,-0.278 -72.712,-0.139 -77.37,-0.556 -4.658,-0.417 -33.768,0.278 -36.227,0 -2.458,-0.278 -10.609,0.68 -10.609,0.68 l 3.493,-6.104 -4.14,-3.894 5.693,-3.616 -8.539,-5.563 c 0,0 7.303,-6.788 8.151,-7.232 0.848,-0.444 -6.857,-9.875 -6.857,-9.875 l 8.151,-4.868 1.078,-1.735 z"
   id="path131" />

				</g>

				<g
   id="g133">
					<path
   style="fill:#4c4c4d"
   d="m 328.323,898.532 c 1.358,-0.764 2.723,-1.515 4.084,-2.273 0.685,-0.381 0.671,-1.364 0.071,-1.815 -2.749,-2.07 -4.997,-4.641 -6.741,-7.669 1.653,-1.073 3.305,-2.147 4.957,-3.221 0.574,-0.373 0.665,-1.07 0.263,-1.624 -1.562,-2.151 -4.71,-6.115 -4.307,-8.979 0.211,-1.501 1.179,-3.089 1.778,-4.461 0.661,-1.513 1.354,-3.023 1.909,-4.583 0.178,-0.5 -0.433,-0.827 -0.779,-0.527 -0.041,0.035 -0.071,0.069 -0.106,0.104 -0.132,-0.083 -0.29,-0.139 -0.482,-0.146 -44.155,-1.644 -88.41,-1.939 -132.583,-1.277 -12.353,0.185 -24.774,0.136 -37.105,0.947 -0.307,0.02 -0.433,0.343 -0.35,0.571 -0.279,0.056 -0.522,0.413 -0.343,0.698 1.11,1.761 2.564,3.074 4.033,4.437 -2.62,1.66 -5.316,3.12 -8.167,4.319 -0.659,0.277 -0.645,1.205 -0.275,1.696 1.144,1.518 2.288,3.035 3.433,4.553 0.49,0.65 0.981,1.301 1.471,1.951 0.511,0.678 1.554,1.599 1.63,2.507 0.321,0.505 0.178,0.855 -0.431,1.051 -0.393,0.33 -0.787,0.661 -1.18,0.991 -0.59,0.496 -1.18,0.991 -1.77,1.487 -1.377,1.156 -2.753,2.313 -4.13,3.469 -0.536,0.451 -0.387,1.378 0.143,1.744 2.464,1.698 4.927,3.397 7.391,5.095 -1.568,0.789 -3.136,1.579 -4.704,2.368 -0.576,0.29 -0.773,1.261 -0.281,1.738 1.336,1.295 2.779,2.305 4.398,3.066 -0.326,0.614 -0.652,1.228 -0.977,1.841 -0.011,0.013 -0.023,0.022 -0.034,0.036 -0.5,0.642 -0.91,1.371 -1.386,2.036 -0.347,0.485 -0.827,0.95 -1.109,1.497 -0.483,0.302 -0.377,1.275 0.322,1.29 0.212,0.004 0.423,0.009 0.635,0.013 0.083,0.051 0.175,0.092 0.288,0.105 0.029,0.003 0.049,0.002 0.076,0.004 0.063,0.029 0.134,0.047 0.212,0.05 5.714,0.187 11.489,-0.184 17.205,-0.345 4.08,-0.115 8.161,-0.188 12.242,-0.235 30.428,1.097 60.881,1.522 91.325,1.518 4.406,0.078 8.812,0.144 13.219,0.179 12.54,0.1 25.081,-0.014 37.613,-0.501 0.165,-0.006 0.311,-0.047 0.438,-0.111 0.268,-0.005 0.536,-0.008 0.803,-0.013 0.208,-0.004 0.381,-0.065 0.528,-0.158 0.64,-0.042 1.223,-0.68 0.806,-1.452 -1.428,-2.645 -2.917,-5.243 -4.252,-7.945 -0.301,-0.608 -0.87,-1.376 -0.982,-2.033 -0.211,-1.222 0.326,-1.501 1.201,-1.993 z m -3.378,1.837 c 0.375,1.79 1.592,3.595 2.412,5.186 0.76,1.474 1.534,2.949 2.363,4.385 -18.52,0.253 -37.037,0.354 -55.554,0.336 -26.241,-0.535 -52.482,-1.582 -78.727,-1.484 -6.268,0.023 -12.535,0.129 -18.799,0.319 -0.23,0.007 -0.462,0.014 -0.692,0.021 -5.172,-0.114 -10.344,-0.23 -15.517,-0.344 0.705,-1.331 1.41,-2.663 2.116,-3.994 0.338,-0.638 0.104,-1.416 -0.566,-1.667 -1.289,-0.483 -2.443,-1.118 -3.51,-1.943 1.635,-0.825 3.269,-1.649 4.904,-2.474 0.723,-0.365 0.715,-1.476 0.075,-1.916 -2.584,-1.778 -5.168,-3.555 -7.751,-5.333 1.41,-1.187 2.82,-2.373 4.23,-3.56 1.115,-0.938 3.358,-2.125 3.355,-3.877 -0.003,-1.636 -2.039,-3.444 -2.915,-4.601 -1.259,-1.661 -2.517,-3.322 -3.776,-4.983 2.846,-1.283 5.579,-2.806 8.144,-4.646 0.533,-0.382 0.816,-1.426 0.071,-1.804 -2.032,-1.031 -3.669,-2.694 -5.399,-4.187 10.979,0.287 21.992,-0.058 32.974,-0.094 11.046,-0.036 22.093,-0.04 33.14,0.001 22.096,0.082 44.193,0.342 66.286,0.799 12.186,0.252 24.368,0.636 36.552,0.951 -0.666,1.232 -1.294,2.491 -1.938,3.732 -0.755,1.454 -1.934,3.128 -1.778,4.867 0.132,1.468 0.989,2.901 1.652,4.159 0.754,1.43 1.605,2.794 2.514,4.116 -1.63,1.052 -3.26,2.104 -4.889,3.158 -0.449,0.29 -0.688,0.898 -0.412,1.42 1.692,3.195 3.896,5.946 6.566,8.226 -1.355,0.694 -2.752,1.386 -3.948,2.28 -0.992,0.738 -1.454,1.66 -1.183,2.951 z"
   id="path132" />

				</g>

				<g
   id="g134">
					<path
   style="fill:#de98a9"
   d="m 190.031,870.87 c -0.724,-0.944 -1.45,-0.932 -2.106,-0.502 -0.943,0.415 -1.843,1.659 -2.371,2.62 -0.906,-0.937 -1.735,-2.418 -3.122,-2.094 -1.269,0.297 -1.454,1.794 -1.127,2.936 0.873,3.051 3.451,5.14 6.269,5.781 0.152,0.123 0.373,0.168 0.572,0.109 0.052,0.008 0.103,0.02 0.155,0.027 0.279,0.038 0.448,-0.116 0.516,-0.327 0.038,-0.056 0.07,-0.121 0.091,-0.199 0.487,-1.809 1.068,-3.622 1.463,-5.457 0.212,-0.977 0.294,-2.068 -0.34,-2.894 z"
   id="path133" />

				</g>

				<g
   id="g135">
					<path
   style="fill:#de98a9"
   d="m 180.113,893.45 c -0.346,-0.671 -1.02,-1.167 -1.743,-1.017 -0.319,-0.061 -0.654,-0.036 -0.981,0.097 -1.061,0.432 -1.47,1.588 -1.946,2.624 -0.723,-0.923 -1.73,-2.089 -2.732,-1.859 -1.048,0.241 -1.245,1.618 -1.125,2.576 0.395,3.155 3.705,6.358 6.695,6.124 0.13,-0.01 0.231,-0.064 0.316,-0.134 0.148,-0.024 0.289,-0.114 0.387,-0.295 1.126,-2.09 2.33,-5.784 1.129,-8.116 z m -3.695,2.379 v 0 c 0,-0.002 0.001,-0.003 0.002,-0.005 0,0 -10e-4,0.004 -0.002,0.005 z m 0.633,4.724 c 0.018,0.026 0.043,0.045 0.065,0.067 -0.059,-0.015 -0.117,-0.034 -0.175,-0.052 0.037,-10e-4 0.074,-0.005 0.11,-0.015 z"
   id="path134" />

				</g>

				<g
   id="g136">
					<path
   style="fill:#de98a9"
   d="m 211.421,896.669 c -0.17,-0.745 -0.7,-1.413 -1.434,-1.472 -0.293,-0.148 -0.622,-0.219 -0.97,-0.183 -1.13,0.118 -1.806,1.119 -2.518,1.984 -0.473,-1.094 -1.161,-2.504 -2.184,-2.563 -1.07,-0.062 -1.596,1.211 -1.714,2.169 -0.388,3.156 2.027,7.179 4.97,7.795 0.128,0.027 0.239,0.003 0.338,-0.041 0.149,0.019 0.307,-0.028 0.445,-0.176 1.596,-1.698 3.658,-4.924 3.067,-7.513 z m -4.145,1.256 v 0 c 10e-4,-10e-4 0.002,-0.003 0.003,-0.004 -0.001,0.002 -0.002,0.003 -0.003,0.004 z m -0.54,4.738 c 0.011,0.03 0.031,0.055 0.046,0.083 -0.053,-0.031 -0.104,-0.065 -0.156,-0.099 0.036,0.008 0.072,0.015 0.11,0.016 z"
   id="path135" />

				</g>

				<g
   id="g137">
					<path
   style="fill:#de98a9"
   d="m 288.62,877.87 c -0.724,-0.944 -1.45,-0.932 -2.106,-0.502 -0.943,0.415 -1.843,1.659 -2.371,2.62 -0.906,-0.937 -1.735,-2.418 -3.122,-2.094 -1.269,0.297 -1.454,1.794 -1.127,2.936 0.873,3.051 3.451,5.14 6.269,5.781 0.153,0.123 0.373,0.168 0.572,0.109 0.052,0.008 0.103,0.02 0.155,0.027 0.279,0.038 0.448,-0.116 0.516,-0.327 0.038,-0.057 0.07,-0.121 0.091,-0.199 0.487,-1.809 1.068,-3.622 1.463,-5.457 0.211,-0.977 0.293,-2.068 -0.34,-2.894 z"
   id="path136" />

				</g>

				<g
   id="g138">
					<path
   style="fill:#de98a9"
   d="m 314.279,896.669 c -0.17,-0.745 -0.7,-1.413 -1.435,-1.472 -0.293,-0.148 -0.622,-0.219 -0.97,-0.183 -1.13,0.118 -1.806,1.119 -2.518,1.984 -0.473,-1.094 -1.161,-2.504 -2.184,-2.563 -1.07,-0.062 -1.596,1.211 -1.714,2.169 -0.388,3.156 2.027,7.179 4.97,7.795 0.128,0.027 0.239,0.003 0.338,-0.041 0.149,0.019 0.307,-0.028 0.446,-0.176 1.596,-1.698 3.658,-4.924 3.067,-7.513 z m -4.145,1.256 c -0.001,0 -0.001,0 0,0 10e-4,-10e-4 0.002,-0.003 0.003,-0.004 -10e-4,0.002 -0.003,0.003 -0.003,0.004 z m -0.54,4.738 c 0.011,0.03 0.031,0.055 0.046,0.083 -0.053,-0.031 -0.104,-0.065 -0.156,-0.099 0.036,0.008 0.072,0.015 0.11,0.016 z"
   id="path137" />

				</g>

				<g
   id="g139">
					<path
   style="fill:#de98a9"
   d="m 242.166,891.948 c -0.444,-1.126 -1.144,-1.336 -1.886,-1.125 -1.014,0.11 -2.206,1.028 -2.967,1.788 -0.621,-1.175 -1.024,-2.848 -2.439,-2.961 -1.295,-0.103 -1.868,1.276 -1.857,2.47 0.03,3.192 1.949,5.983 4.482,7.459 0.114,0.165 0.313,0.275 0.519,0.28 0.048,0.024 0.094,0.051 0.142,0.073 0.257,0.122 0.461,0.026 0.581,-0.156 0.051,-0.043 0.099,-0.094 0.14,-0.163 0.945,-1.586 1.982,-3.146 2.846,-4.785 0.461,-0.875 0.828,-1.895 0.439,-2.88 z"
   id="path138" />

				</g>

				<g
   id="g140">
					<path
   style="fill:#de98a9"
   d="m 262.734,872.455 c -0.013,-0.767 -0.392,-1.545 -1.096,-1.777 -0.255,-0.214 -0.562,-0.362 -0.909,-0.409 -1.126,-0.153 -1.991,0.662 -2.863,1.337 -0.236,-1.179 -0.617,-2.718 -1.603,-3.018 -1.031,-0.315 -1.805,0.802 -2.117,1.708 -1.027,2.986 0.501,7.483 3.244,8.783 0.12,0.057 0.232,0.06 0.338,0.041 0.141,0.054 0.305,0.045 0.471,-0.066 1.904,-1.278 4.579,-3.934 4.535,-6.599 z m -4.301,0.24 v 0 c 0.001,-0.001 0.002,-0.002 0.004,-0.003 -0.002,10e-4 -0.003,0.002 -0.004,0.003 z m -1.501,4.492 c 0.005,0.032 0.019,0.061 0.028,0.092 -0.045,-0.043 -0.088,-0.088 -0.132,-0.133 0.033,0.016 0.068,0.031 0.104,0.041 z"
   id="path139" />

				</g>

				<g
   id="g141">
					<path
   style="fill:#de98a9"
   d="m 223.541,870.87 c -0.724,-0.944 -1.45,-0.932 -2.106,-0.502 -0.943,0.415 -1.843,1.659 -2.371,2.62 -0.906,-0.937 -1.735,-2.418 -3.122,-2.094 -1.269,0.297 -1.454,1.794 -1.127,2.936 0.873,3.051 3.451,5.14 6.269,5.781 0.152,0.123 0.373,0.168 0.572,0.109 0.052,0.008 0.103,0.02 0.155,0.027 0.279,0.038 0.448,-0.116 0.516,-0.327 0.038,-0.056 0.07,-0.121 0.091,-0.199 0.487,-1.809 1.068,-3.622 1.463,-5.457 0.211,-0.977 0.293,-2.068 -0.34,-2.894 z"
   id="path140" />

				</g>

				<g
   id="g142">
					<path
   style="fill:#de98a9"
   d="m 274.947,899.253 c -0.17,-0.745 -0.7,-1.413 -1.434,-1.472 -0.293,-0.148 -0.622,-0.219 -0.97,-0.183 -1.13,0.118 -1.806,1.119 -2.518,1.984 -0.473,-1.094 -1.161,-2.504 -2.184,-2.563 -1.07,-0.062 -1.596,1.211 -1.714,2.169 -0.388,3.156 2.027,7.179 4.97,7.795 0.128,0.027 0.239,0.003 0.338,-0.041 0.149,0.019 0.307,-0.028 0.445,-0.176 1.596,-1.698 3.658,-4.924 3.067,-7.513 z m -4.145,1.257 v 0 c 10e-4,-10e-4 0.002,-0.003 0.003,-0.004 -0.001,10e-4 -0.002,0.002 -0.003,0.004 z m -0.54,4.737 c 0.011,0.03 0.031,0.055 0.046,0.083 -0.053,-0.031 -0.104,-0.065 -0.156,-0.099 0.036,0.008 0.072,0.015 0.11,0.016 z"
   id="path141" />

				</g>

				<g
   id="g143">
					<path
   style="fill:#de98a9"
   d="m 317.63,870.346 c -0.405,-0.632 -1.12,-1.055 -1.826,-0.831 -0.323,-0.027 -0.654,0.032 -0.968,0.198 -1.018,0.54 -1.32,1.734 -1.701,2.814 -0.802,-0.843 -1.91,-1.9 -2.886,-1.566 -1.021,0.349 -1.094,1.74 -0.888,2.681 0.677,3.099 4.26,5.943 7.215,5.399 0.129,-0.024 0.224,-0.088 0.303,-0.167 0.145,-0.039 0.277,-0.143 0.359,-0.334 0.931,-2.196 1.798,-5.998 0.392,-8.194 z m -3.463,2.752 v 0 c 0,-0.002 0.001,-0.003 0.001,-0.003 z m 1.055,4.636 c 0.02,0.024 0.047,0.04 0.07,0.06 -0.06,-0.009 -0.119,-0.021 -0.178,-0.033 0.037,-0.006 0.073,-0.014 0.108,-0.027 z"
   id="path142" />

				</g>

			</g>

		</g>
  </g>
</svg>
