<?xml version="1.0" encoding="UTF-8" standalone="no"?>
<!-- Created with Inkscape (http://www.inkscape.org/) -->

<svg
   width="72.014458mm"
   height="75.948296mm"
   viewBox="0 0 72.014458 75.948296"
   version="1.1"
   id="svg1"
   inkscape:version="1.3.2 (091e20e, 2023-11-25, custom)"
   sodipodi:docname="wow#8.svg"
   xmlns:inkscape="http://www.inkscape.org/namespaces/inkscape"
   xmlns:sodipodi="http://sodipodi.sourceforge.net/DTD/sodipodi-0.dtd"
   xmlns="http://www.w3.org/2000/svg"
   xmlns:svg="http://www.w3.org/2000/svg">
  <sodipodi:namedview
     id="namedview1"
     pagecolor="#ffffff"
     bordercolor="#000000"
     borderopacity="0.25"
     inkscape:showpageshadow="2"
     inkscape:pageopacity="0.0"
     inkscape:pagecheckerboard="0"
     inkscape:deskcolor="#d1d1d1"
     inkscape:document-units="mm"
     inkscape:zoom="0.76702441"
     inkscape:cx="395.68493"
     inkscape:cy="558.65236"
     inkscape:window-width="3840"
     inkscape:window-height="1057"
     inkscape:window-x="-8"
     inkscape:window-y="-8"
     inkscape:window-maximized="1"
     inkscape:current-layer="layer1" />
  <defs
     id="defs1" />
  <g
     inkscape:label="Layer 1"
     inkscape:groupmode="layer"
     id="layer1"
     transform="translate(-0.3881465,-0.58099247)">
    <g
       id="g73"
       transform="matrix(0.26458333,0,0,0.26458333,-122.35478,-220.29793)">
			<g
   id="g59">
				<g
   id="g53">
					<g
   id="g52">
						<path
   style="fill:#d8d2e7"
   d="m 734.118,1004.459 c -0.855,36.287 -2.494,72.568 -1.705,108.872 -44.65,1.912 -89.3,3.824 -133.951,5.735 -22.427,0.96 -44.865,2.143 -67.316,2.332 -11.166,0.094 -22.338,-0.069 -33.489,-0.69 -5.169,-0.288 -10.332,-0.673 -15.486,-1.173 -2.775,-0.269 -5.547,-0.568 -8.314,-0.909 -2.117,-0.26 -5.8,-0.076 -8.422,-0.944 4.55,-81.436 6.086,-163.019 4.608,-244.568 64.958,-8.517 130.501,-12.322 196.01,-11.205 16.43,0.28 32.854,0.865 49.262,1.757 5.229,0.284 9.516,-0.374 11.361,5.553 1.139,3.659 1.408,7.91 1.993,11.676 1.365,8.791 2.437,17.625 3.273,26.483 3.042,32.262 2.939,64.716 2.176,97.081 z"
   id="path51" />

					</g>

				</g>

				<g
   id="g54">
					<path
   style="fill:#fffdf0"
   d="m 704.658,1027.729 c -1.582,-18.43 -2.957,-41.975 -2.678,-60.199 0.133,-8.67 0.496,-20.279 0.177,-28.944 -0.361,-9.799 -1.633,-16.587 -3.046,-26.29 -1.185,-8.136 -2.37,-16.271 -3.555,-24.407 -52.095,-1.354 -104.214,0.565 -156.291,2.483 -14.738,0.543 -29.477,1.086 -44.215,1.629 -0.328,44.564 0.338,89.134 1.995,133.669 l -0.411,1.002 c -0.318,2.903 -0.15,5.86 0.497,8.708 11.765,2.43 23.702,4.025 35.692,4.767 26.774,1.659 55.468,3.64 82.169,1.055 30.262,-2.929 60.124,-0.861 89.675,-7.717 0.804,-0.188 0.062,-4.931 -0.009,-5.756 z"
   id="path53" />

				</g>

				<g
   id="g56">
					<g
   id="g55">
						<path
   style="fill:#4c4c4d"
   d="m 732.594,1003.375 c -0.869,36.286 -2.45,72.569 -1.705,108.872 0.508,-0.508 1.016,-1.016 1.524,-1.524 -35.129,1.504 -70.258,3.008 -105.388,4.512 -34.88,1.493 -69.824,3.748 -104.747,3.571 -9.829,-0.05 -19.658,-0.34 -29.465,-1.006 -4.664,-0.317 -9.322,-0.716 -13.97,-1.211 -4.256,-0.453 -8.865,-0.406 -13.003,-1.46 0.373,0.49 0.746,0.98 1.119,1.469 4.525,-81.435 6.061,-163.02 4.608,-244.568 -0.508,0.508 -1.016,1.016 -1.524,1.524 50.992,-6.648 102.338,-10.468 153.759,-11.245 25.584,-0.387 51.179,-0.026 76.743,1.077 5.766,0.249 11.539,0.484 17.301,0.818 3.475,0.202 5.901,0.577 7.362,4.336 1.163,2.99 1.271,6.483 1.703,9.631 1.738,12.654 3.385,25.261 4.343,38.005 2.18,29.012 2.013,58.132 1.34,87.199 -0.045,1.962 3.003,1.961 3.048,0 0.642,-27.746 0.83,-55.538 -1.058,-83.243 -0.864,-12.677 -2.156,-25.327 -4.018,-37.898 -1.096,-7.404 -0.399,-19.498 -9.986,-20.873 -11.974,-1.716 -24.701,-1.271 -36.785,-1.639 -13.771,-0.419 -27.548,-0.624 -41.325,-0.611 -26.855,0.025 -53.708,0.875 -80.512,2.531 -30.73,1.898 -61.385,4.884 -91.914,8.865 -0.806,0.105 -1.54,0.613 -1.524,1.524 1.454,81.548 -0.082,163.132 -4.608,244.568 -0.036,0.652 0.498,1.311 1.119,1.469 6.326,1.612 13.545,1.599 20.041,2.175 8.771,0.779 17.568,1.234 26.369,1.453 17.791,0.444 35.595,-0.041 53.373,-0.735 35.516,-1.388 71.023,-3.056 106.534,-4.576 20.355,-0.872 40.711,-1.743 61.066,-2.615 0.81,-0.035 1.542,-0.67 1.524,-1.524 -0.746,-36.303 0.836,-72.586 1.705,-108.872 0.046,-1.961 -3.002,-1.96 -3.049,10e-4 z"
   id="path54" />

					</g>

				</g>

				<g
   id="g58">
					<g
   id="g57">
						<path
   style="fill:#4c4c4d"
   d="M 498.567,1025.669 C 496.925,981.133 496.26,936.566 496.572,892 c -0.508,0.508 -1.016,1.016 -1.524,1.524 66.787,-2.46 133.659,-5.796 200.507,-4.112 -0.49,-0.373 -0.98,-0.746 -1.47,-1.119 1.771,12.159 3.705,24.306 5.33,36.485 1.441,10.799 1.425,21.613 1.232,32.484 -0.382,21.44 0.3,42.765 1.97,64.147 0.171,2.186 0.328,4.375 0.544,6.557 0.07,0.701 0.743,3.18 0.351,3.832 -0.888,1.474 -7.209,1.862 -8.694,2.118 -3.635,0.629 -7.29,1.14 -10.954,1.57 -12.012,1.409 -24.113,1.855 -36.189,2.316 -24.311,0.927 -48.44,3.586 -72.797,2.964 -13.424,-0.343 -26.829,-1.188 -40.228,-2.029 -7.419,-0.466 -14.812,-1.137 -22.172,-2.203 -3.129,-0.453 -6.249,-0.967 -9.358,-1.536 -2.09,-0.382 -3.18,-0.181 -4.369,-1.895 -1.252,-1.804 -0.751,-4.367 -0.594,-6.432 0.149,-1.956 -2.9,-1.947 -3.048,0 -0.236,3.107 -0.035,6.059 0.552,9.114 0.093,0.483 0.585,0.967 1.064,1.064 24.717,5.01 50.163,6.115 75.319,6.886 25.32,0.776 50.362,-1.921 75.631,-2.885 13.033,-0.497 26.085,-1.003 39.032,-2.665 5.514,-0.707 11.063,-1.526 16.477,-2.805 3.483,-0.823 3.529,-2.071 3.245,-5.517 -1.749,-21.228 -3.253,-42.485 -2.9,-63.804 0.211,-12.718 0.798,-25.498 -0.669,-38.166 -1.564,-13.506 -3.875,-26.956 -5.835,-40.41 -0.096,-0.663 -0.86,-1.103 -1.469,-1.119 -66.847,-1.684 -133.719,1.652 -200.507,4.112 -0.828,0.031 -1.518,0.674 -1.524,1.524 -0.313,44.566 0.352,89.132 1.995,133.669 0.071,1.955 3.12,1.965 3.047,0 z"
   id="path56" />

					</g>

				</g>

			</g>

			<g
   id="g72">
				<g
   id="g60">
					<path
   style="fill:#f3cc30"
   d="m 506.28,927.471 0.573,-52.52 -0.286,-26.713 c 0,0 -0.143,-9.055 -0.286,-9.961 -0.143,-0.906 2.147,-1.66 2.147,-1.66 h 25.336 21.901 c 0,0 0.859,14.941 1.002,17.054 0.143,2.113 -1.145,34.258 -1.145,34.258 l -2.72,33.957 -1.145,5.584 c 0,0 -13.455,-17.054 -17.606,-22.94 -4.151,-5.886 -4.151,-5.886 -4.151,-5.886 0,0 -7.719,10.112 -9.084,11.621 -1.365,1.509 -13.247,17.658 -14.536,17.206 z"
   id="path59" />

				</g>

				<g
   id="g70">
					<g
   id="g61">
						<path
   style="fill:none"
   d="m 556.666,853.671 c -0.052,-0.771 -0.2,-3.251 -0.366,-6.088 -16.494,8.066 -32.987,16.133 -49.481,24.199 l 0.034,3.168 -0.063,5.77 c 16.629,-8.895 33.257,-17.79 49.886,-26.685 -0.001,-0.159 -0.004,-0.285 -0.01,-0.364 z"
   id="path60" />

					</g>

					<g
   id="g62">
						<path
   style="fill:none"
   d="m 506.751,884.29 -0.471,43.181 c 1.288,0.453 13.169,-15.695 14.534,-17.205 1.365,-1.509 9.084,-11.621 9.084,-11.621 0,0 0,0 4.151,5.886 4.151,5.886 17.606,22.94 17.606,22.94 l 1.145,-5.584 2.72,-33.957 c 0,0 0.85,-21.221 1.093,-30.312 -16.62,8.89 -33.241,17.781 -49.862,26.672 z"
   id="path61" />

					</g>

					<g
   id="g63">
						<path
   style="fill:none"
   d="m 539.257,836.618 c -10.958,4.335 -21.85,8.855 -32.669,13.563 l 0.092,8.567 c 14.531,-7.593 29.162,-14.972 43.89,-22.13 z"
   id="path62" />

					</g>

					<g
   id="g64">
						<path
   style="fill:none"
   d="m 508.428,836.618 c 0,0 -2.29,0.754 -2.147,1.66 0.107,0.678 0.214,5.929 0.261,8.522 8.051,-3.496 16.142,-6.892 24.271,-10.182 z"
   id="path63" />

					</g>

					<g
   id="g65">
						<path
   style="fill:none"
   d="m 555.721,837.595 c -16.456,7.95 -32.793,16.17 -49.004,24.661 l 0.065,6.065 c 16.44,-8.04 32.881,-16.081 49.321,-24.121 -0.157,-2.701 -0.305,-5.261 -0.382,-6.605 z"
   id="path64" />

					</g>

					<g
   id="g66">
						<path
   style="fill:#f8de65"
   d="m 533.764,836.618 h -2.951 c -8.129,3.29 -16.219,6.685 -24.271,10.182 0.016,0.869 0.025,1.439 0.025,1.439 l 0.021,1.943 c 10.819,-4.708 21.711,-9.229 32.669,-13.563 h -5.493 z"
   id="path65" />

					</g>

					<g
   id="g67">
						<path
   style="fill:#f8de65"
   d="m 555.664,836.618 h -5.095 c -14.728,7.159 -29.359,14.537 -43.89,22.13 l 0.038,3.509 c 16.21,-8.491 32.548,-16.712 49.004,-24.661 -0.036,-0.617 -0.057,-0.978 -0.057,-0.978 z"
   id="path66" />

					</g>

					<g
   id="g68">
						<path
   style="fill:#f8de65"
   d="m 556.103,844.201 c -16.44,8.04 -32.88,16.081 -49.321,24.121 l 0.037,3.46 c 16.494,-8.067 32.987,-16.133 49.481,-24.199 -0.064,-1.1 -0.131,-2.252 -0.197,-3.382 z"
   id="path67" />

					</g>

					<g
   id="g69">
						<path
   style="fill:#f8de65"
   d="m 556.676,854.036 c -16.629,8.895 -33.257,17.79 -49.886,26.685 l -0.039,3.569 c 16.621,-8.891 33.242,-17.781 49.863,-26.672 0.045,-1.68 0.068,-2.941 0.062,-3.582 z"
   id="path68" />

					</g>

				</g>

				<g
   id="g71">
					<path
   style="fill:#4c4c4d"
   d="m 552.737,925.496 c 3.009,-29.479 4.559,-59.117 4.624,-88.778 0.002,-0.681 -0.526,-1.23 -1.145,-1.242 -9.081,-0.182 -18.161,-0.364 -27.242,-0.545 -4.664,-0.093 -9.332,-0.207 -13.994,0.017 -2.101,0.101 -4.199,0.269 -6.287,0.539 -1.243,0.161 -2.695,0.144 -3.448,1.398 -0.741,1.233 -0.405,3.084 -0.389,4.46 0.031,2.649 0.06,5.298 0.085,7.946 0.047,4.967 0.084,9.933 0.109,14.9 0.052,10.099 0.06,20.199 0.023,30.298 -0.041,11.258 -0.14,22.516 -0.291,33.773 -0.007,0.492 0.206,0.831 0.503,1.02 0.35,0.644 1.159,0.988 1.748,0.275 7.77,-9.424 15.244,-19.126 22.419,-29.088 6.313,9.962 13.284,19.405 20.887,28.246 0.484,0.563 1.468,0.449 1.798,-0.251 0.057,-0.121 0.109,-0.239 0.158,-0.356 0.058,0.004 0.116,0.008 0.173,0.012 0.024,-0.232 0.047,-0.464 0.071,-0.696 0.181,-0.609 0.249,-1.222 0.198,-1.928 z M 530.502,897.76 c -0.365,-0.586 -1.313,-0.929 -1.798,-0.252 -6.919,9.661 -14.125,19.072 -21.602,28.229 0.224,-17.699 0.32,-35.4 0.272,-53.101 -0.025,-9.271 -0.088,-18.543 -0.188,-27.814 -0.013,-1.159 -0.026,-2.318 -0.039,-3.477 -0.017,-1.429 -0.458,-2.69 1.1,-3.316 1.796,-0.721 4.378,-0.475 6.284,-0.576 4.208,-0.224 8.423,-0.155 12.634,-0.074 9.3,0.179 18.6,0.372 27.9,0.558 -0.103,28.971 -1.619,57.919 -4.531,86.716 -0.065,0.138 -0.104,0.301 -0.103,0.492 -7.246,-8.597 -13.907,-17.734 -19.929,-27.385 z"
   id="path70" />

				</g>

			</g>

		</g>
  </g>
</svg>
