<?xml version="1.0" encoding="UTF-8" standalone="no"?>
<!-- Created with Inkscape (http://www.inkscape.org/) -->

<svg
   width="92.470634mm"
   height="76.167587mm"
   viewBox="0 0 92.470634 76.167587"
   version="1.1"
   id="svg1"
   inkscape:version="1.3.2 (091e20e, 2023-11-25, custom)"
   sodipodi:docname="wow#9.svg"
   xmlns:inkscape="http://www.inkscape.org/namespaces/inkscape"
   xmlns:sodipodi="http://sodipodi.sourceforge.net/DTD/sodipodi-0.dtd"
   xmlns="http://www.w3.org/2000/svg"
   xmlns:svg="http://www.w3.org/2000/svg">
  <sodipodi:namedview
     id="namedview1"
     pagecolor="#ffffff"
     bordercolor="#000000"
     borderopacity="0.25"
     inkscape:showpageshadow="2"
     inkscape:pageopacity="0.0"
     inkscape:pagecheckerboard="0"
     inkscape:deskcolor="#d1d1d1"
     inkscape:document-units="mm"
     inkscape:zoom="0.76702441"
     inkscape:cx="396.98867"
     inkscape:cy="559.9561"
     inkscape:window-width="3840"
     inkscape:window-height="1057"
     inkscape:window-x="-8"
     inkscape:window-y="-8"
     inkscape:window-maximized="1"
     inkscape:current-layer="layer1" />
  <defs
     id="defs1" />
  <g
     inkscape:label="Layer 1"
     inkscape:groupmode="layer"
     id="layer1"
     transform="translate(-0.0295952,-0.37574548)">
    <g
       id="g195"
       transform="matrix(0.26458333,0,0,0.26458333,-212.84819,-220.15777)">
			<g
   id="g181">
				<g
   id="g176">
					<path
   style="fill:#f3dbdb"
   d="m 811.031,867.609 c 2.22,-0.169 87.931,-0.236 104.031,-2.527 16.101,-2.29 88.837,-5.171 98.258,-4.969 9.421,0.201 72.215,0.95 78.027,1.327 5.812,0.377 39.991,3.021 39.991,3.021 l 1.84,5.094 11.438,2.8 c 0,0 4.494,148.992 4.937,162.876 0.443,13.885 1.472,63.608 1.472,63.608 l 1.343,13.228 c 0,0 -126.284,-0.01 -144.048,2.44 -17.764,2.449 -113.844,0.213 -121.037,3.057 -7.193,2.843 -72.138,2.132 -72.138,2.132 l 4.439,-14.026 c 0,0 -12.343,7.271 -12.199,-5.393 0.144,-12.664 3.646,-232.668 3.646,-232.668 z"
   id="path175" />

				</g>

				<g
   id="g178">
					<g
   id="g177">
						<path
   style="fill:#4c4c4d"
   d="m 808.305,1107.558 c -0.96,-79.997 0.141,-160.01 3.3,-239.95 -0.565,0.565 -1.13,1.13 -1.695,1.695 38.17,-1.296 76.36,-2.225 114.49,-4.474 35.917,-2.119 71.698,-3.931 107.686,-2.464 15.383,0.627 30.581,0.724 45.974,0.591 7.685,-0.066 15.294,0.325 22.955,0.928 4.301,0.339 8.6,0.713 12.9,1.07 2.142,0.178 4.284,0.354 6.426,0.521 1.853,0.144 6.445,-0.302 8.11,0.574 2.964,1.559 2.538,8.706 2.56,11.175 0.043,4.756 0.098,9.512 0.163,14.268 0.124,9.087 0.282,18.173 0.464,27.259 0.373,18.596 0.842,37.189 1.326,55.782 1.084,41.694 2.27,83.389 2.584,125.098 0.565,-0.565 1.13,-1.13 1.695,-1.695 -85.884,4.148 -171.899,2.867 -257.829,5.306 -23.973,0.68 -47.937,1.665 -71.876,3.126 -2.168,0.132 -2.183,3.523 0,3.39 85.832,-5.239 171.859,-4.194 257.792,-6.02 23.98,-0.51 47.955,-1.255 71.912,-2.411 0.91,-0.044 1.702,-0.741 1.695,-1.695 -0.29,-38.583 -1.33,-77.155 -2.339,-115.725 -0.504,-19.264 -1.006,-38.528 -1.418,-57.795 -0.392,-18.377 -0.088,-36.934 -1.089,-55.235 -0.307,-5.607 -0.322,-7.877 -6.532,-8.274 -9.468,-0.606 -18.912,-1.53 -28.371,-2.25 -15.4,-1.173 -30.708,-0.353 -46.126,-0.487 -17.984,-0.156 -35.927,-1.577 -53.932,-1.532 -18.245,0.046 -36.477,0.807 -54.689,1.873 -44.831,2.623 -89.654,4.183 -134.533,5.707 -0.943,0.032 -1.658,0.752 -1.695,1.695 -3.16,79.94 -4.26,159.953 -3.3,239.95 0.028,2.179 3.418,2.185 3.392,-10e-4 z"
   id="path176" />

					</g>

				</g>

				<g
   id="g180">
					<g
   id="g179">
						<path
   style="fill:#4c4c4d"
   d="m 815.452,1108.362 c -0.647,3.627 -1.294,7.255 -1.941,10.882 -0.19,1.066 0.452,2.148 1.634,2.146 45.774,-0.081 91.436,-3.579 137.174,-4.919 22.987,-0.674 45.964,0.187 68.941,-0.355 22.731,-0.535 45.399,-2.549 68.154,-2.92 12.841,-0.209 25.685,-0.202 38.527,0 5.319,0.081 10.692,-0.01 15.992,0.46 2.76,0.244 6.206,1.03 8.887,0.051 0.632,-0.231 1.34,-0.87 1.244,-1.635 -1.342,-10.74 -1.473,-21.363 -1.687,-32.185 -0.328,-16.567 -0.727,-33.133 -1.172,-49.698 -0.897,-33.373 -1.984,-66.74 -3.066,-100.107 -0.624,-19.241 -1.244,-38.482 -1.828,-57.724 -0.021,-0.679 -0.507,-1.514 -1.245,-1.635 -3.164,-0.515 -6.327,-1.031 -9.491,-1.546 -2.134,-0.348 -3.053,2.919 -0.901,3.269 3.164,0.516 6.327,1.031 9.491,1.546 -0.415,-0.545 -0.83,-1.09 -1.245,-1.635 2.029,66.85 4.521,133.688 5.923,200.556 0.275,13.115 0.201,26.131 1.829,39.157 0.415,-0.545 0.83,-1.09 1.245,-1.635 -2.468,0.902 -5.875,-0.01 -8.429,-0.214 -4.827,-0.393 -9.717,-0.324 -14.558,-0.402 -11.198,-0.179 -22.399,-0.217 -33.598,-0.092 -22.771,0.254 -45.417,1.801 -68.152,2.804 -22.632,0.999 -45.342,-0.178 -67.996,0.369 -22.534,0.543 -45.047,1.694 -67.561,2.765 -25.479,1.212 -50.968,2.292 -76.48,2.337 0.545,0.715 1.09,1.43 1.635,2.146 0.647,-3.627 1.294,-7.255 1.941,-10.882 0.383,-2.131 -2.884,-3.046 -3.267,-0.899 z"
   id="path178" />

					</g>

				</g>

			</g>

			<g
   id="g193">
				<g
   id="g182">
					<path
   style="fill:#de98a9"
   d="m 1047.594,893.893 c 0.01,-0.737 -0.803,-1.283 -1.45,-1.211 -0.776,0.086 -1.161,0.763 -1.169,1.503 -0.011,0.973 -0.134,1.942 -0.315,2.895 -0.327,1.724 2.272,2.162 2.599,0.44 0.227,-1.202 0.321,-2.403 0.335,-3.627 z"
   id="path181" />

				</g>

				<g
   id="g183">
					<path
   style="fill:#de98a9"
   d="m 1074.673,898.291 c 10e-4,-0.737 -0.798,-1.283 -1.45,-1.211 -0.77,0.085 -1.168,0.763 -1.169,1.503 -10e-4,1.037 -0.147,2.064 -0.374,3.073 -0.162,0.718 0.418,1.453 1.087,1.566 0.743,0.126 1.35,-0.406 1.512,-1.126 0.283,-1.257 0.392,-2.516 0.394,-3.805 z"
   id="path182" />

				</g>

				<g
   id="g184">
					<path
   style="fill:#4c4c4d"
   d="m 1047.594,893.893 c 0.01,-0.737 -0.803,-1.283 -1.45,-1.211 -0.776,0.086 -1.161,0.763 -1.169,1.503 -0.011,0.973 -0.134,1.942 -0.315,2.895 -0.327,1.724 2.272,2.162 2.599,0.44 0.227,-1.202 0.321,-2.403 0.335,-3.627 z"
   id="path183" />

				</g>

				<g
   id="g185">
					<path
   style="fill:#4c4c4d"
   d="m 1074.673,898.291 c 10e-4,-0.737 -0.798,-1.283 -1.45,-1.211 -0.77,0.085 -1.168,0.763 -1.169,1.503 -10e-4,1.037 -0.147,2.064 -0.374,3.073 -0.162,0.718 0.418,1.453 1.087,1.566 0.743,0.126 1.35,-0.406 1.512,-1.126 0.283,-1.257 0.392,-2.516 0.394,-3.805 z"
   id="path184" />

				</g>

				<g
   id="g186">
					<path
   style="fill:#4c4c4d"
   d="m 1047.594,893.893 c 0.01,-0.737 -0.803,-1.283 -1.45,-1.211 -0.776,0.086 -1.161,0.763 -1.169,1.503 -0.011,0.973 -0.134,1.942 -0.315,2.895 -0.327,1.724 2.272,2.162 2.599,0.44 0.227,-1.202 0.321,-2.403 0.335,-3.627 z"
   id="path185" />

				</g>

				<g
   id="g187">
					<path
   style="fill:#4c4c4d"
   d="m 1074.673,898.291 c 10e-4,-0.737 -0.798,-1.283 -1.45,-1.211 -0.77,0.085 -1.168,0.763 -1.169,1.503 -10e-4,1.037 -0.147,2.064 -0.374,3.073 -0.162,0.718 0.418,1.453 1.087,1.566 0.743,0.126 1.35,-0.406 1.512,-1.126 0.283,-1.257 0.392,-2.516 0.394,-3.805 z"
   id="path186" />

				</g>

				<g
   id="g188">
					<path
   style="fill:#f3cc30"
   d="m 1044.179,875.128 c 0,0 9.445,-4.897 22.01,-1.664 12.565,3.234 18.631,12.141 21.826,16.414 3.195,4.273 5.302,13.754 5.68,17.274 0.379,3.52 -2.419,16.179 -6.305,19.668 -3.886,3.489 -15.314,18.418 -29.674,15.571 -14.36,-2.847 -22.746,-5.511 -27.754,-15.206 -5.008,-9.695 -7.465,-17.8 -6.418,-23.593 1.047,-5.793 4.181,-14.662 8.584,-18.893 4.405,-4.231 9.301,-8.476 12.051,-9.571 z"
   id="path187" />

				</g>

				<g
   id="g189">
					<path
   style="fill:#4c4c4d"
   d="m 1047.594,893.893 c 0.01,-0.737 -0.803,-1.283 -1.45,-1.211 -0.776,0.086 -1.161,0.763 -1.169,1.503 -0.011,0.973 -0.134,1.942 -0.315,2.895 -0.327,1.724 2.272,2.162 2.599,0.44 0.227,-1.202 0.321,-2.403 0.335,-3.627 z"
   id="path188" />

				</g>

				<g
   id="g190">
					<path
   style="fill:#4c4c4d"
   d="m 1074.673,898.291 c 10e-4,-0.737 -0.798,-1.283 -1.45,-1.211 -0.77,0.085 -1.168,0.763 -1.169,1.503 -10e-4,1.037 -0.147,2.064 -0.374,3.073 -0.162,0.718 0.418,1.453 1.087,1.566 0.743,0.126 1.35,-0.406 1.512,-1.126 0.283,-1.257 0.392,-2.516 0.394,-3.805 z"
   id="path189" />

				</g>

				<g
   id="g191">
					<path
   style="fill:#4c4c4d"
   d="m 1077.125,914.092 c -4.183,7.094 -12.498,11.152 -20.451,10.048 -8.166,-1.134 -14.998,-7.275 -17.968,-15.11 -0.619,-1.633 -3.08,-0.661 -2.458,0.979 3.384,8.925 11.383,15.966 20.752,16.914 8.997,0.91 17.828,-3.737 22.519,-11.69 0.882,-1.499 -1.52,-2.622 -2.394,-1.141 z"
   id="path190" />

				</g>

				<g
   id="g192">
					<path
   style="fill:#4c4c4d"
   d="m 1090.004,889.734 c -7.319,-12.759 -22.088,-20.208 -36.293,-18.626 -14.186,1.58 -26.188,12.624 -30.248,26.527 0.1,-0.022 0.202,-0.035 0.303,-0.044 -2.542,10.149 -0.869,20.891 4.742,29.616 -0.047,0.061 -0.089,0.127 -0.138,0.188 0.453,0.563 0.925,1.116 1.408,1.66 0.073,0.1 0.139,0.204 0.213,0.304 0.128,0.171 0.272,0.295 0.425,0.386 3.48,3.766 7.614,7.039 11.74,9.469 13.174,7.761 30.634,4.471 41.552,-5.974 11.566,-11.066 14.356,-29.456 6.296,-43.506 z m -6.626,39.781 c -9.802,10.822 -26.786,14.574 -39.544,7.348 -3.944,-2.234 -8.107,-5.426 -11.542,-9.156 -0.01,-0.014 -0.015,-0.029 -0.026,-0.043 -6.564,-8.762 -8.663,-20.334 -5.378,-30.93 0.071,-0.23 0.087,-0.45 0.065,-0.657 3.771,-10.143 12.107,-18.313 22.405,-21.194 12.917,-3.614 27.599,1.876 35.815,12.68 9.467,12.452 8.69,30.375 -1.795,41.952 z"
   id="path191" />

				</g>

			</g>

			<g
   id="g194">
				<path
   style="fill:#49b0bb"
   d="m 1095.594,851.839 c 2.891,-4.643 6.374,-11.236 10.405,-14.887 5.794,-5.247 14.205,-0.628 17.934,2.494 6.502,5.443 2.719,12.162 -1.316,21.309 -5.66,12.829 -11.522,25.808 -18.817,37.942 -1.849,3.076 -3.524,5.627 -6.644,5.981 -3.57,0.405 -8.513,-1.981 -10.573,-4.581 -5.072,-6.403 5.271,-23.256 9.696,-30.508 0.938,-1.537 2.693,-0.482 1.753,1.058 -3.167,5.189 -5.941,10.533 -8.081,16.151 -1.787,4.691 -3.366,8.539 -0.12,12.489 1.179,1.435 4.689,3.182 6.571,2.655 5.359,-1.5 8.268,-8.732 10.944,-13.78 2.697,-5.088 5.216,-10.253 7.637,-15.454 2.287,-4.913 4.475,-9.861 6.648,-14.812 0.912,-2.079 2.298,-4.62 2.934,-6.775 1.823,-6.183 -0.311,-8.139 -3.497,-10.375 -3.259,-2.288 -8.364,-4.703 -12.872,-2.125 -4.157,2.377 -8.087,9.84 -10.849,14.275 -5.777,9.279 -10.85,18.985 -15.271,28.9 -3.956,8.87 -9.742,20.588 -4.608,27.56 2.178,2.958 5.722,4.783 8.971,6.131 5.932,2.462 11.001,2.273 16.249,-5.563 6.116,-9.133 10.981,-19.072 14.861,-29.18 0.637,-1.659 2.712,-1.278 2.075,0.383 -4.355,11.346 -10.09,23.804 -17.71,33.536 -5.799,7.407 -12.361,5.298 -17.82,2.81 -6.092,-2.776 -11.924,-7.191 -10.875,-16.405 1.177,-10.331 7.702,-22.249 12.625,-31.922 2.999,-5.893 6.247,-11.68 9.75,-17.307 z"
   id="path193" />

				<path
   style="fill:#4ab1bb"
   d="m 1092.449,920.83 c -3.548,0 -6.742,-1.456 -8.795,-2.391 -5.501,-2.508 -12.678,-7.048 -11.488,-17.489 1.093,-9.593 6.554,-20.233 11.372,-29.622 l 1.361,-2.66 c 3.063,-6.018 6.359,-11.868 9.796,-17.388 v 0 c 0.57,-0.917 1.165,-1.91 1.781,-2.942 2.562,-4.283 5.464,-9.139 8.813,-12.171 6.212,-5.628 15.069,-1.096 19.324,2.467 6.602,5.526 3.506,12.431 -0.079,20.426 -0.311,0.693 -0.628,1.4 -0.947,2.124 -5.818,13.187 -11.64,26.02 -18.878,38.06 -1.707,2.839 -3.642,6.058 -7.434,6.488 -4.101,0.462 -9.362,-2.25 -11.521,-4.977 -5.5,-6.942 4.658,-23.585 9.541,-31.583 l 0.081,-0.134 c 0.819,-1.339 2.178,-1.5 3.041,-0.975 0.859,0.524 1.334,1.802 0.521,3.136 -3.42,5.604 -6.035,10.83 -7.995,15.977 l -0.122,0.319 c -1.714,4.491 -2.952,7.735 -0.17,11.12 1.013,1.233 4.124,2.681 5.466,2.309 4.161,-1.165 6.807,-6.397 9.142,-11.012 0.394,-0.777 0.775,-1.532 1.153,-2.245 2.435,-4.595 4.925,-9.634 7.612,-15.405 2.386,-5.128 4.678,-10.323 6.638,-14.79 0.286,-0.652 0.618,-1.35 0.96,-2.066 0.743,-1.561 1.512,-3.174 1.928,-4.583 1.636,-5.551 -0.108,-7.115 -3.09,-9.208 -3.147,-2.208 -7.736,-4.359 -11.737,-2.073 -3.234,1.85 -6.575,7.432 -9.016,11.508 -0.516,0.86 -1.003,1.676 -1.459,2.408 -5.551,8.914 -10.666,18.594 -15.203,28.771 l -0.717,1.598 c -3.774,8.393 -8.472,18.839 -4.007,24.903 2.109,2.863 5.663,4.594 8.524,5.781 5.556,2.307 9.996,2.243 14.963,-5.175 5.647,-8.432 10.61,-18.179 14.751,-28.97 0.36,-0.938 1.103,-1.583 1.983,-1.723 0.722,-0.11 1.409,0.137 1.84,0.667 0.463,0.571 0.547,1.373 0.23,2.198 -5.568,14.508 -11.412,25.566 -17.865,33.81 -3.308,4.223 -6.959,5.512 -10.298,5.512 z m -8.163,-46.318 c -4.423,8.661 -9.049,18.198 -10.015,26.678 -1.022,8.969 4.947,12.899 10.262,15.321 5.201,2.373 11.2,4.329 16.546,-2.5 4.808,-6.141 9.281,-13.904 13.563,-23.565 -3.309,7.287 -7.017,14.01 -11.075,20.069 -6.11,9.121 -12.293,8.126 -17.535,5.952 -3.114,-1.293 -6.999,-3.198 -9.417,-6.483 -5.198,-7.06 -0.221,-18.132 3.78,-27.028 l 0.713,-1.592 c 1.03,-2.309 2.091,-4.595 3.178,-6.852 z m 10.171,0.178 c -4.538,7.794 -10.791,20.018 -7.043,24.75 1.774,2.239 6.354,4.561 9.623,4.186 2.462,-0.279 3.87,-2.199 5.641,-5.117 -1.627,2.104 -3.556,3.773 -5.99,4.454 -2.408,0.676 -6.319,-1.354 -7.674,-3.002 -3.563,-4.336 -1.916,-8.651 -0.173,-13.221 l 0.122,-0.318 c 1.459,-3.834 3.271,-7.706 5.494,-11.732 z m 17.973,-38.226 c 2.859,0 6.017,1.15 9.245,3.416 2.874,2.018 5.071,4.016 4.536,8.584 0.563,-3.168 -0.094,-5.808 -2.958,-8.205 -3.73,-3.123 -11.412,-7.168 -16.543,-2.521 -1.729,1.565 -3.365,3.713 -4.905,6.025 1.809,-2.578 3.781,-4.869 5.865,-6.061 1.449,-0.828 3.051,-1.238 4.76,-1.238 z"
   id="path194" />

			</g>

		</g>
  </g>
</svg>
