<?xml version="1.0" encoding="UTF-8" standalone="no"?>
<!-- Created with Inkscape (http://www.inkscape.org/) -->

<svg
   width="124.7mm"
   height="73.727997mm"
   viewBox="0 0 124.7 73.727997"
   version="1.1"
   id="svg1"
   xml:space="preserve"
   inkscape:version="1.3.2 (091e20e, 2023-11-25, custom)"
   sodipodi:docname="VeroLogo.svg"
   xmlns:inkscape="http://www.inkscape.org/namespaces/inkscape"
   xmlns:sodipodi="http://sodipodi.sourceforge.net/DTD/sodipodi-0.dtd"
   xmlns="http://www.w3.org/2000/svg"
   xmlns:svg="http://www.w3.org/2000/svg"><sodipodi:namedview
     id="namedview1"
     pagecolor="#ffffff"
     bordercolor="#000000"
     borderopacity="0.25"
     inkscape:showpageshadow="2"
     inkscape:pageopacity="0.0"
     inkscape:pagecheckerboard="0"
     inkscape:deskcolor="#d1d1d1"
     inkscape:document-units="mm"
     inkscape:zoom="0.72426347"
     inkscape:cx="138.0713"
     inkscape:cy="450.8028"
     inkscape:window-width="1920"
     inkscape:window-height="1009"
     inkscape:window-x="1912"
     inkscape:window-y="-8"
     inkscape:window-maximized="1"
     inkscape:current-layer="layer1" /><defs
     id="defs1" /><g
     inkscape:label="Layer 1"
     inkscape:groupmode="layer"
     id="layer1"><path
       style="fill:#000000"
       d="m 103.55958,73.459348 -0.16785,-0.1905 -0.51059,-0.71966 -0.51059,-0.71967 -1.14324,-1.73567 -1.14324,-1.73566 -1.925351,-2.91101 -1.92535,-2.91102 -0.0402,-0.10475 -0.0402,-0.10475 1.25365,-0.18675 1.25364,-0.18674 0.888994,-0.25647 0.888997,-0.25647 0.55034,-0.27439 0.55033,-0.27438 0.84667,-0.55815 0.84666,-0.55816 0.26804,-0.23815 0.26803,-0.23815 0.51355,-0.57829 0.51356,-0.5783 0.44007,-0.72856 0.44008,-0.72857 0.3655,-0.8305 0.36551,-0.8305 0.37522,-1.24931 0.37522,-1.2493 0.21778,-1.457 0.21778,-1.45701 v -1.39437 -1.39437 l -0.0908,-0.65281 -0.0908,-0.65281 -0.20864,-0.71995 -0.20863,-0.71994 -0.30047,-0.81354 -0.30048,-0.81353 -0.2798,-0.55995 -0.2798,-0.55996 -0.5665,-0.85362 -0.56649,-0.85363 -0.58855,-0.67996 -0.58855,-0.67997 -0.38207,-0.22391 -0.38208,-0.22391 -0.0507,0.0507 -0.0507,0.0507 0.10939,1.31915 0.10939,1.31915 -0.0504,0.82056 -0.0504,0.82056 -0.25312,1.15629 -0.25313,1.15629 -0.26327,0.62171 -0.26327,0.62171 -0.42994,0.75873 -0.42995,0.75873 -0.42166,0.63827 -0.42167,0.63827 -0.466227,0.57131 -0.466227,0.57131 -0.477377,0.40886 -0.47738,0.40886 -1.07227,0.81133 -1.07226,0.81133 -0.57874,0.37712 -0.57873,0.37711 -0.42334,0.21276 -0.42333,0.21276 -1.143,0.39671 -1.143,0.3967 -1.016,0.29971 -1.016,0.29971 -0.42333,0.10845 -0.42334,0.10845 -0.635,0.13373 -0.635,0.13373 -0.634997,0.0929 -0.635,0.0929 -2.963333,0.0471 -2.963333,0.0471 -0.846667,-0.0922 -0.846667,-0.0922 -1.481666,-0.17027 -1.481667,-0.17027 -0.465667,-0.0813 -0.465666,-0.0813 -1.461742,-0.29604 -1.461742,-0.29604 -1.543925,-0.43666 -1.543925,-0.43666 -1.693333,-0.53746 -1.693333,-0.53745 -0.465667,-0.16418 -0.465667,-0.16417 -1.73253,-0.68702 -1.73253,-0.68702 h -0.07776 -0.07776 l -2.581597,-1.28623 -2.581598,-1.28623 -0.603448,-0.37754 -0.603449,-0.37754 -1.129057,-0.72806 -1.129056,-0.72807 -0.14069,-0.0847 -0.140691,-0.0847 -0.66317,-0.4445 -0.663171,-0.4445 h -0.279697 -0.279697 l -3.036266,0.34106 -3.036267,0.34107 -0.722998,0.0513 -0.722998,0.0513 -1.49995,-0.76595 -1.49995,-0.76594 -0.554656,-0.3958 -0.554656,-0.39579 -1.24451,-1.04069 -1.24452,-1.04068 -0.34857,-0.37012 -0.34856,-0.37013 -0.81524,-1.05246 -0.81524,-1.05247 0.29077,-0.1752 0.29077,-0.1752 0.49203,-0.28784 0.49204,-0.28784 2.07433,-1.22794 2.074337,-1.22794 0.581807,-0.34166 0.581808,-0.34166 0.158587,-0.13223 0.158587,-0.13222 -0.306053,-0.80434 -0.306054,-0.80433 -0.375236,-1.05833 -0.375236,-1.05834 -0.177424,-0.84666 -0.177423,-0.84667 -0.05101,-1.39118 -0.05102,-1.39119 -0.846667,-0.14911 -0.846663,-0.14911 -1.48167,-0.21033 -1.48167,-0.21033 -0.762,-0.0951 -0.762,-0.0951 -1.10066,-0.16915 -1.10067,-0.16916 -0.76411,-0.12735 -0.76412,-0.12735 -0.12311,-0.0761 -0.12311,-0.0761 0.01,-2.31135 0.01,-2.31135 0.17869,-1.04379 0.1787,-1.04378 v -0.0483 -0.0483 l 6.30043,0.0446 6.300423,0.0446 0.407746,-0.47652 0.407747,-0.47651 0.83576,-0.8632 0.835761,-0.8632 -0.02977,-0.0829 -0.02977,-0.0829 -0.35251,-0.28158 -0.352511,-0.28158 -1.044489,-0.87034 -1.04449,-0.87034 -0.508,-0.44681 -0.508,-0.4468 -1.557952,-1.3037197 -1.557955,-1.3037105 -0.26238,-0.26322 -0.26238,-0.26321 -0.27517,-0.19086 -0.27516,-0.19085 v -0.11727 -0.11728 l 0.35983,-0.16039 0.35983,-0.16039 0.734221,-0.42234 0.734216,-0.42235 0.705117,-0.30788 0.705117,-0.30789 1.330505,-0.47692 1.330505,-0.47692 0.362828,0.20534 0.362828,0.20534 0.846667,0.49632 0.846667,0.49631 0.59305,0.34443 0.593051,0.34442 1.481282,1.01327 1.481283,1.01327 0.889,0.5989705 0.889,0.5989797 0.569441,0.40369 0.569441,0.4037 0.150226,0.006 0.150225,0.006 1.27,-0.21826 1.27,-0.21826 0.931334,-0.13177 0.931333,-0.13178 0.1905,-0.0435 0.1905,-0.0435 -0.0042,-0.1888897 -0.0042,-0.18889 -1.596613,-3.1750005 -1.596613,-3.175 0.02786,-0.0286 0.02786,-0.0286 1.297792,0.0967 1.297792,0.0967 1.566333,0.12975 1.566333,0.12974 1.391017,0.2861 1.391016,0.28609 0.117928,0.11793 0.117927,0.11792 0.523056,0.72223 0.523056,0.72222 0.798312,1.04664 0.798312,1.04664 0.996015,1.3262605 0.996016,1.3262597 0.153006,0.0458 0.153006,0.0458 2.139823,0.51032 2.139824,0.51032 0.69651,0.20483 0.69651,0.20484 1.895236,0.56303 1.895236,0.56303 0.179097,-0.0256 0.179097,-0.0256 0.02269,-2.11395 0.02269,-2.1139502 0.07408,-0.0741 0.07408,-0.0741 0.98197,0.4347 0.98197,0.4346905 0.529936,0.2015397 0.529935,0.20153 0.750492,0.35389 0.750492,0.3539 1.069841,0.44659 1.069841,0.44659 0.719667,0.3073 0.719667,0.3073 0.0951,0.12802 0.0951,0.12801 0.06264,1.75533 0.06264,1.75533 0.09626,0.67406 0.09626,0.67406 0.635,0.37383 0.634997,0.37384 1.60867,0.85205 1.60867,0.85206 1.10066,0.69219 1.10067,0.69218 0.45388,0.28653 0.45388,0.28653 0.68912,0.45191 0.68912,0.45191 0.30921,0.15942 0.30922,0.15941 0.0813,-0.10332 0.0813,-0.10333 0.0507,-0.381 0.0507,-0.381 0.2087,-1.43933 0.20871,-1.43934 0.0566,-0.52693 0.0567,-0.52694 0.30749,0.12848 0.30749,0.12848 1.14496,0.74222 1.144944,0.74222 1.383997,0.84157 1.384,0.84157 0.20826,0.19088 0.20827,0.19087 -0.0459,0.0742 -0.0459,0.0742 0.12484,2.57126 0.12484,2.57127 0.0464,0.2713 0.0464,0.27131 0.22972,0.1769 0.22973,0.1769 0.80433,0.60455 0.80433,0.60455 0.67734,0.50898 0.67733,0.50898 0.49987,0.42793 0.49988,0.42793 0.81246,0.72295 0.81246,0.72295 0.35085,0.27188 0.35085,0.27189 1.38481,-0.002 1.38482,-0.002 1.51268,-0.0804 1.51268,-0.0804 0.13841,0.0741 0.1384,0.0741 0.53307,0.74913 0.53306,0.74914 0.76241,1.08322 0.7624,1.08322 0.25347,0.42987 0.25346,0.42987 -0.0308,0.0308 -0.0308,0.0308 -1.47589,0.7221 -1.4759,0.7221 -0.21166,0.10751 -0.21167,0.10751 -0.0257,0.17773 -0.0258,0.17772 0.46178,0.70845 0.46178,0.70845 0.71056,1.397 0.71056,1.39699 0.23886,0.97367 0.23887,0.97367 0.078,0.14816 0.078,0.14817 h 2.2245 2.22451 l 0.15491,0.11328 0.15492,0.11328 0.53751,2.10922 0.5375,2.10922 0.001,0.22365 10e-4,0.22366 -0.20761,0.0521 -0.20761,0.0521 -1.59156,-0.0855 -1.59155,-0.0855 -1.08961,-0.0912 -1.08961,-0.0912 -0.0719,0.0719 -0.0719,0.0719 -0.30545,1.01447 -0.30544,1.01446 -0.54392,0.94108 -0.54392,0.94109 v 0.1322 0.13221 l 1.0795,0.74276 1.0795,0.74276 0.889,0.60004 0.889,0.60004 1.46918,1.00746 1.46919,1.00746 0.0329,0.0901 0.0329,0.0901 -0.66141,1.28746 -0.66141,1.28747 -0.79839,1.05915 -0.7984,1.05915 -0.10337,0.003 -0.10338,0.003 -1.46296,-0.91795 -1.46296,-0.91795 -1.22766,-0.80314 -1.22767,-0.80315 -0.39469,-0.24741 -0.39469,-0.2474 -0.90239,-0.5715 -0.90239,-0.5715 h -0.16274 -0.16273 l -0.95318,0.70426 -0.95319,0.70426 -0.635,0.42897 -0.635,0.42898 -0.42333,0.22066 -0.42334,0.22066 -0.59266,0.3697 -0.59267,0.3697 -0.0268,0.17959 -0.0268,0.17958 1.83541,3.67771 1.83541,3.6777 -0.0336,0.10075 -0.0336,0.10074 -0.50501,0.20702 -0.50501,0.20702 -1.10067,0.38282 -1.10066,0.38282 -1.22767,0.42692 -1.22767,0.42692 -0.45764,0.15961 -0.45764,0.15961 h -0.0568 -0.0568 z m -15.524981,-27.53793 0.889,-0.11291 1.143,-0.26125 1.143,-0.26126 0.42333,-0.13776 0.42334,-0.13776 0.53732,-0.30648 0.53732,-0.30648 0.22468,-0.14559 0.22468,-0.14559 0.22922,-0.12988 0.22922,-0.12988 0.4764,-0.4442 0.47641,-0.44419 0.36818,-0.7278 0.36818,-0.72781 0.14931,-0.54219 0.14931,-0.5422 0.004,-1.143 0.004,-1.143 -0.12101,-0.29633 -0.12101,-0.29634 -0.35833,-0.76517 -0.35833,-0.76518 -0.65161,-0.97049 -0.65161,-0.97049 -1.11272,-1.10591 -1.11271,-1.10592 -0.93133,-0.80259 -0.93134,-0.80259 -0.59266,-0.46961 -0.59267,-0.46961 -0.635,-0.42207 -0.634999,-0.42207 -0.846667,-0.55655 -0.846667,-0.55655 -0.84737,-0.50612 -0.84737,-0.50612 -1.734963,-0.87021 -1.734963,-0.87021 -1.185334,-0.46017 -1.185333,-0.46017 -0.931333,-0.33499 -0.931334,-0.33498 -1.651,-0.49923 -1.651,-0.49924 -1.016,-0.25009 -1.016,-0.25009 -0.931333,-0.18466 -0.931333,-0.18466 -0.423334,-0.12319 -0.423333,-0.12319 -0.973667,-0.12965 -0.973666,-0.12965 -1.016,-0.12105 -1.016,-0.12106 -1.780221,-7.3e-4 -1.780222,-7.4e-4 -0.717445,0.0867 -0.717446,0.0867 -0.677333,0.12933 -0.677333,0.12932 -0.889,0.25867 -0.889,0.25868 -0.57346,0.20149 -0.57346,0.2015 -0.611873,0.33673 -0.611874,0.33673 -0.430901,0.40522 -0.430902,0.40522 -0.208771,0.29633 -0.208772,0.29633 -0.226982,0.39407 -0.226982,0.39406 -0.234012,0.70661 -0.234011,0.7066 0.0024,0.97366 0.0024,0.97367 0.239546,0.71967 0.239545,0.71966 0.385317,0.75019 0.385316,0.75018 0.346433,0.42192 0.346432,0.42192 0.254,0.32316 0.254,0.32315 0.368833,0.48181 0.368833,0.48181 0.934161,0.9312 0.934162,0.9312 0.238589,0.1451 0.238589,0.14509 0.481192,0.44786 0.481191,0.44785 0.432558,0.30858 0.432559,0.30857 0.550333,0.41042 0.550333,0.41041 0.328981,0.18246 0.328981,0.18246 0.136686,0.0854 0.136686,0.0854 0.889,0.5021 0.889,0.5021 0.375501,0.25285 0.375501,0.25286 2.164499,1.07415 2.164499,1.07414 0.338666,0.1069 0.338667,0.1069 0.557367,0.27634 0.557367,0.27635 0.966633,0.34154 0.966633,0.34155 1.058333,0.3344 1.058334,0.3344 1.016,0.26263 1.016,0.26263 1.439333,0.2987 1.439333,0.29869 0.719667,0.12061 0.719667,0.12061 0.973666,0.0935 0.973667,0.0935 0.592667,0.0958 0.592666,0.0958 1.100667,0.10595 1.100667,0.10595 0.973666,-0.0421 0.973667,-0.0421 z m -28.236333,21.62594 -3.81,-0.0578 -0.592667,-0.0898 -0.592667,-0.0898 -1.312333,-0.13444 -1.312333,-0.13444 -1.778,-0.21014 -1.778,-0.21014 -0.889,-0.12465 -0.889,-0.12466 -0.846667,-0.12713 -0.846667,-0.12712 -1.142999,-0.20565 -1.143,-0.20565 -1.481667,-0.26629 -1.481667,-0.26629 -0.846666,-0.17028 -0.846667,-0.17028 -1.947336,-0.46476 -1.94733,-0.46476 -1.56633,-0.42546 -1.56634,-0.42547 -1.016,-0.28744 -1.016,-0.28744 -1.18533,-0.37345 -1.18533,-0.37346 -1.05833,-0.38847 -1.05834,-0.38848 -1.31233,-0.46956 -1.31234,-0.46955 -0.508,-0.20439 -0.508,-0.20439 -1.397,-0.54966 -1.397,-0.54965 -0.55033,-0.20891 -0.55033,-0.20891 -0.80434,-0.37608 -0.80433,-0.37608 -1.69293,-0.75446 -1.69293,-0.75446 -1.43974,-0.72876 -1.4397294,-0.72876 -1.8626699,-0.97019 -1.86267,-0.9702 -0.508,-0.30036 -0.508,-0.30037 -1.5875,-0.91409 -1.5875,-0.91408 v -7.47943 -7.47943 h 0.0643 0.0643 l 1.65019,1.65794 1.65018,1.65793 1.23453,1.1149 1.23453,1.1149 0.75514,0.6538 0.75514,0.65379 0.8889996,0.68178 0.8889997,0.68178 0.9638,0.73876 0.9638,0.73876 0.9412,0.68155 0.9412,0.68156 1.10066,0.75338 1.10067,0.75339 0.92694,0.63389 0.92695,0.63389 0.59705,0.33603 0.59706,0.33602 1.29882,0.70263 1.29882,0.70263 0.0982,0.0774 0.0982,0.0774 3.38667,1.7015 3.38666,1.7015 1.397,0.60714 1.397,0.60714 0.889,0.37721 0.889,0.37721 1.22767,0.46227 1.22767,0.46227 1.18533,0.42835 1.185333,0.42835 0.465666,0.16516 0.465667,0.16516 2.455333,0.67561 2.455334,0.6756 0.423333,0.12362 0.423333,0.12362 1.651,0.38657 1.651,0.38656 0.719667,0.19787 0.719666,0.19786 1.143,0.25779 1.143,0.25779 1.312334,0.26392 1.312333,0.26391 1.354667,0.20431 1.354666,0.2043 2.328334,0.33917 2.328333,0.33918 1.439333,0.16304 1.439334,0.16303 0.889,0.0552 0.889,0.0552 1.185333,0.12061 1.185333,0.12062 1.693334,0.12791 1.693333,0.12792 4.064,0.0952 4.064,0.0952 4.826,-0.0519 4.826,-0.0519 0.46567,-0.0444 0.46566,-0.0444 -0.21166,0.0938 -0.21167,0.0938 -1.82033,0.37439 -1.82034,0.37439 -0.126997,0.0391 -0.127,0.0391 -1.989666,0.3499 -1.989667,0.3499 -0.635,0.11523 -0.635,0.11522 -1.735667,0.21787 -1.735666,0.21786 -1.397,0.20549 -1.397,0.20549 -1.312334,0.0859 -1.312333,0.0859 -1.100667,0.12571 -1.100666,0.12571 -3.556,-0.014 -3.556,-0.014 z m 14.139333,-5.70976 -1.778,-0.10535 -0.804333,-0.0927 -0.804334,-0.0927 -1.312333,-0.13061 -1.312333,-0.1306 -1.947334,-0.30181 -1.947333,-0.3018 -1.143,-0.19802 -1.143,-0.19801 -0.635,-0.0966 -0.635,-0.0966 -1.100667,-0.20796 -1.100666,-0.20795 -1.143,-0.26256 -1.143,-0.26256 -1.735667,-0.46808 -1.735667,-0.46807 -1.168613,-0.32043 -1.168613,-0.32042 -1.54072,-0.48023 -1.54072,-0.48022 -1.481667,-0.55105 -1.481666,-0.55105 -0.08467,-0.0639 -0.08467,-0.0639 -0.592666,-0.19302 -0.592667,-0.19303 -0.762,-0.28796 -0.762,-0.28796 -0.338667,-0.16025 -0.338666,-0.16024 -1.312334,-0.56504 -1.312333,-0.56503 -0.97367,-0.40311 -0.97366,-0.40312 -2.58234,-1.30939 -2.58233,-1.30939 -0.93133,-0.50813 -0.93134,-0.50813 -0.889,-0.50754 -0.88899,-0.50754 -0.762,-0.49132 -0.762,-0.49132 -0.42333,-0.27386 -0.42334,-0.27385 -1.10066,-0.69357 -1.10067,-0.69357 -0.762,-0.52827 -0.762,-0.52826 -1.05833,-0.74744 -1.05834,-0.74744 -0.71108,-0.56021 -0.71108,-0.56021 -0.51658,-0.39664 -0.51659,-0.39664 -0.64716,-0.49236 -0.64716,-0.49236 -1.45731,-1.18534 -1.45732,-1.18533 -1.22576,-1.143 -1.2257597,-1.143 -0.11741,-0.0663 -0.11741,-0.0663 -1.2120796,-1.37303 -1.21207,-1.37304 -0.54545,-0.67733 -0.54545,-0.67734 -0.81151,-1.016 -0.8115,-1.016 -0.19821,-0.33866 -0.1982,-0.33867 -0.2803,-0.43318 -0.28029,-0.43317 -0.5899,-1.09083 -0.58989,-1.09082 -0.42371,-0.97367 -0.42371,-0.97366 -0.29432,-1.143 -0.29432997,-1.143 -0.24023,-1.397 -0.24022997,-1.397 0.002,-1.56634 0.002,-1.56633 0.30812997,-1.15164 0.30812997,-1.15165 0.36182,-0.87182 0.36182,-0.87182 0.5312,-0.7281997 0.53121,-0.7282005 0.69917,-0.95427 0.69918,-0.95426 0.66498,-0.56776 0.66499,-0.56776 0.48074,-0.33285 0.48073,-0.33285 0.44468,-0.36144 0.44467,-0.36145 1.07933,-0.54545 1.0793196,-0.54544 0.6773397,-0.29876 0.67733,-0.29875 1.016,-0.42293 1.016,-0.42293 0.67733,-0.14675 0.67734,-0.14674 0.88754,-0.20409 0.88754,-0.20409 1.39846,-0.17348997 1.39846,-0.17348 0.67693,-0.0471 0.67693,-0.0472 1.9054,0.10031 1.9054,0.1003 1.27,0.12994997 1.27,0.12994 0.32827,0.0843 0.32827,0.0843 -0.0743,0.0729 -0.0743,0.0728 -1.18533,0.29926 -1.18534,0.29926 -1.10066,0.38808 -1.10067,0.38808 -0.84666,0.38304 -0.84667,0.38305 -0.67733,0.32633 -0.67734,0.32632 -0.80433,0.36984 -0.80433,0.36985 -1.03166,0.52299 -1.03165,0.523 -1.00035,0.75595 -1.00034,0.75596 -1.02456,1.04532 -1.02456,1.0453205 -0.35736,0.6178597 -0.35735,0.61785 -0.28873,0.60981 -0.28873,0.60982 -0.27039,1.016 -0.2703897,1.016 -0.006,1.69333 -0.006,1.69333 0.1929097,1.016 0.19291,1.016 0.34435,1.18534 0.34435,1.18533 0.2855,0.74227 0.2855,0.74228 0.2229,0.38035 0.2229,0.38035 0.79309,1.20571 0.79309,1.20571 0.41813,0.508 0.41814,0.508 0.57741,0.71966 0.57742,0.71967 1.99168,1.99426 1.99169,1.99427 0.762,0.6516 0.762,0.6516 0.94101,0.82547 0.94101,0.82547 1.38732,1.14277 1.38732,1.14277 0.69135,0.50823 0.69134,0.50823 0.95965,0.69902 0.95966,0.69903 0.508,0.38084 0.508,0.38084 0.97367,0.66387 0.97366,0.66387 1.143,0.79013 1.143,0.79014 0.71967,0.48375 0.71967,0.48374 1.56633,0.9107 1.566332,0.9107 0.663957,0.37218 0.663957,0.37219 3.041485,1.5212 3.041485,1.52119 2.221225,0.89529 2.221224,0.89528 0.338667,0.12622 0.338667,0.12621 3.090333,1.05544 3.090333,1.05544 0.846667,0.21373 0.846667,0.21374 1.185333,0.3413 1.185333,0.34129 0.677334,0.15286 0.677333,0.15286 1.989667,0.51022 1.989666,0.51021 0.719667,0.12865 0.719667,0.12865 0.804333,0.0932 0.804333,0.0932 0.592667,0.12879 0.592667,0.12879 1.778,0.20403 1.778,0.20403 0.578522,0.0871 0.578521,0.0871 1.284145,0.12168 1.284145,0.12168 2.286,0.10076 2.286,0.10076 1.143,-0.0505 1.143,-0.0505 2.116667,-0.1307 2.11667,-0.1307 1.43933,-0.12964 1.43933,-0.12964 0.71967,-0.0849 0.71967,-0.0849 0.59266,-0.0883 0.59267,-0.0883 1.10067,-0.248 1.10066,-0.248 0.92097,-0.37602 0.920977,-0.37601 0.801807,-0.49082 0.801817,-0.49082 0.2497,-0.15829 0.2497,-0.15829 0.0452,0.0452 0.0452,0.0452 -0.10451,0.19775 -0.1045,0.19775 -0.37355,0.48759 -0.37355,0.48759 -0.438967,0.43336 -0.43897,0.43335 -0.592664,0.40084 -0.59267,0.40085 -0.59266,0.29741 -0.59267,0.29741 -0.614,0.22054 -0.614,0.22054 -0.656,0.16621 -0.656,0.1662 -1.73567,0.33995 -1.73566,0.33995 -1.3981,0.21453 -1.39809,0.21453 -1.01491,0.0855 -1.014904,0.0855 -1.735666,0.12177 -1.735667,0.12177 -1.524,0.0903 -1.524,0.0903 -2.032,-0.0119 -2.032,-0.0119 z"
       id="path1" /></g></svg>
